<?xml version="1.0" encoding="utf-8"?>
<!-- Generator: Adobe Illustrator 25.4.1, SVG Export Plug-In . SVG Version: 6.00 Build 0)  -->
<svg version="1.1" id="Layer_1" xmlns="http://www.w3.org/2000/svg" xmlns:xlink="http://www.w3.org/1999/xlink" x="0px" y="0px"
	 viewBox="0 0 500 500" style="enable-background:new 0 0 500 500;" xml:space="preserve">
<style type="text/css">
	.st0{fill:#201B1B;}
</style>
<g id="Bats">
	<path class="st0" d="M154.4,115.3c-1-2,14.9-27,48.9-41.1s57.4-9.6,58.4-7.6s-0.9,43.5,52.1,78.8c0,0-3.1-32.5,11.9-30.5
		s-3.4,38-3.4,38l23.5,11.4c0,0,16.9-26,25.4-19c8.5,7-13.4,25.5-13.4,25.5s28.5,4.9,49-0.1c20.5-5,37.9-18.1,41.4-17.6
		c3.5,0.5,35.5,25.4,45.1,53.4c9.6,28,5.6,55.4,3.6,55.9c-2,0.5-40.5-27.9-51-25.4c-10.5,2.5-17.5,12-19.5,12
		c-2,0-24.5-29.9-37-30.4s-19.9,16-21.9,16.5c-2,0.5-20-20.4-32-18.9c-12,1.5-39.4,32.6-43.9,31.1S289.5,206,284,201
		c-5.5-5-18-6-21-7.4s-2.1-26.5-16.1-32.9c-14-6.5-37,5.8-39.5,3.2s-9.1-40.5-16.1-44.5c-7-4-37.1,0.1-37-1.9"/>
	<path class="st0" d="M188.6,212.7c-2.4,2.4,7.5,46.9-33.8,109.5c0,0-1.5-30.5-13-27.9c-11.5,2.5,0.1,37.5,0.1,37.5l-13-3.5
		c0,0-0.1-33.5-9.6-32s0.1,28.5,0.1,28.5s-24-16.4-35.5-33.9s-19.1-46.4-22.1-47.4c-3-1-21-2-35,7.6s-27.9,35-26.9,37
		s27.5-4.1,33.5,5.9s1.1,34.5,3.1,35.5s24.5-4,33.5,5.4c9,9.5,12.6,34.9,15.1,35.9c2.5,1,19-7,30,2.9c11,10,26.6,34.4,29.5,33.9
		c3-0.5,17.9-41,31.9-54.5s28.9-19,29.9-21c1-2-9.5-26-3.1-36.5s31-6.1,34-7.6s-3.1-28,5.4-37.5c8.5-9.5,22-11,23-12.5
		s-19-24.9-36-27.5C209.2,207.4,192.1,209.2,188.6,212.7z"/>
	<path class="st0" d="M182.2,477c-3.5,0.5-11.6-66.4,32.8-98.5c0,0-5.5-12.5,0-14c5.5-1.5,6.5,12.5,6.5,12.5l6-0.5
		c0,0,0.5-15,7-15.5c6.5-0.5,0,14,0,14s42.4-12.6,66.4,3.4s36.1,39.9,34.1,40.4c-2,0.5-13-6-20-4.9c-7,1-14.5,2-16.5,1
		c-2-1-3-11-9-13c-6-2-13.5,0.5-15.5,0c-2-0.5,2-13.5-8-16s-25-1.9-27-0.4s-5.5,9.5-8,10c-2.5,0.5-11.5-6.5-13.5-5c-2,1.5-7,11-6,17
		s4.5,15,3.5,16.5c-1,1.5-12.5,2-13,6c-0.5,4,8.5,22.5,8,25.5c-0.5,3-12-0.5-16.5,4.5S182.2,477,182.2,477z"/>
</g>
</svg>
