<?xml version="1.0" encoding="utf-8"?>
<!-- Generator: Adobe Illustrator 25.4.1, SVG Export Plug-In . SVG Version: 6.00 Build 0)  -->
<svg version="1.1" id="Layer_1" xmlns="http://www.w3.org/2000/svg" xmlns:xlink="http://www.w3.org/1999/xlink" x="0px" y="0px"
	 viewBox="0 0 500 500" style="enable-background:new 0 0 500 500;" xml:space="preserve">
<style type="text/css">
	.st0{fill:#A78EB8;}
	.st1{opacity:0.3;fill:#D2D1CA;}
	.st2{opacity:0.3;fill:#644B77;}
	.st3{fill:#D2D1CA;}
	.st4{fill:#644B77;}
</style>
<g id="Gem">
	<path class="st0" d="M328.1,499.7c3.2-2.3,29.6-29.6,29.6-29.6s17.1-1.4,19.2-3.3c2-1.9,63.3-236.9,62.9-239.2
		c-0.4-2.3-35.5-68.1-39-74.6c-3.5-6.5-18.6-25.2-18.6-25.2s-48.7,74.8-48.7,79.5c0,4.7-6.4,81.7-6.4,81.7s-25.1-145-27.8-146.9
		c-2.7-1.9-53.5-62.6-74.2-82c-20.7-19.3-64.1-60-64.1-60s-45.5,97.9-50,112.9c-4.5,15-10.6,53.2-10.5,57.9
		c0,4.7,73.7,138.2,73.7,138.2s-34.7-9-44.6-11.2c-9.9-2.2-36.7-2.3-36.7-2.3s29.4,73.9,34.4,84.9c5.1,11,16.2,29.6,19.3,33.8
		c3.1,4.2,122.9,66.5,122.9,66.5S323.8,502.8,328.1,499.7z"/>
	<path class="st1" d="M327.2,288.9c0,0-25.1-145-27.8-146.9c-2.7-1.9-53.5-62.6-74.2-82c-20.7-19.3-64.1-60-64.1-60
		s-29.6,63.8-43.4,96.3l46-81.4l21.5,19.1l75,122.2L220,169.2l67.9,120.2l-20.1-97.7l27.3-15.9l48.5,220.9l-15.7-114.2
		C327.4,286.5,327.2,288.9,327.2,288.9z"/>
	<path class="st2" d="M314.2,414.1L174,180.5l-70.4-31.7l0,0c-1.8,10.7-3,19.8-3,22c0,4.7,73.7,138.2,73.7,138.2l91.7,161.1
		L180,385.5l-86-87c5.5,13.9,28.8,72.3,33.2,81.9c5.1,11,16.2,29.6,19.3,33.8c3.1,4.2,122.9,66.5,122.9,66.5s54.3,22.2,58.6,19.1
		c0.5-0.4,1.8-1.5,3.4-3.1L314.2,414.1z"/>
	<path class="st2" d="M319.3,498.6l-58-127.2L214.1,171l-44.5-42.1L132.7,62c-10.2,22.7-19.7,44.5-21.7,51
		c-4.5,15-10.6,53.2-10.5,57.9c0,4.7,73.7,138.2,73.7,138.2l-13.9,56.1L94,298.4c5.5,13.9,28.8,72.3,33.2,81.9
		c5.1,11,16.2,29.6,19.3,33.8c3.1,4.2,122.9,66.5,122.9,66.5L319.3,498.6C319.3,498.6,319.3,498.6,319.3,498.6z"/>
	<path class="st2" d="M376.9,466.8c2-1.9,63.3-236.9,62.9-239.2l-63.2,146l-49.4-84.7l30.5,181.2
		C357.7,470.1,374.8,468.7,376.9,466.8z"/>
	<path class="st2" d="M372.9,468.1l-16.3-245.3l1.8-58l0,0c-12.3,19.5-24.8,39.9-24.8,42.3c0,4.7-6.4,81.7-6.4,81.7s-3.8-22-8.6-49
		l29.1,240.5l10.1-10.3l14.7-1.9C372.6,468.2,372.7,468.2,372.9,468.1z"/>
	<path class="st2" d="M174.2,309l91.7,161.1l-108.6-73.5l-37.5-34.1v0c3.4,8.4,6.2,15.1,7.5,17.8c5.1,11,16.2,29.6,19.3,33.8
		c3.1,4.2,122.9,66.5,122.9,66.5s33.3,13.6,49.8,18l-28.2-62.2L100.5,170.9l1.4,3.5C111.9,196.2,174.2,309,174.2,309z"/>
	<path class="st1" d="M382.2,127.7c0,0-27.3,41.9-41,64.9l41.3-48.1l38.2,86.9l-38.2,9l40.8,5.8l-30.9,165l0,0
		c18.7-70.2,47.7-182,47.4-183.6c-0.4-2.3-35.5-68.1-39-74.6C397.3,146.4,382.2,127.7,382.2,127.7z"/>
	<path class="st1" d="M174.2,309c0,0-34.7-9-44.6-11.2c-9.9-2.2-36.7-2.3-36.7-2.3l93,34.1L174.2,309z"/>
	<polygon class="st3" points="203.9,49.7 269.9,140.7 277.7,135.2 	"/>
	<polygon class="st3" points="282.3,161.8 327,321.9 291.8,157.5 	"/>
	<polygon class="st3" points="392.4,151.5 404.5,222.5 419.7,222.4 	"/>
	<polygon class="st3" points="414.1,244.9 406.9,333.6 429.2,242.3 	"/>
	<g>
		<g>
			<g>
				<polygon class="st4" points="172.9,178.1 191.6,218 210.2,257.9 247,338 283.4,418.2 301.4,458.4 319.3,498.6 300.5,458.8 
					282,418.8 245.2,338.8 208.8,258.5 190.7,218.4 				"/>
			</g>
			<g>
				<path class="st4" d="M161.1,0c0.7,7.4,1.3,14.8,2,22.2l1.8,22.2c1.2,14.8,2.1,29.7,3.2,44.5c0.9,14.8,1.9,29.7,2.7,44.5
					l1.2,22.3c0.3,7.4,0.7,14.9,1,22.3c-0.7-7.4-1.3-14.8-2-22.2l-1.8-22.2C168,118.8,167,104,166,89.1c-0.9-14.8-1.9-29.7-2.7-44.5
					L162,22.3C161.7,14.9,161.3,7.4,161.1,0z"/>
			</g>
			<g>
				<path class="st4" d="M181.5,28.6c7.1,9.9,14,19.9,20.8,30c6.8,10.1,13.5,20.2,20.1,30.5c6.6,10.2,13.1,20.5,19.4,31
					c1.6,2.6,3.1,5.2,4.7,7.9c1.5,2.6,3.1,5.3,4.5,7.9l2.2,4c0.7,1.3,1.4,2.7,2.1,4c0.7,1.4,1.4,2.7,2.1,4.1l1.9,4.2
					c-1.4-2.7-2.8-5.4-4.4-8c-0.8-1.3-1.5-2.6-2.3-3.9l-2.4-3.9c-1.6-2.6-3.2-5.2-4.8-7.7c-1.6-2.6-3.2-5.2-4.9-7.7
					c-6.5-10.3-13.1-20.5-19.7-30.7l-19.7-30.7C194.5,49.2,188,38.9,181.5,28.6z"/>
			</g>
			<g>
				<path class="st4" d="M261.6,165.4c3.1,13.8,6.1,27.5,9.2,41.3l9,41.3l17.7,82.7l17.3,82.8l8.5,41.4c2.8,13.8,5.6,27.6,8.3,41.5
					c-3.1-13.8-6.1-27.5-9.2-41.3l-9-41.3l-17.7-82.7l-17.2-82.8l-8.5-41.4C267.2,193,264.3,179.2,261.6,165.4z"/>
			</g>
			<g>
				<path class="st4" d="M299.4,142c-9.7,4-19.5,7.8-29.4,11.5c-9.9,3.6-19.8,7.1-29.8,10.4c-10,3.3-20,6.4-30.2,9.1
					c-10.1,2.8-20.4,5.3-30.8,6.7c10.3-2.2,20.3-5.2,30.4-8.2c10-3.1,20-6.2,30-9.5c10-3.3,19.9-6.6,29.9-9.9L299.4,142z"/>
			</g>
			<g>
				<path class="st4" d="M103.6,148.9c10.9,4.6,21.5,9.6,32.2,14.7c5.3,2.6,10.6,5.1,15.9,7.7l7.9,3.9c2.6,1.3,5.3,2.6,8,3.8
					c-5.7-1.7-11.2-3.9-16.6-6.3c-5.4-2.3-10.8-4.8-16.1-7.4c-5.3-2.6-10.6-5.2-15.8-8C113.8,154.7,108.7,151.9,103.6,148.9z"/>
			</g>
			<g>
				<path class="st4" d="M174.2,309c4.2,7.1,8.3,14.2,12.5,21.3l12.3,21.4c8.2,14.3,16.2,28.6,24.3,42.9c8,14.4,16,28.7,23.9,43.1
					l11.8,21.7c3.9,7.3,7.8,14.5,11.6,21.8c-4.2-7.1-8.3-14.2-12.5-21.3L246,438.5c-8.2-14.3-16.2-28.6-24.3-42.9
					c-8-14.4-16-28.7-23.9-43.1l-11.8-21.7C182,323.5,178,316.3,174.2,309z"/>
			</g>
			<g>
				<path class="st4" d="M327.2,288.9c1.5,7.5,2.9,15,4.3,22.6l4.1,22.6c2.7,15.1,5.2,30.2,7.9,45.3c2.5,15.1,5,30.2,7.4,45.3
					l3.5,22.7c1.1,7.6,2.3,15.1,3.3,22.7c-1.5-7.5-2.9-15-4.3-22.6l-4.1-22.6c-2.7-15.1-5.2-30.2-7.9-45.3
					c-2.5-15.1-5-30.2-7.4-45.3l-3.5-22.7C329.4,304,328.2,296.5,327.2,288.9z"/>
			</g>
			<g>
				<path class="st4" d="M382.2,127.7c0.6,9,1,17.9,1.3,26.9c0.3,9,0.5,17.9,0.7,26.9c0.2,9,0.3,17.9,0.3,26.9
					c0,9-0.1,17.9-0.3,26.9c-0.6-9-1-17.9-1.3-26.9c-0.3-9-0.5-17.9-0.7-26.9c-0.1-9-0.3-17.9-0.3-26.9
					C381.9,145.6,382,136.6,382.2,127.7z"/>
			</g>
			<g>
				<path class="st4" d="M439.1,225.8c-4.4,1.6-8.8,3-13.3,4.3c-4.5,1.3-9,2.5-13.4,3.7c-4.5,1.2-9,2.3-13.6,3.3
					c-4.5,1-9.1,2-13.7,2.8c4.4-1.6,8.8-3,13.3-4.3c4.5-1.3,9-2.5,13.4-3.7c4.5-1.2,9-2.3,13.6-3.3
					C429.9,227.6,434.5,226.6,439.1,225.8z"/>
			</g>
			<g>
				<path class="st4" d="M379.5,238.5c-4.1-2.3-8-4.7-11.9-7.2c-3.9-2.5-7.8-5-11.6-7.6c-3.8-2.6-7.6-5.3-11.4-8
					c-3.7-2.7-7.5-5.5-11.1-8.5c4.1,2.3,8,4.7,11.9,7.2c3.9,2.5,7.8,5,11.6,7.6c3.8,2.6,7.6,5.3,11.4,8
					C372.2,232.8,375.9,235.5,379.5,238.5z"/>
			</g>
			<g>
				<path class="st4" d="M383.2,244.4c-0.1,9.3-0.4,18.7-0.6,28l-0.9,28c-0.6,18.7-1.4,37.3-2.1,55.9c-0.9,18.6-1.7,37.3-2.7,55.9
					c-1.1,18.6-2,37.3-3.9,55.9c0.6-9.3,0.9-18.6,1.3-28l1.1-28l2.3-55.9l2.6-55.9l1.4-28C382.1,263.1,382.6,253.8,383.2,244.4z"/>
			</g>
			<g>
				<path class="st4" d="M182.9,324.6c0,4.2-0.2,8.3-0.4,12.5c-0.2,4.1-0.6,8.3-1,12.4c-0.4,4.1-0.9,8.3-1.4,12.4
					c-0.6,4.1-1.2,8.2-2,12.3c0-4.2,0.2-8.3,0.4-12.5c0.2-4.1,0.6-8.3,1-12.4c0.4-4.1,0.9-8.3,1.4-12.4
					C181.5,332.8,182.1,328.7,182.9,324.6z"/>
			</g>
			<g>
				<path class="st4" d="M170.7,383.4c-2,2.5-4,4.9-6.2,7.2c-2.1,2.3-4.3,4.6-6.6,6.8c-2.3,2.2-4.5,4.4-6.9,6.5
					c-2.3,2.1-4.7,4.2-7.3,6.1c2-2.5,4-4.9,6.2-7.2c2.1-2.3,4.3-4.6,6.6-6.8c2.3-2.2,4.5-4.4,6.9-6.5
					C165.8,387.4,168.2,385.3,170.7,383.4z"/>
			</g>
			<g>
				<path class="st4" d="M92.8,295.4c7.5,7.2,15,14.6,22.4,22c7.4,7.4,14.7,14.9,22,22.3c7.3,7.5,14.5,15,21.6,22.7
					c7.2,7.6,14.3,15.3,21.2,23.1c-7.5-7.2-15-14.5-22.4-21.9c-7.4-7.4-14.7-14.9-22-22.4c-7.3-7.5-14.5-15-21.6-22.7
					C106.9,310.9,99.8,303.2,92.8,295.4z"/>
			</g>
			<g>
				<path class="st4" d="M187.8,391.4c6.8,6.6,13.6,13.2,20.2,20c6.7,6.7,13.3,13.5,19.8,20.4c6.5,6.9,13.1,13.7,19.5,20.7
					c6.5,6.9,12.8,14,19.1,21.1c-6.8-6.6-13.6-13.2-20.2-20c-6.7-6.7-13.3-13.5-19.8-20.4c-6.5-6.9-13.1-13.7-19.5-20.7
					C200.4,405.5,194.1,398.5,187.8,391.4z"/>
			</g>
		</g>
		<g>
			<g>
				<path class="st4" d="M215.9,227.5c2.1,4.5,4.1,9,6.2,13.5l6.1,13.6c4,9.1,8,18.2,11.9,27.2c3.9,9.1,7.8,18.2,11.6,27.4l5.7,13.7
					c1.8,4.6,3.7,9.2,5.6,13.8c-2.1-4.5-4.1-9-6.2-13.5l-6.1-13.6c-4-9.1-8-18.2-11.9-27.2c-3.9-9.1-7.8-18.2-11.6-27.4l-5.7-13.7
					C219.6,236.7,217.7,232.2,215.9,227.5z"/>
			</g>
			<g>
				<path class="st4" d="M266.5,318c1,2.2,1.9,4.4,2.8,6.7c0.8,2.2,1.6,4.5,2.4,6.8c0.7,2.3,1.4,4.6,2,6.9c0.6,2.3,1.2,4.6,1.6,7
					c-1-2.2-1.9-4.4-2.8-6.6c-0.8-2.2-1.6-4.5-2.4-6.8c-0.7-2.3-1.4-4.6-2-6.9C267.5,322.7,266.9,320.3,266.5,318z"/>
			</g>
			<g>
				<path class="st4" d="M242,363.1c2.3,4.8,4.6,9.7,6.9,14.6l6.8,14.6c4.5,9.8,8.9,19.6,13.3,29.4c4.3,9.8,8.7,19.7,13,29.5
					l6.4,14.8c2.1,5,4.2,9.9,6.2,14.9c-2.3-4.8-4.6-9.7-6.9-14.6l-6.8-14.6c-4.5-9.8-8.9-19.6-13.3-29.4c-4.3-9.8-8.7-19.7-13-29.5
					l-6.4-14.8C246.2,373.1,244.1,368.1,242,363.1z"/>
			</g>
			<g>
				<path class="st4" d="M219.1,313.1c3,6.3,5.6,12.9,8.1,19.4c2.4,6.6,4.8,13.2,6.7,19.9c-3-6.3-5.6-12.9-8.1-19.4
					C223.4,326.5,221,319.9,219.1,313.1z"/>
			</g>
			<g>
				<path class="st4" d="M226.8,357.6c1.5,2.8,2.9,5.7,4.3,8.5l4.1,8.6c2.8,5.7,5.4,11.5,8.1,17.3c2.6,5.8,5.2,11.6,7.7,17.4
					l3.8,8.8c1.2,2.9,2.5,5.9,3.6,8.8c-1.5-2.8-2.9-5.7-4.3-8.5l-4.1-8.6c-2.8-5.7-5.4-11.5-8.1-17.3c-2.6-5.8-5.2-11.6-7.7-17.4
					l-3.8-8.8C229.3,363.5,228,360.6,226.8,357.6z"/>
			</g>
			<g>
				<path class="st4" d="M176,413.8c7.4,4.1,14.5,8.5,21.6,13.1c7.1,4.6,14,9.3,20.8,14.3c-7.4-4.1-14.5-8.5-21.6-13.1
					C189.7,423.6,182.7,418.9,176,413.8z"/>
			</g>
			<g>
				<path class="st4" d="M169,321.8c0.2,2.3,0.2,4.6,0.2,7c0,2.3-0.1,4.6-0.2,6.9c-0.1,2.3-0.3,4.6-0.5,6.9
					c-0.2,2.3-0.5,4.6-0.9,6.9c-0.2-2.3-0.2-4.6-0.2-7c0-2.3,0.1-4.6,0.2-6.9c0.1-2.3,0.3-4.6,0.5-6.9
					C168.3,326.4,168.6,324.1,169,321.8z"/>
			</g>
			<g>
				<path class="st4" d="M150.3,79.3c0.3,3.4,0.6,6.8,0.9,10.2l0.7,10.2c0.5,6.8,0.9,13.6,1.3,20.3c0.3,6.8,0.7,13.6,0.9,20.3
					l0.3,10.2c0.1,3.4,0.2,6.8,0.2,10.2c-0.4-3.4-0.6-6.8-0.9-10.2l-0.7-10.2c-0.5-6.8-0.9-13.6-1.3-20.3
					c-0.3-6.8-0.7-13.6-0.9-20.3l-0.3-10.2C150.4,86.1,150.3,82.7,150.3,79.3z"/>
			</g>
			<g>
				<path class="st4" d="M141.8,121.8c0,2.1-0.1,4.1-0.2,6.1c-0.1,2-0.4,4.1-0.6,6.1c-0.3,2-0.6,4-1,6c-0.4,2-0.8,4-1.4,6
					c0-2.1,0.1-4.1,0.2-6.1c0.1-2,0.4-4.1,0.6-6.1c0.3-2,0.6-4,1-6C140.8,125.8,141.2,123.8,141.8,121.8z"/>
			</g>
			<g>
				<path class="st4" d="M225.4,119.2c2.9,5.3,5.5,10.7,7.9,16.2c2.4,5.5,4.7,11.1,6.5,16.8c-2.9-5.3-5.5-10.7-7.9-16.2
					C229.6,130.5,227.3,125,225.4,119.2z"/>
			</g>
			<g>
				<path class="st4" d="M402.6,178.1c3.2,6.7,6,13.6,8.8,20.6c2.7,6.9,5.2,13.9,7.4,21.1c-3.2-6.7-6-13.6-8.8-20.6
					C407.3,192.3,404.7,185.3,402.6,178.1z"/>
			</g>
			<g>
				<path class="st4" d="M406.6,268.8c-0.2,3.2-0.5,6.3-0.7,9.5l-0.9,9.4c-0.6,6.3-1.3,12.6-2,18.8c-0.8,6.3-1.5,12.5-2.4,18.8
					l-1.3,9.4c-0.5,3.1-0.9,6.2-1.5,9.4c0.2-3.2,0.5-6.3,0.7-9.5l0.9-9.4c0.6-6.3,1.3-12.6,2-18.8c0.8-6.3,1.5-12.5,2.4-18.8
					l1.3-9.4C405.7,275.1,406.1,271.9,406.6,268.8z"/>
			</g>
			<g>
				<path class="st4" d="M362.5,342.3c0.2,3.1,0.4,6.1,0.5,9.2l0.4,9.2c0.3,6.1,0.4,12.3,0.5,18.4c0.1,6.1,0.2,12.3,0.2,18.4l0,9.2
					c-0.1,3.1-0.1,6.2-0.2,9.2c-0.2-3.1-0.4-6.1-0.5-9.2l-0.4-9.2c-0.3-6.1-0.4-12.3-0.5-18.4c-0.1-6.1-0.2-12.3-0.2-18.4l0-9.2
					C362.3,348.5,362.4,345.4,362.5,342.3z"/>
			</g>
			<g>
				<path class="st4" d="M364,301.1c0.3,2,0.4,3.9,0.4,5.9c0.1,2,0,3.9,0,5.9c-0.1,2-0.2,3.9-0.3,5.9c-0.2,1.9-0.4,3.9-0.8,5.8
					c-0.3-2-0.4-3.9-0.4-5.9c-0.1-2,0-3.9,0-5.9c0.1-2,0.2-3.9,0.3-5.9C363.4,305,363.7,303,364,301.1z"/>
			</g>
			<g>
				<path class="st4" d="M327.3,422.4c2.1,8.6,3.7,17.2,5.2,25.9c1.5,8.7,2.8,17.4,3.8,26.2c-2.1-8.6-3.7-17.2-5.2-25.9
					C329.6,439.9,328.2,431.2,327.3,422.4z"/>
			</g>
			<g>
				<path class="st4" d="M342.9,452.9c0.7,2.2,1.3,4.5,1.8,6.8c0.5,2.3,0.9,4.6,1.4,6.8c0.4,2.3,0.7,4.6,1,6.9
					c0.3,2.3,0.5,4.6,0.6,7c-0.7-2.2-1.3-4.5-1.8-6.8c-0.5-2.3-0.9-4.6-1.4-6.8c-0.4-2.3-0.7-4.6-1-6.9
					C343.2,457.6,343,455.2,342.9,452.9z"/>
			</g>
		</g>
	</g>
	<polygon class="st3" points="115.2,303.6 159.8,320 161,311.3 	"/>
</g>
</svg>
