<?xml version="1.0" encoding="utf-8"?>
<!-- Generator: Adobe Illustrator 25.4.1, SVG Export Plug-In . SVG Version: 6.00 Build 0)  -->
<svg version="1.1" id="Layer_1" xmlns="http://www.w3.org/2000/svg" xmlns:xlink="http://www.w3.org/1999/xlink" x="0px" y="0px"
	 viewBox="0 0 500 500" style="enable-background:new 0 0 500 500;" xml:space="preserve">
<style type="text/css">
	.st0{fill:#D2D1CA;}
	.st1{fill:#FACD63;}
	.st2{fill:#644936;}
	.st3{opacity:0.3;fill:#380606;}
	.st4{opacity:0.3;fill:#FD990D;}
	.st5{opacity:0.3;fill:#A78EB8;}
	.st6{opacity:0.3;fill:#FFFFFF;}
	.st7{fill:#FFFFFF;}
	.st8{fill:#644B77;}
	.st9{fill:#C65D02;}
	.st10{fill:#201B1B;}
</style>
<g id="Cristal_Ball">
	<path class="st0" d="M93.7,59c-67.6,74.6-33.3,221.8,0,262.8c33.3,41,173.1,71.8,269.2,26.9s82-230.7,32-289.7S180.9-37.2,93.7,59z
		"/>
	<path class="st1" d="M117.7,340.6l-9.9,26.7c0,0,53.2,37.8,140.4,32.7c87.2-5.1,118.6-23.7,118.6-23.7l-7-26.2
		C279.4,385.8,170.5,370.4,117.7,340.6z"/>
	<path class="st2" d="M363.4,377.9c-10.1,4.7-44,17.8-115.3,22c-75.5,4.4-125.5-23.3-137.5-30.8l-42.6,56.5c0,0,35.8,50.6,42.6,51.9
		c6.8,1.3,215.1,23.7,220.8,22.4c5.8-1.3,77.6-45.5,77.6-45.5L363.4,377.9z"/>
	<path class="st3" d="M110.6,477.5c6.8,1.3,215.1,23.7,220.8,22.4c-146.8-28.8-220.8-130.8-220.8-130.8l-42.6,56.5
		C68.1,425.6,103.9,476.2,110.6,477.5z"/>
	<path class="st3" d="M183.1,454.8c-64.3-18.4-83.6-70.9-83.6-70.9l0,0l-31.5,41.7c0,0,35.8,50.6,42.6,51.9
		c6.8,1.3,215.1,23.7,220.8,22.4c5.8-1.3,77.6-45.5,77.6-45.5S247.5,473.2,183.1,454.8z"/>
	<path class="st3" d="M362.3,378.4C351,383.5,317,395.9,248.2,400c-75.5,4.4-125.5-23.3-137.5-30.8l-42.6,56.5
		c0,0,20.4,28.8,33.3,43.5c7.1-41.4,73.1-61.1,122.1-57.6c54.8,3.8,143.3-27.6,143.3-27.6L362.3,378.4z"/>
	<path class="st4" d="M248.2,400c87.2-5.1,118.6-23.7,118.6-23.7c-174,27.2-249.1-35.6-249.1-35.6l-9.9,26.7
		C107.8,367.3,161,405.1,248.2,400z"/>
	<path class="st4" d="M364.9,369.5c-13.9,3.2-107.7,24.4-141.5,20.8c-36.5-3.8-109.7-39.1-109.7-39.1l-5.9,16
		c0,0,53.2,37.8,140.4,32.7c87.2-5.1,118.6-23.7,118.6-23.7L364.9,369.5z"/>
	<path class="st5" d="M296.1,367.8C107.7,344.7,64.8,223.5,56.1,152.9c-6.8,68.3,15.6,141.7,37.6,168.8
		C119.8,353.9,211.5,379.8,296.1,367.8z"/>
	<path class="st5" d="M362.9,348.7c21.8-10.2,37.9-27.6,49.2-49.2c-171,108.9-302.8,0.5-347.8-46c7.5,29.9,18.5,54.8,29.4,68.3
		C127,362.8,266.8,393.6,362.9,348.7z"/>
	<path class="st5" d="M207.6,367.8C54.5,274.3,87.8,109,111.4,42.1c-6.2,5.1-12.1,10.7-17.7,16.8c-67.6,74.6-33.3,221.8,0,262.8
		C110.7,342.6,155.2,360.8,207.6,367.8z"/>
	<path class="st6" d="M401.8,316.1c51.5-70.2,34.9-207.8-6.9-257.1c-50-59-214.1-96.1-301.2,0c-4,4.4-7.7,9.1-11,14
		c1.8-1.4,138.7-105.8,258.4-16.6C435.4,126.6,415.1,260.9,401.8,316.1z"/>
	<path class="st6" d="M345.6,42.1c-25.5-18.9-109-17.1-145.8,36.7s36,193.8,124.7,174.7C413.1,234.4,457.1,124.6,345.6,42.1z"/>
	<path class="st7" d="M207.6,52.9c0,0,63,10.6,97.7,51.9s41.3,85.6,41.3,85.6s47.1-57.7-5.8-118.3S207.6,52.9,207.6,52.9z"/>
	<path class="st7" d="M356.2,212.5l-4.8,41C351.4,253.5,393.7,236.5,356.2,212.5z"/>
	<g>
		<g>
			<g>
				<path class="st8" d="M98.5,129.8c-1.7,7.2-3,14.5-4.1,21.8c-1.1,7.3-2,14.7-2.6,22.1c-1.2,14.7-1.4,29.6-0.2,44.3
					c0.6,7.4,1.5,14.7,2.9,22c1.3,7.3,3.2,14.4,5.4,21.5c2.2,7,5.1,13.9,8.3,20.5c3.3,6.6,7.2,12.9,11.5,19
					c-4.6-5.8-8.6-12.1-12.2-18.6c-3.4-6.6-6.4-13.5-8.7-20.5c-2.4-7.1-4.2-14.3-5.6-21.6c-1.4-7.3-2.4-14.7-3-22.1
					c-1.1-14.8-0.9-29.7,0.6-44.5C92.1,158.8,94.6,144.1,98.5,129.8z"/>
			</g>
			<g>
				<path class="st8" d="M127,261.9c1.2,3.5,2.5,6.9,3.9,10.2c1.4,3.4,2.9,6.7,4.6,9.9c3.3,6.5,6.9,12.8,11.1,18.8
					c2.1,3,4.3,5.9,6.6,8.6c2.3,2.8,4.8,5.4,7.5,7.9c5.2,5,11.1,9.4,17.5,13c-1.6-0.8-3.3-1.5-4.9-2.5c-0.8-0.5-1.6-0.9-2.4-1.4
					l-2.3-1.5c-3-2.1-6-4.3-8.7-6.8c-5.5-4.9-10.3-10.5-14.5-16.6c-4.2-6-7.9-12.4-10.9-19.1C131.4,275.9,128.8,269,127,261.9z"/>
			</g>
			<g>
				<path class="st8" d="M114.9,201.3c0.4,3.3,0.7,6.7,1,10l1,10c0.3,3.3,0.7,6.6,1.1,9.9c0.5,3.3,0.9,6.6,1.7,9.9
					c-1.4-3.1-2.2-6.4-2.9-9.7c-0.7-3.3-1.1-6.6-1.4-10c-0.3-3.3-0.5-6.7-0.6-10C114.6,208,114.7,204.6,114.9,201.3z"/>
			</g>
			<g>
				<path class="st8" d="M394.3,278.2c-2.4,7-5.9,13.6-10.1,19.8c-2.1,3.1-4.3,6-6.7,8.9c-2.4,2.8-5,5.5-7.7,8.1
					c-5.4,5.1-11.5,9.5-17.9,13.2c-3.3,1.8-6.6,3.5-10,4.9c-3.4,1.4-6.9,2.7-10.5,3.7l2.6-1c0.9-0.3,1.7-0.6,2.6-1
					c1.7-0.8,3.4-1.5,5-2.3c3.3-1.5,6.5-3.4,9.7-5.2c6.2-3.9,12.1-8.3,17.5-13.3c5.4-5,10.2-10.6,14.5-16.5c2.2-3,4.2-6.1,6-9.3
					C391.2,284.9,392.9,281.6,394.3,278.2z"/>
			</g>
			<g>
				<path class="st8" d="M316.4,340.6c-2.2,0.7-4.4,1.2-6.6,1.7c-2.2,0.5-4.4,0.9-6.6,1.3c-2.2,0.4-4.5,0.7-6.7,0.9
					c-2.2,0.3-4.5,0.5-6.8,0.5c2.2-0.7,4.4-1.2,6.6-1.7c2.2-0.5,4.4-0.9,6.6-1.3c2.2-0.4,4.5-0.7,6.7-0.9
					C311.9,340.9,314.1,340.7,316.4,340.6z"/>
			</g>
		</g>
		<g>
			<path class="st8" d="M104.9,300.9c2.7,3.9,5.7,7.6,8.7,11.3c3,3.6,6.2,7.1,9.5,10.5c3.3,3.4,6.8,6.5,10.4,9.5l2.8,2.2l2.9,2.1
				l1.4,1.1l1.5,1c1,0.6,2,1.3,3,2c-4.2-2.1-8.4-4.5-12.2-7.5c-1-0.7-1.9-1.4-2.8-2.2c-0.9-0.8-1.9-1.5-2.8-2.3
				c-1.8-1.6-3.5-3.2-5.2-4.9c-3.3-3.4-6.5-7-9.4-10.8C109.8,309.1,107.1,305.1,104.9,300.9z"/>
		</g>
	</g>
	<g>
		<g>
			<path class="st9" d="M119.7,362c3.3,1.8,6.7,3.4,10.2,4.8c3.4,1.5,6.9,2.9,10.4,4.3c7,2.7,14.1,5.1,21.3,7.3
				c3.6,1.1,7.2,2.2,10.8,3.1c3.6,1.1,7.3,1.9,10.9,2.9c3.6,1,7.3,1.7,11,2.6c3.7,0.8,7.4,1.6,11,2.4c-3.7-0.5-7.4-1.1-11.2-1.7
				l-5.5-1.1c-1.8-0.4-3.7-0.7-5.5-1.1c-7.4-1.6-14.7-3.5-21.9-5.7c-7.2-2.3-14.3-4.7-21.3-7.7C132.9,369.2,126,366,119.7,362z"/>
		</g>
		<g>
			<path class="st9" d="M186,375.7c4,0.7,7.9,1.3,11.9,1.9c4,0.5,7.9,1,11.9,1.4c4,0.4,8,0.7,12,0.9c4,0.2,8,0.3,12,0.4
				c-4,0.5-8,0.8-12,0.8c-2,0-4-0.1-6-0.1c-2-0.1-4-0.2-6-0.4c-4-0.4-8-1-12-1.7C193.7,378,189.8,377,186,375.7z"/>
		</g>
	</g>
	<g>
		<g>
			<path class="st10" d="M156.8,389.4c-3.5,7.5-7.1,15-10.8,22.4c-3.7,7.4-7.5,14.8-11.3,22.1c-3.9,7.3-7.7,14.7-11.7,21.9
				c-4,7.3-8,14.5-12.2,21.7c3.5-7.5,7.1-15,10.8-22.4c3.7-7.4,7.5-14.8,11.3-22.1c3.9-7.3,7.7-14.7,11.7-21.9
				C148.5,403.8,152.6,396.5,156.8,389.4z"/>
		</g>
		<g>
			<path class="st10" d="M303,394.2c2.4,8.7,4.8,17.5,6.9,26.3c2.2,8.8,4.3,17.6,6.4,26.4c2,8.8,4.1,17.6,6,26.5
				c1.9,8.8,3.7,17.7,5.4,26.6c-2.4-8.7-4.8-17.5-6.9-26.3c-2.2-8.8-4.3-17.6-6.4-26.4c-2-8.8-4.1-17.6-6-26.5
				C306.5,411.9,304.7,403.1,303,394.2z"/>
		</g>
	</g>
	<g>
		<g>
			<path class="st10" d="M152.6,425.9c-2.6,9.2-5.6,18.3-8.8,27.4c-3.2,9-6.5,18.1-10.2,26.9c2.6-9.2,5.6-18.3,8.8-27.4
				C145.6,443.8,148.9,434.8,152.6,425.9z"/>
		</g>
		<g>
			<path class="st10" d="M160,456.2c-0.3,2.3-0.8,4.5-1.3,6.7c-0.5,2.2-1.1,4.4-1.7,6.6c-0.6,2.2-1.3,4.3-2,6.5
				c-0.7,2.1-1.5,4.3-2.4,6.4c0.3-2.3,0.8-4.5,1.3-6.7c0.5-2.2,1.1-4.4,1.7-6.6c0.6-2.2,1.3-4.3,2-6.5
				C158.3,460.4,159.1,458.3,160,456.2z"/>
		</g>
		<g>
			<path class="st10" d="M141.8,384.2c-1,2.5-2,5-3.2,7.4c-1.1,2.4-2.3,4.9-3.6,7.2c-1.2,2.4-2.5,4.8-3.8,7.1
				c-1.3,2.3-2.7,4.7-4.2,6.9c1-2.5,2-5,3.2-7.4c1.1-2.4,2.3-4.9,3.6-7.2c1.2-2.4,2.5-4.8,3.9-7.1
				C139,388.8,140.3,386.5,141.8,384.2z"/>
		</g>
		<g>
			<path class="st10" d="M285.9,396.6c1.9,7.8,3.3,15.8,4.6,23.7c1.3,7.9,2.4,15.9,3.1,23.9c-1.9-7.8-3.3-15.8-4.6-23.7
				C287.8,412.6,286.7,404.6,285.9,396.6z"/>
		</g>
		<g>
			<path class="st10" d="M315.4,392c0.8,1.7,1.5,3.4,2.1,5.1c0.6,1.7,1.2,3.5,1.7,5.2c0.5,1.8,1,3.5,1.4,5.3c0.4,1.8,0.8,3.6,1,5.4
				c-0.8-1.7-1.5-3.4-2.1-5.1c-0.6-1.7-1.2-3.5-1.7-5.2c-0.5-1.8-1-3.5-1.4-5.3C316,395.6,315.6,393.8,315.4,392z"/>
		</g>
		<g>
			<path class="st10" d="M331.5,456.2c2.9,5.8,5.4,11.9,7.8,17.9c2.3,6.1,4.6,12.2,6.4,18.4c-2.9-5.8-5.4-11.8-7.8-17.9
				C335.5,468.6,333.3,462.5,331.5,456.2z"/>
		</g>
	</g>
</g>
</svg>
