<?xml version="1.0" encoding="utf-8"?>
<!-- Generator: Adobe Illustrator 25.4.1, SVG Export Plug-In . SVG Version: 6.00 Build 0)  -->
<svg version="1.1" xmlns="http://www.w3.org/2000/svg" xmlns:xlink="http://www.w3.org/1999/xlink" x="0px" y="0px"
	 viewBox="0 0 500 500" style="enable-background:new 0 0 500 500;" xml:space="preserve">
<style type="text/css">
	.st0{fill:#97C03D;}
	.st1{opacity:0.3;fill:#037144;}
	.st2{opacity:0.3;}
	.st3{fill:#037144;}
	.st4{fill:#D2D1CA;}
	.st5{fill:#FACD63;}
	.st6{opacity:0.3;fill:#FD990D;}
	.st7{opacity:0.2;fill:#604B4C;}
	.st8{opacity:0.2;}
	.st9{fill:#604B4C;}
	.st10{fill:#C65D02;}
</style>
<g id="Layer_1">
	<g id="Zombie_Hand">
		<path class="st0" d="M262.7,273c-6.8-0.6-26.2-43.9-33.8-67.5s5.1-59.1,0-60.8c-5.1-1.7-10.1,0-10.1,0s-13.5-24.5-27-21.1
			c-13.5,3.4-22.8,9.3-22.8,9.3s-17.7-12.7-38.8-13.5s-67.5-5.9-83.6,11s-19.4,22.8-18.6,36.3c0.8,13.5-8.4,11.8-10.1,16
			c-1.7,4.2,0,12.8,0,12.8s32.1,5.7,62.5,30.2s73.4,81,70.9,87.8c-2.5,6.8-34.6,21.1-49.8,25.3s-29.5,7.6-31.2,14.4
			c-1.7,6.8,5.9,59.1-5.9,71.8c-11.8,12.7-31.2,26.2-31.2,29.5c0,3.4,50.7,38,74.3,15.2c23.6-22.8,21.9-45.6,20.3-53.2
			c-1.7-7.6-9.3-22.8-9.3-22.8s54.9-18.6,62.5-16.9s38,28.7,64.2,32.9c26.2,4.2,81.9,7.6,81.9,7.6s16,51.7,37.1,60.1s54,2.7,59.1,0
			c5.1-2.7,10.1-14.5,6.8-19.5c-3.4-5.1-16.9-21.9-22.8-32.9c0,0,23.6,12.7,45.6,11.8c21.9-0.8,35.5-6.8,37.1-10.1s3.4-15.2,0-19.4
			c-3.4-4.2-27-20.3-36.3-30.4c0,0,19.4-0.8,24.5-6.8c5.1-5.9,4.2-12.7,0.8-16c-3.4-3.4-20.3-26.2-27.9-39.7
			c-7.6-13.5-16.9-25.3-24.5-27c-7.6-1.7-21.1-1.7-21.1-1.7s-19.4-34.6-24.5-35.5s-33.8,8.4-50.7,13.5
			C313.4,268.8,272,273.9,262.7,273z"/>
		<path class="st1" d="M373.3,434.3c0,0-7.6,13.5-9.3-12.6c-1.7-26.1-16-40.6-76-38.1s-112.3-61.6-105.5-65s-8.4-19.4-19.5-38.8
			c-11.1-19.4,3.5-71.8-35.4-116.5s-99.4-5-99.4-5l0,0c-0.4,2.6-0.4,5.3-0.2,8.4c0.8,13.5-8.4,11.8-10.1,16c-1.7,4.2,0,12.8,0,12.8
			s32.1,5.7,62.5,30.2s73.4,81,70.9,87.8c-2.5,6.8-34.6,21.1-49.8,25.3s-29.5,7.6-31.2,14.4c-1.7,6.8,5.9,59.1-5.9,71.8
			c-11.8,12.7-31.2,26.2-31.2,29.5c0,3.4,50.7,38,74.3,15.2c23.6-22.8,21.9-45.6,20.3-53.2c-1.7-7.6-9.3-22.8-9.3-22.8
			s54.9-18.6,62.5-16.9s38,28.7,64.2,32.9c26.2,4.2,81.9,7.6,81.9,7.6s16,51.7,37.1,60.1c18.8,7.4,46.9,3.7,56.4,1L373.3,434.3z"/>
		<path class="st1" d="M391.1,473.1c-5.1-10.1-16.9-62.5-61.6-62.5s-132.5-48.1-143.5-55.9c-11-7.8-67.5,39.1-67.5,39.1
			s54.9-18.6,62.5-16.9s38,28.7,64.2,32.9c26.2,4.2,81.9,7.6,81.9,7.6s16,51.7,37.1,60.1c8.3,3.3,18.4,4.4,27.9,4.3
			C392.3,478.3,392.1,475.2,391.1,473.1z"/>
		<g class="st2">
			<path class="st3" d="M80.4,225.8c28.3,22.8,67.7,73.5,70.8,85.7c-0.8-14.1-7.2-98.7-41.3-120.4c-37.1-23.6-56.6,2.5-69.2-11
				c-12.7-13.5,19.6-60,50.3-62.1c0,0,0,0,0,0c-17.8,0.4-35.7,3-44.4,12.3c-16,16.9-19.4,22.8-18.6,36.3c0.8,13.5-8.4,11.8-10.1,16
				c-1.7,4.2,0,12.8,0,12.8S50,201.3,80.4,225.8z"/>
			<path class="st3" d="M98.4,475.4L98.4,475.4c0,0-12.4-16.6,0-38.5c12.4-22-10.9-67.6-16.1-76c-5.2-8.4,36.7-28.2,37.1-28.4
				c-6.7,2.8-13.1,5.1-17.8,6.4c-15.2,4.2-29.5,7.6-31.2,14.4c-1.7,6.8,5.9,59.1-5.9,71.8c-11.8,12.7-31.2,26.2-31.2,29.5
				C33.1,457.5,72.9,485,98.4,475.4z"/>
		</g>
		<path class="st1" d="M452.4,343.4c-7.3-6.8-40.7-28.1-45.7-28.7c-5-0.6-44.9,18-70.2,21.9c0,0,31-0.5,49-4.2
			c18-3.7,29.5-3.9,35,2.1c5.5,6,26.6,38.6,33.1,42.3c0,0,19.4-0.8,24.5-6.8c2.4-2.8,3.4-5.7,3.5-8.5
			C468.9,354.4,455.9,346.6,452.4,343.4z"/>
		<path class="st1" d="M399.1,351.1c-8.9-8.9-101.7,5.5-101.7,5.5c12.2,4.6,54.4,3,70.9,3.4s20.7,8,26.2,30.4
			c5.5,22.4,12.7,34.6,12.7,34.6s23.6,12.7,45.6,11.8c21.9-0.8,35.5-6.8,37.1-10.1c1.1-2.2,2.1-7.7,1.9-12.6
			c-16.6-2.1-38.4-5.4-48.3-10.6C426.5,394.6,407.9,360,399.1,351.1z"/>
		<path class="st4" d="M72,92.4c0,0,11.6,13.4,19.1,25.7c14.8-0.3,29.6,0.9,39.1,1.3c4.1,0.2,8,0.8,11.7,1.6l-4.7-49.5
			c0,0,29.8-12.4,25.3-29.3C158.1,25.4,126,5.7,111.3,9.7c-14.6,3.9-21.4,45-21.4,45S45.5,22.6,22.4,33.3C-0.6,44-4,92.4,8.9,96.9
			C21.9,101.4,72,92.4,72,92.4z"/>
		<path class="st5" d="M66.6,421.7c0,0,24.8,10.9,24.8,14.7S74.9,483.7,72,486.2c-3,2.5-36.7-9.3-36.7-9.3l3-5.9l-9.7,1.3l-5.9-18.1
			C22.6,454.1,59.6,431,66.6,421.7z"/>
		<path class="st5" d="M409.8,429.7c0,0-34.8,2.9-36.5,4.6c-1.7,1.7,12.7,49,22.4,54.4c9.7,5.5,43.1-8.4,44.3-11s-3.8-7.2-3.8-7.2
			l3.8-5.9C440,464.7,414.3,436.4,409.8,429.7z"/>
		<path class="st5" d="M462.6,332.5l-10.2,10.9c0,0,26.5,35.5,29.3,33.5s6.2-14.9,6.2-14.9l-9-14.6l1.1-5.6L462.6,332.5z"/>
		<path class="st1" d="M397,399.9c4.9,16.3,10.1,25.1,10.1,25.1s23.6,12.7,45.6,11.8c15.4-0.6,26.6-3.7,32.5-6.6
			C454.5,428.3,414.8,410.5,397,399.9z"/>
		<path class="st5" d="M453.5,376.9c0,0-18.6,9.9-20.8,16c-2.2,6.2,42.8,43.3,50.1,44.5s9-5.6,9-5.6s10.2-24.8,7.9-27
			C497.4,402.5,453.5,376.9,453.5,376.9z"/>
		<path class="st6" d="M71.7,486.3c-16.1-25.7,4.5-60.1,4.5-60.1l0,0c-5.2-2.6-9.6-4.5-9.6-4.5c-7,9.3-44,32.4-44,32.4l5.9,18.1
			l9.7-1.3l-3,5.9C35.2,476.9,67.7,488.3,71.7,486.3z"/>
		<path class="st6" d="M376.3,433.4c-1.6,0.3-2.7,0.6-2.9,0.9c-1.7,1.7,12.7,49,22.4,54.4c9.7,5.5,43.1-8.4,44.3-11
			s-3.8-7.2-3.8-7.2l0.6-0.9C404.6,462.8,383.7,442,376.3,433.4z"/>
		<path class="st6" d="M435.2,389.4c-1.2,1.2-2.1,2.5-2.5,3.5c-2.2,6.2,42.8,43.3,50.1,44.5s9-5.6,9-5.6s4.9-11.9,7.1-20
			C480.2,405.4,451.2,395.3,435.2,389.4z"/>
		<path class="st6" d="M481.7,376.9c0.8-0.6,1.7-2,2.5-3.9L457,338.4l-4.6,5C452.4,343.4,478.9,378.8,481.7,376.9z"/>
		<path class="st6" d="M89.8,434.2c-5.4-4.7-23.2-12.5-23.2-12.5c-7,9.3-44,32.4-44,32.4l5.9,18.1l9.7-1.3l53.2-34.6L89.8,434.2z"/>
		<path class="st6" d="M399.6,430.6c-10.4,1-25.2,2.6-26.3,3.7c-1.7,1.7,12.7,49,22.4,54.4c2.9,1.6,7.9,1.5,13.5,0.5
			C399,471.1,398.5,446.8,399.6,430.6z"/>
		<path class="st6" d="M432.7,392.9c-2.2,6.2,42.8,43.3,50.1,44.5c4,0.6,6.3-1.1,7.5-2.8c-28.3-28.4-36.8-57.7-36.8-57.7
			S434.9,386.7,432.7,392.9z"/>
		<path class="st7" d="M49.4,65.1c-37.2,5.3-16.3-34-16.3-34l0,0c-3.9,0-7.5,0.7-10.7,2.2C-0.6,44-4,92.4,8.9,96.9
			c12.9,4.5,63-4.5,63-4.5s11.6,13.4,19.1,25.7c14.8-0.3,29.6,0.9,39.1,1.3c0.6,0,1.1,0.1,1.6,0.2C109.8,95.6,73.7,61.6,49.4,65.1z"
			/>
		<path class="st7" d="M90,54.7l23.6,10.4c-4.5-5.9-7.5-52.2-7.5-52.2C95.1,23.6,90,54.7,90,54.7z"/>
		<g class="st8">
			<path class="st9" d="M52.1,34.7L52.1,34.7c-10.6-3.6-21.5-5.2-29.6-1.4C-0.6,44-4,92.4,8.9,96.9c12.9,4.5,63-4.5,63-4.5
				C8.6,82.3,52.1,34.7,52.1,34.7z"/>
			<path class="st9" d="M72,92.4c0,0,11.6,13.4,19.1,25.7c14.8-0.3,29.6,0.9,39.1,1.3c4.1,0.2,8,0.8,11.7,1.6l-1.1-11.8
				C111.8,112,72,92.4,72,92.4z"/>
		</g>
		<g>
			<g>
				<path class="st3" d="M169,132.9c0.9,4.7,2,9.4,3,14c1.1,4.6,2.3,9.2,3.7,13.8l1,3.4l1.1,3.4c0.7,2.3,1.5,4.5,2.3,6.7
					c0.8,2.2,1.7,4.5,2.6,6.6c0.8,2.2,1.9,4.4,2.9,6.6c-2.5-4.1-4.7-8.4-6.6-12.8c-1.8-4.4-3.5-9-4.8-13.6c-1.3-4.6-2.5-9.3-3.4-14
					C170,142.4,169.4,137.7,169,132.9z"/>
			</g>
			<g>
				<path class="st3" d="M204.2,167.2l3,13.3c1,4.4,2.1,8.8,3.2,13.2c0.6,2.2,1.1,4.4,1.8,6.6l0.9,3.3l1,3.2
					c1.4,4.3,2.8,8.6,4.6,12.8c-2.3-3.9-4.2-8.1-5.8-12.4c-1.6-4.3-2.9-8.7-4-13.1c-1.1-4.4-2.1-8.9-2.9-13.3
					C205.3,176.3,204.6,171.8,204.2,167.2z"/>
			</g>
			<g>
				<path class="st3" d="M96.2,211.7c4.1,2.4,8.1,5.1,12,7.9c3.9,2.8,7.7,5.7,11.4,8.8c7.4,6.1,14.3,12.7,20.9,19.7
					c6.4,7.1,12.3,14.7,17.3,22.9c2.5,4.1,4.7,8.4,6.7,12.7c1.9,4.4,3.5,8.9,4.7,13.5c-1.5-4.5-3.3-9-5.4-13.2
					c-2.1-4.3-4.4-8.4-7-12.4c-2.6-4-5.3-7.9-8.2-11.6c-2.9-3.7-6-7.4-9.2-10.9c-6.4-7.1-13.3-13.6-20.5-19.9
					c-3.6-3.1-7.3-6.1-11.1-9.1C103.9,217.2,100.1,214.4,96.2,211.7z"/>
			</g>
			<g>
				<path class="st3" d="M169,264c2,3.4,3.8,6.9,5.5,10.4c1.7,3.5,3.3,7.1,4.7,10.8c1.4,3.7,2.8,7.4,3.9,11.1
					c1.1,3.8,2,7.6,2.5,11.5c-1.1-3.8-2.3-7.5-3.6-11.2c-1.3-3.7-2.7-7.3-4.2-11c-1.4-3.6-2.9-7.3-4.4-10.9L169,264z"/>
			</g>
			<g>
				<path class="st3" d="M101.8,132.9c-3.1,0.1-6.1,0.4-9.1,0.9c-3,0.4-6,1-9,1.8c-5.9,1.5-11.6,3.7-16.8,6.7
					c-2.6,1.5-5.1,3.2-7.4,5.2c-1.2,0.9-2.2,2-3.3,3.1c-1,1.1-2.1,2.2-3,3.4c-1,1.1-1.8,2.4-2.6,3.7c-0.7,1.3-1.6,2.6-2.2,4
					c-1.5,2.7-2.4,5.6-3.4,8.5c1.2-6,3.6-11.9,7.3-16.9c1.8-2.5,4-4.8,6.3-6.9c2.3-2,4.9-3.9,7.6-5.4c5.4-3.1,11.3-5.2,17.3-6.5
					C89.5,133.2,95.7,132.5,101.8,132.9z"/>
			</g>
			<g>
				<path class="st3" d="M76.2,160.2c-2.3,1.8-4.4,3.6-6.4,5.6c-2,2-3.9,4.1-5.5,6.4c-1.7,2.2-3.1,4.7-4.3,7.2l-0.8,1.9
					c-0.2,0.7-0.4,1.3-0.7,2l-0.4,1l-0.2,1c-0.2,0.7-0.3,1.4-0.5,2.1c0-0.7,0.1-1.4,0.1-2.2l0.1-1.1l0.2-1.1
					c0.2-0.7,0.3-1.4,0.5-2.1l0.7-2.1c1-2.7,2.4-5.3,4.2-7.7c1.7-2.3,3.7-4.5,6-6.3C71.2,163.1,73.6,161.4,76.2,160.2z"/>
			</g>
			<g>
				<path class="st3" d="M101.8,164.4c-3.5,1.3-7,2.4-10.3,3.8c-1.7,0.7-3.3,1.4-4.9,2.4c-1.6,0.9-3,1.9-4.3,3.3
					c0.8-1.7,2.2-3.1,3.7-4.3c1.5-1.2,3.2-2,4.9-2.8c1.7-0.7,3.5-1.3,5.4-1.7C98.1,164.7,99.9,164.4,101.8,164.4z"/>
			</g>
			<g>
				<path class="st3" d="M110.2,345.8l-8.4,4.5c-2.8,1.5-5.5,3-8.2,4.6c-2.7,1.6-5.3,3.3-7.8,5.2c-1.2,1-2.4,2-3.5,3.1
					c-1.1,1.1-2,2.4-2.5,3.9c0.1-1.6,1-3.1,1.9-4.4c1-1.3,2.1-2.5,3.3-3.5c2.4-2.1,5.1-3.9,7.8-5.6c2.8-1.6,5.6-3.1,8.5-4.4
					C104.2,347.9,107.2,346.7,110.2,345.8z"/>
			</g>
			<g>
				<path class="st3" d="M114.7,417.8c0.2,3.2,0.1,6.4-0.2,9.6c-0.3,3.2-0.9,6.3-1.7,9.4c-0.8,3.1-1.9,6.1-3.2,9.1
					c-1.3,2.9-3,5.7-4.9,8.2c1.4-2.9,2.7-5.7,3.9-8.7c1.1-3,2.1-5.9,2.9-9c0.8-3,1.5-6.1,2-9.2C113.9,424.1,114.4,421,114.7,417.8z"
					/>
			</g>
			<g>
				<path class="st3" d="M96.2,364.8c-1.3,1.3-2.6,2.6-3.8,3.9c-1.2,1.3-2.4,2.6-3.5,4.1c-0.6,0.7-1.1,1.4-1.6,2.1l-0.7,1.1
					c-0.2,0.4-0.4,0.8-0.6,1.2c-0.8,1.6-1.4,3.2-1.7,5c-0.3-1.8,0-3.8,0.7-5.5c0.6-1.8,1.7-3.4,2.8-4.9c1.2-1.5,2.5-2.8,3.9-4
					C93,366.7,94.5,365.6,96.2,364.8z"/>
			</g>
			<g>
				<path class="st3" d="M209.3,373.5c3.8,3.2,8.1,5.7,12.5,8c4.4,2.2,8.9,4.1,13.6,5.7c1.2,0.4,2.4,0.7,3.5,1.1l1.8,0.5l1.8,0.4
					l3.6,0.9l3.6,0.7l1.8,0.3l1.8,0.2l3.7,0.5c2.5,0.3,4.9,0.4,7.4,0.7c-1.2,0-2.5,0-3.7,0c-1.2,0-2.5,0.1-3.7,0l-3.7-0.3
					c-0.6,0-1.2-0.1-1.9-0.2l-1.9-0.3l-3.7-0.5l-3.7-0.8l-1.8-0.4l-1.8-0.5c-1.2-0.4-2.4-0.7-3.6-1.1c-4.7-1.6-9.4-3.6-13.7-6.1
					C216.9,380,212.7,377.1,209.3,373.5z"/>
			</g>
			<g>
				<path class="st3" d="M279.1,395.2c1.3-0.3,2.5-0.5,3.8-0.6c1.3-0.1,2.5-0.2,3.8-0.2c1.3,0,2.5,0,3.8,0.2
					c1.3,0.1,2.5,0.3,3.8,0.6c-1.3,0.3-2.5,0.5-3.8,0.6c-1.3,0.1-2.5,0.2-3.8,0.2c-1.3,0-2.5,0-3.8-0.2
					C281.6,395.6,280.3,395.5,279.1,395.2z"/>
			</g>
			<g>
				<path class="st3" d="M341.5,407.2c0.8,4.9,1.9,9.7,3.1,14.5c1.2,4.8,2.6,9.5,4.4,14.1c0.8,2.3,1.8,4.6,2.9,6.8
					c1,2.2,2.2,4.4,3.5,6.4c2.6,4.1,5.8,7.9,9.8,10.9c-4.3-2.4-8-6.1-10.8-10.2c-2.9-4.1-5-8.7-6.8-13.3c-1.8-4.7-3.1-9.5-4.1-14.3
					C342.4,417.1,341.8,412.1,341.5,407.2z"/>
			</g>
			<g>
				<path class="st3" d="M407.1,425c-2.8-5.7-5.2-11.6-7.5-17.5c-2.2-5.9-4.3-12-6.1-18.1l-1.3-4.6c-0.4-1.5-0.8-3-1.4-4.5
					c-0.9-3-2.2-5.9-3.7-8.5c-1.5-2.7-3.5-5-6-6.8c-2.4-1.8-5.3-3-8.3-3.7c-6-1.3-12.4-1.2-18.6-0.6c-6.3,0.6-12.7,0.8-19.1,0.5
					c-6.4-0.2-12.7-0.8-19-1.5c-3.1-0.4-6.3-0.9-9.4-1.4c-3.1-0.5-6.2-1.1-9.3-1.8c6.3,0.9,12.6,1.7,18.9,2.2
					c6.3,0.6,12.6,0.9,18.9,1c3.2,0,6.3,0,9.5-0.1c1.6-0.1,3.1-0.1,4.7-0.3l4.7-0.4c6.3-0.6,12.8-0.8,19.2,0.5
					c3.2,0.8,6.3,2.1,8.9,4.1c2.7,2,4.8,4.6,6.4,7.4c3.3,5.7,4.8,12,6.3,18.1c1.6,6.1,3.5,12.1,5.5,18.1
					C402.5,413.2,404.7,419.1,407.1,425z"/>
			</g>
			<g>
				<path class="st3" d="M385.5,367c-3.1,1.1-6,2.4-9,3.6c-2.9,1.3-5.9,2.7-8.6,4.3c-0.7,0.4-1.4,0.8-2.1,1.2
					c-0.7,0.4-1.4,0.8-2,1.3l-2,1.3c-0.6,0.5-1.3,1-1.9,1.5c-2.4,2-4.7,4.3-6.5,7c1.3-3,3.4-5.7,5.8-7.9c2.4-2.3,5.2-4.1,8-5.7
					c2.9-1.6,5.9-2.9,8.9-4C379.1,368.5,382.3,367.6,385.5,367z"/>
			</g>
			<g>
				<path class="st3" d="M348.3,373.5c-2.2,2.2-4.5,4.3-6.5,6.4c-1.1,1.1-2,2.2-3,3.4c-0.9,1.2-1.7,2.4-2.1,4
					c-0.2-1.6,0.3-3.2,1.1-4.6c0.8-1.4,1.8-2.7,2.9-3.8c1.1-1.1,2.3-2.2,3.6-3.1C345.5,374.9,346.8,374.1,348.3,373.5z"/>
			</g>
			<g>
				<path class="st3" d="M453.5,376.9c-7.8-8.5-15.5-17.2-22.3-26.6c-1.7-2.3-3.3-4.7-5.1-7c-1.7-2.3-3.6-4.4-5.7-6.3
					c-2.1-1.8-4.4-3.4-7-4.4c-0.6-0.3-1.3-0.5-2-0.7c-0.7-0.2-1.3-0.4-2-0.5l-2.1-0.4l-2.1-0.1c-0.3,0-0.7-0.1-1-0.1l-1.1,0
					l-2.1,0.1c-1.4,0.1-2.8,0.3-4.2,0.5c-2.9,0.5-5.7,0.9-8.6,1.2c-5.7,0.7-11.5,1.3-17.3,1.8c-11.5,1-23.1,1.7-34.6,2.1
					c11.5-1.2,23-2.4,34.4-3.7c5.7-0.7,11.5-1.3,17.2-2.1c2.9-0.4,5.7-0.8,8.5-1.3c1.4-0.2,2.9-0.4,4.4-0.5l2.2-0.1l1.1,0
					c0.4,0,0.7,0,1.1,0.1l2.2,0.2l2.2,0.4c0.7,0.1,1.5,0.3,2.2,0.6c0.7,0.2,1.5,0.4,2.1,0.7c2.8,1.1,5.3,2.8,7.5,4.8
					c4.4,4,7.5,9.1,10.8,13.8c3.3,4.7,6.8,9.3,10.3,13.9C446.3,367.9,449.9,372.4,453.5,376.9z"/>
			</g>
			<g>
				<path class="st3" d="M418.5,334.3c-4.8,2.8-9.4,5.9-13.6,9.4c-2.1,1.8-4,3.7-5.8,5.8c-1.8,2.1-3.2,4.4-4.6,6.8
					c0.8-2.7,2.1-5.2,3.7-7.6c1.7-2.3,3.6-4.4,5.7-6.2c2.2-1.8,4.5-3.5,6.9-4.9C413.3,336.4,415.9,335.1,418.5,334.3z"/>
			</g>
			<g>
				<path class="st3" d="M425.4,340.9c-0.6,0.7-1.3,1.2-2,1.7c-0.7,0.5-1.4,1-2.2,1.4c-0.8,0.4-1.5,0.8-2.3,1.1
					c-0.8,0.3-1.6,0.6-2.5,0.7c0.6-0.7,1.3-1.2,2-1.7c0.7-0.5,1.4-1,2.2-1.4c0.8-0.4,1.5-0.8,2.3-1.1
					C423.7,341.3,424.5,341.1,425.4,340.9z"/>
			</g>
			<g>
				<path class="st3" d="M405.4,285.7c-2.9,0.9-5.9,1.7-8.8,2.5l-8.9,2.3c-5.9,1.5-11.9,2.8-17.8,4.1c-6,1.3-12,2.4-18,3.4l-4.5,0.7
					l-4.5,0.6l-4.6,0.4c-1.5,0.1-3.1,0.2-4.6,0.2l4.5-0.6l4.5-0.8l4.5-0.8l4.5-0.9c6-1.2,11.9-2.4,17.9-3.7l17.9-3.8l9-1.9
					L405.4,285.7z"/>
			</g>
			<g>
				<path class="st3" d="M426.5,287.4c-3.8,2.7-7.3,5.6-10.3,9c-1.6,1.7-2.9,3.5-4.1,5.4c-1.2,1.9-2.2,4-3.1,6.1
					c0.3-2.3,1-4.6,2.1-6.7c1.1-2.1,2.4-4.1,4-5.8c1.6-1.7,3.4-3.3,5.3-4.7C422.3,289.4,424.3,288.2,426.5,287.4z"/>
			</g>
			<g>
				<path class="st3" d="M325.8,321.4c0.9-0.3,1.8-0.5,2.7-0.6c0.9-0.1,1.8-0.2,2.7-0.2c0.9,0,1.8,0,2.7,0.2
					c0.9,0.1,1.8,0.3,2.7,0.6c-0.9,0.3-1.8,0.5-2.7,0.6c-0.9,0.1-1.8,0.2-2.7,0.2c-0.9,0-1.8,0-2.7-0.2
					C327.6,321.9,326.7,321.8,325.8,321.4z"/>
			</g>
			<g>
				<path class="st3" d="M380.9,250.3c-2.2,2-4.3,4.1-6.3,6.3c-2,2.2-3.9,4.4-5.6,6.8c-1.7,2.4-3.2,4.9-4.5,7.5
					c-1.2,2.7-2.1,5.4-2.8,8.4c0.1-3,0.6-6,1.7-8.8c1.1-2.8,2.6-5.5,4.3-7.9c1.8-2.4,3.8-4.7,6-6.8
					C376,253.6,378.4,251.8,380.9,250.3z"/>
			</g>
			<g>
				<path class="st3" d="M353.3,268.5c-1,3-2.2,5.8-3.2,8.6c-0.5,1.4-1,2.9-1.3,4.3c-0.3,1.5-0.6,2.9-0.5,4.5
					c-0.7-1.4-0.8-3.1-0.6-4.7c0-0.8,0.2-1.6,0.4-2.4c0.2-0.8,0.4-1.5,0.7-2.3c0.5-1.5,1.2-2.9,1.9-4.3
					C351.4,271,352.3,269.7,353.3,268.5z"/>
			</g>
		</g>
		<g>
			<g>
				<path class="st10" d="M71.2,436.9c-5.1,6.1-10.5,11.9-16,17.6c-5.5,5.7-11.1,11.3-17,16.6c5.1-6.1,10.5-11.9,16-17.6
					C59.7,447.7,65.3,442.1,71.2,436.9z"/>
			</g>
			<g>
				<path class="st10" d="M44.4,447c-1.4,1.5-2.9,2.8-4.5,4.1c-1.5,1.3-3.1,2.6-4.7,3.8c-1.6,1.2-3.3,2.4-4.9,3.6
					c-1.7,1.1-3.4,2.2-5.2,3.2c1.4-1.5,2.9-2.8,4.5-4.1c1.5-1.3,3.1-2.6,4.7-3.8c1.6-1.2,3.3-2.4,4.9-3.6
					C40.9,449.1,42.6,448,44.4,447z"/>
			</g>
			<g>
				<path class="st10" d="M379.1,432.9c3.9,7.2,7.4,14.5,10.9,21.9c3.4,7.4,6.6,14.9,9.5,22.6c-3.9-7.2-7.5-14.5-10.9-21.9
					C385.3,448.1,382,440.6,379.1,432.9z"/>
			</g>
			<g>
				<path class="st10" d="M391.2,431.5c0.8,1.6,1.4,3.3,2,5c0.6,1.7,1.1,3.4,1.6,5.1c0.5,1.7,0.9,3.4,1.3,5.2
					c0.4,1.7,0.7,3.5,0.9,5.3c-0.8-1.6-1.4-3.3-2-5c-0.6-1.7-1.1-3.4-1.6-5.1c-0.5-1.7-0.9-3.4-1.3-5.2
					C391.7,435,391.4,433.3,391.2,431.5z"/>
			</g>
			<g>
				<path class="st10" d="M418.5,452c1.7,1.3,3.4,2.6,5,4c1.6,1.4,3.1,2.8,4.7,4.3c1.5,1.5,3,3,4.4,4.5c1.4,1.6,2.9,3.1,4.2,4.8
					c-1.7-1.3-3.4-2.6-5-4c-1.6-1.4-3.1-2.8-4.7-4.3c-1.5-1.5-3-3-4.4-4.5C421.2,455.3,419.8,453.7,418.5,452z"/>
			</g>
			<g>
				<path class="st10" d="M448.5,395.2c7.6,5.6,14.9,11.6,22.1,17.7c7.2,6.1,14.3,12.3,21.2,18.9c-7.6-5.6-14.9-11.6-22.1-17.7
					C462.4,407.9,455.3,401.7,448.5,395.2z"/>
			</g>
			<g>
				<path class="st10" d="M481.5,412.7c1.4,0.3,2.7,0.8,3.9,1.3c1.3,0.5,2.5,1.1,3.7,1.7c1.2,0.6,2.4,1.3,3.6,2
					c1.2,0.7,2.3,1.5,3.4,2.4c-1.4-0.3-2.7-0.8-3.9-1.3c-1.3-0.5-2.5-1.1-3.7-1.7c-1.2-0.6-2.4-1.3-3.6-2
					C483.8,414.4,482.6,413.6,481.5,412.7z"/>
			</g>
			<g>
				<path class="st10" d="M467.4,353.4c1.6,1.4,3.1,3,4.6,4.5c1.5,1.6,2.9,3.2,4.3,4.8c1.4,1.6,2.8,3.3,4.1,5
					c1.3,1.7,2.6,3.5,3.7,5.3c-1.6-1.4-3.1-3-4.6-4.5c-1.5-1.6-2.9-3.2-4.3-4.8c-1.4-1.6-2.8-3.3-4.1-5
					C469.8,357,468.6,355.2,467.4,353.4z"/>
			</g>
		</g>
		<g>
			<g>
				<path class="st9" d="M23.6,50.7c-1.5,2.9-2.8,5.8-3.9,8.8c-1.1,3-2,6.1-2.3,9.2c-0.4,3.1-0.2,6.3,0.8,9.2
					c0.5,1.5,1.3,2.9,2.2,4.1c0.9,1.3,2.1,2.4,3.3,3.5c-1.4-0.8-2.7-1.8-3.8-3c-1.1-1.2-2-2.6-2.7-4.2c-1.3-3.1-1.6-6.6-1.2-9.9
					c0.4-3.3,1.4-6.5,2.7-9.5C19.9,56.1,21.5,53.3,23.6,50.7z"/>
			</g>
			<g>
				<path class="st9" d="M32.6,68.2c0.8,3.2,1.3,6.4,2.2,9.5c0.4,1.5,0.9,3.1,1.6,4.5c0.7,1.4,1.5,2.7,3,3.5c-0.8-0.1-1.7-0.5-2.3-1
					c-0.7-0.5-1.2-1.2-1.7-1.9c-0.9-1.4-1.5-3-2-4.6c-0.4-1.6-0.7-3.3-0.8-4.9C32.3,71.5,32.3,69.8,32.6,68.2z"/>
			</g>
			<g>
				<path class="st9" d="M87.7,98.2c1.5,1.4,2.7,3,3.9,4.6c1.2,1.6,2.4,3.2,3.5,4.9c1.1,1.7,2.2,3.4,3.2,5.1c1,1.7,2,3.5,2.8,5.3
					c-1.4-1.5-2.6-3.1-3.8-4.7c-1.2-1.6-2.3-3.3-3.5-4.9c-1.1-1.7-2.2-3.4-3.2-5.1C89.6,101.7,88.7,99.9,87.7,98.2z"/>
			</g>
			<g>
				<path class="st9" d="M90,76.9c1.3,2,2.4,4,3.5,6c1.1,2,2.1,4.1,3.1,6.2c1,2.1,1.9,4.2,2.8,6.3c0.9,2.1,1.7,4.3,2.4,6.5
					c-1.3-1.9-2.4-4-3.5-6c-1.1-2-2.1-4.1-3.1-6.2c-1-2.1-1.9-4.2-2.8-6.3C91.5,81.3,90.7,79.1,90,76.9z"/>
			</g>
			<g>
				<path class="st9" d="M112.7,106.7c0.7,0.9,1.3,1.8,1.9,2.8c0.6,1,1,1.9,1.5,2.9c0.4,1,0.9,2,1.2,3.1c0.3,1,0.6,2.1,0.8,3.3
					c-0.7-0.9-1.3-1.8-1.9-2.8c-0.6-1-1-1.9-1.5-2.9c-0.4-1-0.9-2-1.2-3.1C113.2,108.9,112.9,107.9,112.7,106.7z"/>
			</g>
			<g>
				<path class="st9" d="M122.6,23.2c-2.1,0.6-4.1,1.4-6,2.3c-1.9,0.9-3.7,2-5.4,3.3c-1.7,1.3-3.1,2.8-4.3,4.5
					c-1.3,1.7-2,3.7-2.9,5.7c0.2-2.2,0.7-4.4,1.9-6.3c1.1-2,2.6-3.7,4.4-5.1c1.8-1.4,3.8-2.5,5.9-3.2
					C118.2,23.7,120.4,23.2,122.6,23.2z"/>
			</g>
		</g>
	</g>
</g>
<g id="obj">
</g>
</svg>
