<?xml version="1.0" encoding="utf-8"?>
<!-- Generator: Adobe Illustrator 25.4.1, SVG Export Plug-In . SVG Version: 6.00 Build 0)  -->
<svg version="1.1" id="Layer_1" xmlns="http://www.w3.org/2000/svg" xmlns:xlink="http://www.w3.org/1999/xlink" x="0px" y="0px"
	 viewBox="0 0 500 500" style="enable-background:new 0 0 500 500;" xml:space="preserve">
<style type="text/css">
	.st0{fill:#604B4C;}
	.st1{fill:#D2D1CA;}
	.st2{opacity:0.3;fill:#380606;}
	.st3{opacity:0.2;}
	.st4{opacity:0.3;fill:#FFFFFF;}
	.st5{opacity:0.6;fill:#FFFFFF;}
	.st6{fill:#201B1B;}
</style>
<g id="Knife">
	<path class="st0" d="M111.9,11.3c-10.3,9.4-2.7,40.8,0,44c2.7,3.2,21.5-4.1,27,5.5c5.5,9.6,17.4,49.5,23.8,58.2
		s27.5,28.4,31.1,36.2c3.7,7.8,3.7,15.6,5.5,17.4c1.8,1.8,49.5-17.4,50.4-20.6c0.9-3.2-68.7-145.6-74.7-150.2
		C169.1-2.9,122,2.2,111.9,11.3z"/>
	<path class="st1" d="M249.8,151.9c-0.8,2.6-33,16.1-45.5,19.8c2.3,5.7,4.8,13.8,3.2,19.6c-2.7,9.6-47.4,39.2-47.4,41.9
		c0,2.7,9.6,30.2,28.9,65.3S253.4,385,296,426.9s114.7,76.3,115.4,72.8C412.1,496.3,249.8,151.9,249.8,151.9z"/>
	<path class="st2" d="M185.4,91.7c-2.1-19.2-27.5-49.5-52.9-51.5S115.8,8.8,115.8,8.8l0,0c-1.6,0.8-2.9,1.6-3.9,2.5
		c-10.3,9.4-2.7,40.8,0,44c2.7,3.2,21.5-4.1,27,5.5c5.5,9.6,17.4,49.5,23.8,58.2s27.5,28.4,31.1,36.2c3.7,7.8,3.7,15.6,5.5,17.4
		c1.8,1.8,49.5-17.4,50.4-20.6c0.1-0.4-0.8-2.8-2.5-6.7l0,0C217.1,162.4,187.5,110.9,185.4,91.7z"/>
	<path class="st1" d="M186.1,70.5c0,4.3-3.4,7.7-7.7,7.7c-4.3,0-7.7-3.4-7.7-7.7c0-4.3,3.4-7.7,7.7-7.7
		C182.6,62.8,186.1,66.3,186.1,70.5z"/>
	<path class="st1" d="M212.2,120.9c0,4.3-3.4,7.7-7.7,7.7c-4.3,0-7.7-3.4-7.7-7.7c0-4.3,3.4-7.7,7.7-7.7
		C208.8,113.2,212.2,116.6,212.2,120.9z"/>
	<g class="st3">
		<path class="st0" d="M398.7,495.6c7.7,3.5,12.5,5.1,12.7,4.2c0.2-1.1-17.1-39-40.5-89.4C370.9,410.4,392.5,466.9,398.7,495.6z"/>
		<path class="st0" d="M370.9,410.4C323,307.3,249.8,151.9,249.8,151.9c-0.8,2.6-33,16.1-45.5,19.8c2.3,5.7,4.8,13.8,3.2,19.6
			c0,0,30-21.1,42.4-8.2c12.4,12.8,29.8,94.3,46.2,124.6S370.9,410.4,370.9,410.4z"/>
	</g>
	<path class="st4" d="M411.4,499.8c0,0-83.1-60.5-96.2-77.6c-13.1-17.2-32.3-52.9-44.7-72.8s-43.3-82.4-43.3-88.6
		c0-6.2-6.2-23.4-15.1-33c-8.9-9.6-15.4-24.4-15.4-24.4h0c-14,12.3-36.8,27.9-36.8,29.9c0,2.7,9.6,30.2,28.9,65.3
		S253.4,385,296,426.9c39.2,38.5,103.2,70.6,113.9,72.9L411.4,499.8z"/>
	<path class="st5" d="M261.2,381.8c-38.5-37.6-90.5-142-90.5-142l7.7-21.7h0c-9.9,7.5-18.4,13.9-18.4,15.1c0,2.7,9.6,30.2,28.9,65.3
		S253.4,385,296,426.9c27.3,26.8,66.6,50.5,91.6,63.2C334.5,458.4,299.7,419.4,261.2,381.8z"/>
	<g>
		<g>
			<path class="st6" d="M119.2,22.3c3.5-2.3,7.4-4,11.4-5.2c4-1.3,8.1-2.1,12.3-2.6c4.2-0.4,8.4-0.7,12.5-0.5c2.1,0,4.2,0.3,6.2,0.5
				c2.1,0.3,4.1,0.6,6.2,1c-2.1,0-4.2-0.2-6.2-0.3l-3.1,0c-1,0-2.1-0.1-3.1,0l-3.1,0.1c-1,0-2.1,0.1-3.1,0.2
				c-2.1,0.1-4.1,0.3-6.1,0.5c-4.1,0.5-8.1,1.3-12.1,2.3c-1,0.3-2,0.5-3,0.8c-1,0.3-2,0.6-2.9,0.9C123,20.7,121.1,21.4,119.2,22.3z"
				/>
		</g>
		<g>
			<path class="st6" d="M149,22.3c1.8-0.5,3.7-0.7,5.6-0.6c1.9,0,3.8,0.2,5.6,0.6c1.8,0.4,3.7,0.9,5.4,1.6c1.8,0.7,3.4,1.5,5,2.6
				c-1.8-0.5-3.6-1-5.4-1.4c-0.4-0.1-0.9-0.2-1.3-0.3l-1.3-0.3c-0.9-0.2-1.8-0.4-2.7-0.6c-1.8-0.4-3.6-0.7-5.4-0.9
				C152.7,22.6,150.9,22.4,149,22.3z"/>
		</g>
		<g>
			<path class="st6" d="M193.9,138.2c0.5,0.3,0.8,0.8,1.1,1.2c0.3,0.5,0.6,0.9,0.9,1.4l1.7,2.8c1.1,1.9,2.3,3.7,3.7,5.3
				c1.4,1.6,3,3,4.8,4.1c1.8,1.1,3.9,1.7,6.1,2.1c-2.2,0.2-4.5-0.1-6.6-1.1c-2.1-0.9-3.9-2.4-5.4-4.1c-1.5-1.7-2.7-3.7-3.6-5.7
				c-0.5-1-0.9-2-1.3-3.1l-0.6-1.5C194.4,139.1,194.3,138.6,193.9,138.2z"/>
		</g>
		<g>
			<path class="st6" d="M209.5,146.7c3.7,1.3,7.3,2.5,11.1,3.4c1.8,0.5,3.7,0.8,5.6,1.2c1.9,0.3,3.8,0.5,5.8,0.7
				c-1.9,0.4-3.9,0.6-5.9,0.5c-2-0.1-3.9-0.4-5.9-0.9c-1.9-0.5-3.8-1.1-5.6-1.9C212.8,148.8,211,147.9,209.5,146.7z"/>
		</g>
	</g>
	<g>
		<g>
			<path class="st0" d="M256.9,167.2c-6.5,3.7-13.2,6.9-20,10.1c-6.8,3.1-13.6,6.1-20.6,8.7c6.5-3.7,13.2-6.9,20-10.1
				C243.1,172.8,249.9,169.8,256.9,167.2z"/>
		</g>
		<g>
			<path class="st0" d="M242.3,173.9c2,3.4,3.8,6.8,5.7,10.2l5.6,10.2c3.7,6.8,7.4,13.7,11,20.6c3.6,6.9,7.2,13.8,10.7,20.7
				l5.2,10.4c1.7,3.5,3.4,7,5.1,10.5c-2-3.4-3.8-6.8-5.7-10.2l-5.6-10.2c-3.7-6.8-7.4-13.7-11-20.6c-3.6-6.9-7.2-13.8-10.7-20.7
				l-5.2-10.4C245.7,180.9,244,177.5,242.3,173.9z"/>
		</g>
		<g>
			<path class="st0" d="M231.9,178.8c1.2,1.9,2.2,3.9,3.1,5.9c1,2,1.9,4,2.8,6.1c0.9,2.1,1.7,4.1,2.5,6.2c0.8,2.1,1.5,4.2,2.1,6.4
				c-1.2-1.9-2.2-3.9-3.1-5.9c-1-2-1.9-4-2.8-6.1c-0.9-2.1-1.7-4.1-2.5-6.2C233.2,183,232.5,180.9,231.9,178.8z"/>
		</g>
		<g>
			<path class="st0" d="M349.1,382.6c1.5,3,3,5.9,4.5,8.9l4.4,9c2.9,6,5.7,12,8.5,18.1c2.8,6.1,5.6,12.1,8.2,18.2l4,9.2
				c1.3,3.1,2.6,6.1,3.9,9.2c-1.6-3-3-5.9-4.5-8.9l-4.4-9c-2.9-6-5.7-12-8.5-18.1c-2.8-6.1-5.5-12.1-8.2-18.2l-4-9.2
				C351.6,388.8,350.3,385.7,349.1,382.6z"/>
		</g>
		<g>
			<path class="st0" d="M331.7,348.6c0.7,0.8,1.3,1.7,1.9,2.7c0.6,0.9,1.1,1.9,1.5,2.8c0.5,1,0.9,2,1.2,3c0.4,1,0.7,2.1,0.8,3.2
				c-0.7-0.8-1.3-1.7-1.9-2.7c-0.6-0.9-1.1-1.9-1.5-2.8c-0.5-1-0.9-2-1.2-3C332.2,350.8,331.9,349.7,331.7,348.6z"/>
		</g>
		<g>
			<path class="st0" d="M170.7,239.9l6.1,10.8l6,10.8l12,21.6c3.9,7.2,8,14.4,12,21.6c2,3.6,4.1,7.2,6.1,10.7l3.1,5.3l3.2,5.3
				c-1.2-1.7-2.4-3.4-3.5-5.1l-3.4-5.2c-2.2-3.5-4.4-7-6.5-10.5c-4.2-7.1-8.3-14.2-12.3-21.4c-3.9-7.2-7.9-14.5-11.7-21.8l-5.6-11
				C174.3,247.3,172.5,243.6,170.7,239.9z"/>
		</g>
		<g>
			<path class="st0" d="M187.5,246.3c3.4,5.6,6.3,11.3,9.2,17.1c2.8,5.8,5.5,11.7,7.8,17.8c-3.4-5.6-6.3-11.3-9.2-17.1
				C192.5,258.2,189.8,252.3,187.5,246.3z"/>
		</g>
	</g>
</g>
</svg>
