<?xml version="1.0" encoding="utf-8"?>
<!-- Generator: Adobe Illustrator 25.4.1, SVG Export Plug-In . SVG Version: 6.00 Build 0)  -->
<svg version="1.1" id="Layer_1" xmlns="http://www.w3.org/2000/svg" xmlns:xlink="http://www.w3.org/1999/xlink" x="0px" y="0px"
	 viewBox="0 0 500 500" style="enable-background:new 0 0 500 500;" xml:space="preserve">
<style type="text/css">
	.st0{fill:#00C9FF;}
	.st1{fill:#FD990D;}
	.st2{fill:#E2CCBA;}
	.st3{opacity:0.2;fill:#7A0E0E;}
	.st4{opacity:0.3;fill:#0063B9;}
	.st5{opacity:0.3;fill:#7A0E0E;}
	.st6{fill:#003FA2;}
	.st7{fill:#644936;}
</style>
<g id="Mushroom">
	<path class="st0" d="M38.4,149.8c11.6,37.6,171,93.1,272.4,90.3s148.7-15.2,151.5-45.1c2.8-29.9-112.6-181.4-212-193.9
		S20.3,91.4,38.4,149.8z"/>
	<g>
		<g>
			<g>
				<path class="st1" d="M218.6,70.5c0,0,7.4-38.9-35-35.4c-42.4,3.5-69.5,53.5-50,72.3s35.4,6.3,35.4,6.3s14,20.2,24.4,14.6
					c10.4-5.6,0.7-25,0.7-25s13.2,8.3,18.8,2.1S208,86.5,208,86.5s18.1,8.3,22.9,1.4C235.8,81,218.6,70.5,218.6,70.5z"/>
			</g>
			<g>
				<path class="st1" d="M349.5,49.9c-22.2-17.7-45.9-32.6-69.5-41.3c-2.4,12.3-4.1,40.1,25.2,55C328.6,75.5,342.4,62.1,349.5,49.9z
					"/>
			</g>
			<g>
				<path class="st1" d="M271.2,155.5c0,0-9-30.1,13.9-44c22.9-13.9,64.6,0.7,70.9,27.1s-5.5,64.6-38.5,52.1c0,0-8.7,20.2-17.1,16.7
					s-9.7-17.4-9.7-17.4s-7.6,11.1-17.4,7.6c-9.7-3.5,0-18.8,0-18.8s-18.3,4.9-20.9-3.5C249.6,167.1,271.2,155.5,271.2,155.5z"/>
			</g>
			<path class="st1" d="M443.4,152.3c-12.9-19.8-31.5-43.3-53.6-65.9c-4.6,9.5-13.4,32.3-2.5,50.1c14.1,22.9,24.3,13.2,24.3,13.2
				s13.2,15.3,20.2,11.1s0-15.3,0-15.3S437.1,152.2,443.4,152.3z"/>
			<path class="st1" d="M170,219.1c1-14.2-0.1-41.1-21.2-52.6c-24.2-13.3-53.7,12.2-63,21.3C109,199.1,138.5,210.1,170,219.1z"/>
			<path class="st1" d="M61.9,84.1c-19.4,22.9-29.4,46.6-23.5,65.6c0.1,0.2,0.2,0.5,0.3,0.7C78.1,137.6,69.4,102.2,61.9,84.1z"/>
			<path class="st1" d="M386.4,235c24.8-3.2,43.3-7.9,55.8-14.5c-6.7-9.4-19.8-22.9-36.9-15.8C390.4,210.9,386.9,224.8,386.4,235z"
				/>
		</g>
	</g>
	<path class="st2" d="M252.4,236.5c-20.3-2.7-41.2-6.8-61.6-11.9c-14.1,45.9-46.7,178.1,11.9,267.3c0,0,60.9,12.3,78.9-55.8
		C281.6,436.1,226.9,365.8,252.4,236.5z"/>
	<path class="st3" d="M281.6,436.1c0,0-7.3-9.4-15.3-27.7c-3.1,1.9-5.5,3.7-6.4,5.2c-5,8.1-28.3,39.1-57.2,13.2
		c-28.9-25.9-16.8-77.2-12.6-127.7c2.6-31.6,35-40.2,59-42.3c0.9-6.6,2-13.4,3.4-20.4c-20.3-2.7-41.2-6.8-61.6-11.9
		c-14.1,45.9-46.7,178.1,11.9,267.3C202.7,491.9,263.6,504.2,281.6,436.1z"/>
	<path class="st3" d="M235.7,233.9c-14.9-2.5-30-5.7-44.9-9.3c-14.1,45.9-46.7,178.1,11.9,267.3c0,0,41,8.2,65.7-26.4
		c-21.4-6.7-62.4-31.4-75.3-122.2C184.3,281.9,208.7,250.3,235.7,233.9z"/>
	<path class="st2" d="M210.7,468.1c-38.8-20.4-58.1-70.7-65.6-95.9c-10,4.1-20.4,7.7-30.3,10.4c3.6,31.5,15.7,103.9,51.5,114.7
		C212.1,511.1,210.7,468.1,210.7,468.1z"/>
	<path class="st0" d="M99.5,272.1c-34.4,9.3-52.8,91.7-37.5,111.2c15.3,19.5,134.8-20.8,140.4-55.6
		C208,292.9,135.7,262.3,99.5,272.1z"/>
	<path class="st0" d="M264.9,372.1c-32.5,23.9-23.6,79.2-6.9,97.3c16.7,18.1,120.9,2.8,95.9-68.1S275.3,364.5,264.9,372.1z"/>
	<path class="st4" d="M342.2,44.1c32.3,40.9,80,111.6,49.2,140.4c-44.5,41.7-168.4-30.2-222.5-29c-34.2,0.7-98.7-10.7-128.4-36.7
		c-4.1,11-5,21.6-2.1,31c11.6,37.6,171,93.1,272.4,90.3s148.7-15.2,151.5-45.1C464.2,174.2,409.2,94.9,342.2,44.1z"/>
	<path class="st5" d="M38.4,149.8c10.1,32.6,131.6,78.8,229.9,88.6c-203.4-65.7-181.4-157.3-163-193C59.7,77.2,29,119.5,38.4,149.8z
		"/>
	<path class="st3" d="M143.3,372.9c-9.4,3.8-19.1,7.1-28.5,9.7c3.6,31.5,15.7,103.9,51.5,114.7c45.9,13.9,44.5-29.2,44.5-29.2
		C121.8,502.4,131.4,420.2,143.3,372.9z"/>
	<path class="st3" d="M147.2,378.9c-0.8-2.4-1.5-4.7-2.1-6.7c-10,4.1-20.4,7.7-30.3,10.4c3.6,31.5,15.7,103.9,51.5,114.7
		c11,3.3,19.3,3.4,25.5,1.5c-18.2-5.1-36.6-17.2-50.6-42.4C114.9,408.8,132.1,387.8,147.2,378.9z"/>
	<g>
		<g>
			<g>
				<path class="st1" d="M99.5,272.1c-8.5,2.3-16,9.1-22.3,18.2c2.7,10,8.7,23.2,20.9,22.8c0,0,2.8,11.8,8.3,11.8c5.6,0,8.3-9,8.3-9
					s7.5,4.9,11.8,3.5c4.2-1.4,0-9.7,0-9.7s5.4,2.1,10.4-0.7c5-2.8-7.3-8.5-7.3-8.5s10.3-13.2,0.8-28.8
					C119.1,269.7,108.3,269.7,99.5,272.1z"/>
			</g>
			<circle class="st1" cx="96.5" cy="353.9" r="10.2"/>
			<path class="st1" d="M168.9,307.1c0,3.7-3.5,6.7-7.8,6.7c-4.3,0-7.8-3-7.8-6.7c0-3.7,3.5-6.7,7.8-6.7
				C165.4,300.4,168.9,303.4,168.9,307.1z"/>
		</g>
	</g>
	<g>
		<g>
			<g>
				<path class="st1" d="M296.6,386c9.8,0,17.7-7.9,17.7-17.7c0-4.1-1.4-7.8-3.7-10.8c-11.3-1.3-22.4,2.1-31,6
					c-0.4,1.5-0.7,3.1-0.7,4.7C278.8,378.1,286.8,386,296.6,386z"/>
			</g>
			<path class="st1" d="M343.3,426.5c0,5.3-4.3,9.6-9.6,9.6c-5.3,0-9.6-4.3-9.6-9.6c0-5.3,4.3-9.6,9.6-9.6
				C338.9,416.8,343.3,421.1,343.3,426.5z"/>
			<g>
				<path class="st1" d="M265.1,426.5c0,0-1.5-17.5,8.2-23.7c9.7-6.3,33.4,0.4,33.4,14.1c0,13.7-10.1,19.2-10.1,19.2
					s-5,14.8-10.8,14s-7-8.4-7-8.4s-8.1,5.9-10.5,5.3c-2.4-0.6-3.4-9-3.4-9s-7.7,3-9.1-1.9C254.5,431.2,265.1,426.5,265.1,426.5z"/>
			</g>
		</g>
	</g>
	<path class="st5" d="M201.7,330.4c-119.8,71-132.9,10.9-130.4-29.9c-14.6,28.6-19.5,69.8-9.3,82.8
		C76.9,402.2,190.7,364.5,201.7,330.4z"/>
	<path class="st5" d="M190.1,299.1c-16.2,22.4-62.5,79.6-118.9,88.6c32.2,5.8,126.3-29.3,131.2-60
		C204,317.5,198.9,307.7,190.1,299.1z"/>
	<path class="st5" d="M345.3,453c-85,8.4-91.7-40.8-86.2-75.7c-25.4,25.9-16.7,75.3-1.1,92.2C269.3,481.7,321.1,478.6,345.3,453z"/>
	<path class="st5" d="M354.8,438c-44.9,21.2-84.1,12.6-110.2,0.6c2.4,13,7.4,24.4,13.4,30.9C271.3,483.8,339.9,477,354.8,438z"/>
	<g>
		<g>
			<path class="st6" d="M133.8,45.3c-4.4,2.9-8.8,5.9-13,9c-4.3,3.1-8.4,6.4-12.5,9.7c-8.1,6.7-16,13.8-23,21.7
				c-7.1,7.8-13.5,16.3-18.1,25.8c-2.3,4.7-4,9.7-4.9,14.9c-0.9,5.2-0.9,10.5,0.2,15.7c-1.3-5.1-1.5-10.5-0.7-15.8
				c0.8-5.3,2.5-10.3,4.7-15.2c2.2-4.8,5-9.4,8.1-13.7c3.1-4.3,6.4-8.4,10-12.4c7.2-7.8,15-15,23.3-21.6
				C116.1,56.9,124.7,50.8,133.8,45.3z"/>
		</g>
		<g>
			<path class="st6" d="M86.3,117.3c-1.2,1.6-2.2,3.3-3,5.1c-0.4,0.9-0.8,1.8-1.1,2.7c-0.2,0.5-0.3,0.9-0.5,1.4l-0.4,1.4
				c-1,3.8-1.4,7.8-1.3,11.7l0.2,3c0.1,1,0.3,2,0.4,2.9c0.2,2,0.8,3.9,1.2,5.8c0.2,1,0.6,1.9,0.9,2.8l0.9,2.8
				c0.7,1.9,1.5,3.7,2.2,5.6c-0.9-1.8-1.8-3.6-2.7-5.4l-1.1-2.8c-0.3-0.9-0.8-1.9-1-2.8c-0.5-1.9-1.1-3.9-1.4-5.9
				c-0.1-1-0.4-2-0.5-3l-0.2-3c-0.1-4,0.3-8.1,1.5-12C81.8,124,83.6,120.3,86.3,117.3z"/>
		</g>
		<g>
			<path class="st6" d="M114.8,111.3c-1.2,1.2-2.2,2.6-3.3,3.9c-1,1.4-1.9,2.8-2.7,4.3c-0.8,1.5-1.3,3.1-1.7,4.7
				c-0.4,1.6-0.5,3.3-0.5,5c-0.4-1.7-0.6-3.4-0.3-5.2c0.3-1.7,0.8-3.4,1.6-5c0.8-1.5,1.8-3,2.9-4.3
				C112.1,113.4,113.4,112.3,114.8,111.3z"/>
		</g>
		<g>
			<path class="st6" d="M327.5,45.3c4.4,3.3,8.5,6.9,12.6,10.5c4,3.7,8,7.5,11.7,11.5c1,1,1.9,2,2.8,3c0.9,1,1.8,2,2.7,3.1l2.6,3.1
				c0.8,1.1,1.7,2.2,2.5,3.2c3.3,4.4,6.3,9,8.6,13.9l-2.1-3.5c-0.7-1.2-1.5-2.3-2.3-3.4c-0.7-1.1-1.6-2.2-2.4-3.3
				c-0.8-1.1-1.6-2.2-2.5-3.2c-3.4-4.3-7-8.3-10.8-12.3c-3.7-4-7.6-7.8-11.5-11.6c-2-1.9-4-3.8-6-5.6
				C331.6,49,329.5,47.1,327.5,45.3z"/>
		</g>
		<g>
			<path class="st6" d="M314.2,224.6c5.2,0.1,10.4,0.1,15.6,0c5.2,0,10.4-0.1,15.6-0.3c10.4-0.3,20.8-0.9,31.1-1.9
				c10.4-0.9,20.7-2.3,30.9-4.4c5.1-1.1,10.1-2.3,15.1-3.9c4.9-1.6,9.8-3.5,14.3-6.2c-4.4,2.8-9.2,4.9-14.1,6.6
				c-4.9,1.7-10,3.1-15.1,4.2c-10.2,2.3-20.6,3.6-30.9,4.7c-10.4,0.9-20.8,1.5-31.2,1.7C335,225.2,324.6,225.1,314.2,224.6z"/>
		</g>
		<g>
			<path class="st6" d="M260.8,218.8c2.5,0.3,5,0.7,7.5,1.1c2.5,0.4,5,0.9,7.4,1.3c2.5,0.5,4.9,1,7.4,1.6l3.7,0.9
				c1.2,0.3,2.4,0.6,3.7,1c-1.3-0.1-2.5-0.3-3.8-0.5l-3.7-0.6c-2.5-0.4-5-0.9-7.4-1.3c-2.5-0.5-4.9-1-7.4-1.6
				C265.7,220.1,263.2,219.5,260.8,218.8z"/>
		</g>
		<g>
			<path class="st6" d="M187.1,310.5c0.8,2.6,0.8,5.4,0.5,8.1c0,0.3-0.1,0.7-0.1,1l-0.2,1l-0.4,2l-0.6,1.9c-0.2,0.6-0.4,1.3-0.7,1.9
				c-2.1,5-5.3,9.6-9,13.5l-1.4,1.5l-1.5,1.4l-3,2.7c-1.1,0.9-2.1,1.7-3.2,2.5c-1.1,0.8-2.1,1.7-3.3,2.4l-3.4,2.2l-1.7,1.1
				c-0.6,0.4-1.1,0.7-1.7,1c-2.4,1.3-4.8,2.6-7.2,3.8c2.3-1.4,4.6-2.8,6.9-4.2c2.3-1.4,4.5-3,6.7-4.5c2.2-1.6,4.2-3.3,6.3-5l2.9-2.7
				l1.5-1.4l1.3-1.5c3.8-3.8,6.8-8.3,9-13.2c0.3-0.6,0.5-1.2,0.7-1.9l0.7-1.9l0.5-1.9l0.2-1l0.2-1
				C187.6,315.9,187.7,313.2,187.1,310.5z"/>
		</g>
		<g>
			<path class="st6" d="M170.3,304.5c1.2,1.4,2,3,2.6,4.8c0.6,1.7,0.9,3.6,0.9,5.4c0,1.8-0.3,3.7-0.9,5.4c-0.3,0.9-0.7,1.7-1.1,2.5
				c-0.4,0.8-1,1.5-1.5,2.3c0.3-0.9,0.7-1.6,1-2.5c0.3-0.8,0.6-1.7,0.8-2.5c0.5-1.7,0.7-3.4,0.7-5.2c0-1.7-0.2-3.5-0.6-5.2
				C171.7,307.8,171.1,306.1,170.3,304.5z"/>
		</g>
		<g>
			<path class="st6" d="M77.2,314.7c-0.6,2.3-1.3,4.5-1.9,6.8c-0.6,2.3-1.2,4.5-1.8,6.8c-1.1,4.6-2.2,9.1-3.1,13.7
				c-0.9,4.6-1.6,9.2-1.9,13.9c-0.1,2.3-0.1,4.7,0.2,7c0.3,2.3,0.9,4.6,2.4,6.5c-1.7-1.7-2.4-4.1-2.9-6.4c-0.4-2.3-0.5-4.7-0.5-7.1
				c0-2.4,0.3-4.7,0.6-7.1c0.3-2.3,0.7-4.7,1.1-7c0.9-4.6,2-9.2,3.3-13.7C74.1,323.6,75.5,319.1,77.2,314.7z"/>
		</g>
		<g>
			<path class="st6" d="M343.3,418.9c-0.6,5.2-2.3,10.2-4.4,15c-2.2,4.8-5.1,9.2-8.6,13.2c-3.5,3.9-7.6,7.3-12,10.1
				c-1.1,0.6-2.3,1.3-3.4,1.9L313,460l-1.8,0.8c-2.4,1-4.9,1.9-7.4,2.6c4.9-1.8,9.6-4.1,13.9-6.9c4.3-2.8,8.3-6.2,11.7-10.1
				c1.7-1.9,3.3-4,4.7-6.1c1.4-2.1,2.7-4.4,3.9-6.7c1.2-2.3,2.2-4.7,3-7.2C342,424,342.8,421.5,343.3,418.9z"/>
		</g>
		<g>
			<path class="st6" d="M268.3,450.1c1.3,0.3,2.6,0.6,3.9,0.9c1.3,0.3,2.6,0.5,3.9,0.7c2.6,0.4,5.2,0.7,7.8,0.8
				c2.6,0.1,5.2,0.1,7.8-0.1c1.3-0.2,2.6-0.3,3.9-0.6c1.3-0.2,2.5-0.6,3.8-1c-2.4,1.1-5,1.9-7.6,2.3c-2.6,0.4-5.3,0.5-8,0.4
				c-2.7-0.2-5.3-0.5-7.9-1.1C273.4,451.9,270.8,451.2,268.3,450.1z"/>
		</g>
	</g>
	<g>
		<g>
			<path class="st7" d="M211.8,229.3c-1.5,4.4-2.9,8.9-4.3,13.3c-1.4,4.4-2.8,8.9-4.1,13.4c-1.3,4.5-2.5,9-3.7,13.5
				c-1.2,4.5-2.2,9-3.2,13.6c0.4-4.7,1.1-9.3,2-13.9c0.9-4.6,2.1-9.1,3.4-13.6C204.6,246.6,207.7,237.8,211.8,229.3z"/>
		</g>
		<g>
			<path class="st7" d="M225.3,232.1c-0.3,2.2-0.6,4.4-1.1,6.6c-0.4,2.2-1,4.3-1.5,6.5c-0.6,2.1-1.2,4.3-1.8,6.4
				c-0.7,2.1-1.4,4.2-2.2,6.3c0.3-2.2,0.6-4.4,1.1-6.6c0.4-2.2,1-4.3,1.5-6.5c0.6-2.1,1.2-4.3,1.8-6.4
				C223.7,236.3,224.4,234.2,225.3,232.1z"/>
		</g>
		<g>
			<path class="st7" d="M187.6,355.8c1.1,5.8,2.2,11.6,3.3,17.4c1.1,5.8,2.3,11.6,3.5,17.4c2.4,11.5,5,23.1,7.9,34.5
				c2.8,11.5,5.9,22.8,9.5,34.1c1.8,5.6,3.7,11.2,5.9,16.7c2.1,5.5,4.6,10.9,7.4,16c-6.3-10-10.6-21.2-14.5-32.3
				c-3.8-11.2-7-22.6-9.9-34.1c-2.8-11.5-5.4-23-7.6-34.6c-1.1-5.8-2.1-11.6-3.1-17.4C189.3,367.5,188.4,361.7,187.6,355.8z"/>
		</g>
		<g>
			<path class="st7" d="M214.6,403.4c0.7,2.7,1.4,5.5,2.2,8.2c0.7,2.7,1.5,5.5,2.3,8.2c1.6,5.4,3.1,10.9,4.9,16.3
				c0.9,2.7,1.7,5.4,2.7,8.1l1.4,4c0.5,1.3,1,2.6,1.5,4c0.5,1.3,1,2.6,1.5,3.9l0.8,2l0.9,1.9c0.6,1.3,1.1,2.6,1.7,3.9
				c0.6,1.3,1.2,2.5,1.8,3.8c-1.5-2.4-2.9-4.9-4.2-7.4l-1-1.9l-0.9-1.9c-0.6-1.3-1.2-2.6-1.7-3.9c-2.3-5.2-4.1-10.6-5.9-16
				c-1.7-5.4-3.2-10.9-4.5-16.4c-0.7-2.8-1.3-5.5-1.9-8.3C215.5,409,215,406.2,214.6,403.4z"/>
		</g>
		<g>
			<path class="st7" d="M231.2,324.9l1.4,14.2c0.5,4.7,0.9,9.5,1.5,14.2c0.5,4.7,1.1,9.4,1.8,14.1c0.7,4.7,1.4,9.4,2.4,14.1
				c-3-9.1-4.5-18.6-5.6-28.1c-0.5-4.7-0.9-9.5-1.1-14.3C231.2,334.4,231.1,329.7,231.2,324.9z"/>
		</g>
		<g>
			<path class="st7" d="M124.9,379.8c0.8,4.7,1.6,9.5,2.5,14.2c0.9,4.7,1.7,9.4,2.8,14.1c0.5,2.3,1,4.7,1.6,7l0.9,3.5l0.9,3.5
				c1.3,4.6,2.7,9.2,4.6,13.6c-2.4-4.2-4.2-8.7-5.7-13.2c-1.5-4.6-2.7-9.3-3.7-14c-1-4.7-1.8-9.5-2.5-14.2
				C125.6,389.4,125.1,384.6,124.9,379.8z"/>
		</g>
		<g>
			<path class="st7" d="M146.4,420.4c0.9,3.6,1.7,7.1,2.8,10.6c0.5,1.7,1.1,3.4,1.8,5.1c0.7,1.7,1.4,3.3,2.3,5
				c-1.4-1.3-2.5-2.8-3.4-4.5c-0.9-1.7-1.6-3.4-2.1-5.2c-0.5-1.8-0.9-3.6-1.2-5.5C146.4,424.2,146.3,422.3,146.4,420.4z"/>
		</g>
		<g>
			<path class="st7" d="M168.9,483.7c5.1,2,10.2,4.1,15.3,6c2.6,1,5.1,1.8,7.7,2.7c2.6,0.8,5.2,1.6,7.9,2.3
				c-2.8-0.1-5.5-0.5-8.2-1.2c-2.7-0.6-5.3-1.5-7.9-2.4c-2.6-1-5.1-2.1-7.6-3.3C173.7,486.6,171.2,485.2,168.9,483.7z"/>
		</g>
	</g>
</g>
</svg>
