<?xml version="1.0" encoding="utf-8"?>
<!-- Generator: Adobe Illustrator 25.4.1, SVG Export Plug-In . SVG Version: 6.00 Build 0)  -->
<svg version="1.1" xmlns="http://www.w3.org/2000/svg" xmlns:xlink="http://www.w3.org/1999/xlink" x="0px" y="0px"
	 viewBox="0 0 500 500" style="enable-background:new 0 0 500 500;" xml:space="preserve">
<style type="text/css">
	.st0{fill:#42D0DC;}
	.st1{fill:#1AACC4;}
	.st2{fill:#FDC905;}
	.st3{fill:#AE7401;}
	.st4{fill:#DA9702;}
	.st5{fill:#152B39;}
	.st6{fill:#EDEBEB;}
</style>
<g id="Layer_1">
</g>
<g id="obj">
	<g>
		<g>
			<polygon class="st0" points="161.6,219.5 168.1,210.7 164.6,198.9 152.8,187.4 142,183.7 126.9,183.9 108.2,191.9 94.6,203.7 
				105.8,201.3 112.2,201.5 121.6,208.7 135.2,223.7 143.8,228.9 155.2,227 			"/>
			<path class="st1" d="M332.2,407.4l26.8,13.6l16.2,2.9l11.8-1.8l13.8-9.9l9.4-15.7l-1.7-14.6l-9.9-7.7c0,0-10.9-0.7-13.8,3.7
				c-2.9,4.4,1.7,15.2,1.7,15.2l14.9,15.3l-3.2,4.5L377.2,397l-7.4-21.5l7.2-13.5l14.5-5.2l9.9,2.3l9.4,4.7l9,12.7l4,14l-1.5,15.7
				l-5.8,13.2l-16.1,13.6l-15.4,7.3l-19.6,1l-23.3-5l-19.8-10.2L332.2,407.4z"/>
			<polygon class="st1" points="152.4,289.4 209,305.7 198.6,252 207.7,231.1 222.7,222 238,223.3 249.1,230.5 253.3,242.2 
				264.7,245 261.1,226.9 252.3,214.5 236.7,203.1 215.5,200.9 189.8,209.7 174.2,227.9 			"/>
			<polygon class="st2" points="194.5,281.9 198.6,253.8 236.8,243.2 264.7,245 286.7,251.3 310.2,267.8 327.1,292.8 338.1,340.9 
				332.6,400.4 306.2,446.3 262.5,478.3 214,495.5 157.4,499.9 92,483.8 51.6,453.6 13.4,403.7 2.8,367.3 7.9,318.1 31.1,272.6 
				61.9,249.8 104.2,239.5 167,248 163.7,277 167.6,283.6 178.3,288.7 			"/>
		</g>
		<polygon class="st3" points="163.1,415.1 187.1,420.5 209.9,418.8 207.6,445.4 203.1,466.2 199.9,471.6 168,459.6 163.1,432.2 		
			"/>
		<polygon class="st4" points="165.1,456.2 202.8,467.9 199.4,474.7 178.2,476.5 		"/>
		<g>
			<path class="st5" d="M172.4,502.7c-0.2,0-0.3,0-0.5,0c-41.3-8.9-44.1-50.8-45.7-130.2c-0.9-42.9,11.7-64.5,22.5-75.2
				c11.9-11.7,24-13,24.5-13c1.2-0.1,2.3,0.8,2.4,2c0.1,1.2-0.8,2.3-2,2.4l0,0c-1.8,0.2-44.7,5.4-43,83.7
				c1.7,79.3,4.2,117.8,42.3,126c1.2,0.3,1.9,1.4,1.7,2.6C174.3,502,173.4,502.7,172.4,502.7z"/>
		</g>
		<g>
			<path class="st5" d="M181.7,292.4c-1.1,0-2.2-0.1-3.4-0.3c-5.8-1-10.7-4.5-14.5-10.5l-0.4-0.6l-0.1-0.8
				c-0.1-0.7-7.5-69.8,48.2-80.8c15.7-3.1,28.8-0.8,38.9,7c17.5,13.5,19.3,38.3,19.4,39.4c0.1,1.8-1.3,3.4-3.1,3.5
				c-1.8,0.1-3.4-1.3-3.5-3.1c0-0.2-1.7-22.9-16.9-34.6c-8.5-6.5-19.8-8.5-33.6-5.7c-46.9,9.3-43.6,65.6-43,72.8
				c2.7,3.9,5.9,6.3,9.6,6.9c5.7,1,11.4-2,13.9-3.7c-0.4-9.9-0.5-53.7,27.8-62.2c9.6-2.9,17.8-2.2,24.4,2
				c11.1,7,13.4,21.2,13.5,21.8c0.3,1.8-1,3.5-2.8,3.8c-1.8,0.3-3.5-1-3.8-2.8c0-0.2-2-11.9-10.5-17.3c-5-3.1-11.3-3.5-19-1.2
				c-26.3,7.9-23,56.8-23,57.3l0.1,1.7l-1.4,1.1C198.4,286.5,190.8,292.4,181.7,292.4z"/>
		</g>
		<g>
			<path class="st5" d="M176.6,503.9c-50.1,0-114.5-16.5-159.4-87.7c-26.1-41.4-22.2-102.3,9.2-141.7c31.5-39.6,84-50.2,144-29.1
				c2.3,0.8,3.5,3.3,2.7,5.6c-0.8,2.3-3.3,3.5-5.6,2.7c-77-27.1-117.1,4.8-134.2,26.3c-29.1,36.5-32.8,93.1-8.6,131.5
				c37.2,59.1,92.4,87.1,163.7,83.3c52.6-2.8,103.2-30.2,128.9-70c26.1-40.3,29.5-127.7-19.3-161.3c-48.5-33.4-94.3-5.7-96.2-4.5
				c-2.1,1.3-4.8,0.7-6.1-1.4c-1.3-2.1-0.7-4.8,1.4-6.1c0.5-0.3,52.5-32.1,105.9,4.7c24.4,16.8,39.2,46.9,41.5,84.9
				c2,32.5-5.6,66.4-19.8,88.5c-27.2,42-80.5,71-135.8,74C184.9,503.8,180.8,503.9,176.6,503.9z"/>
		</g>
		<g>
			<path class="st5" d="M198.5,500.3c-0.9,0-1.7-0.5-2.1-1.4c-0.4-1.1,0.1-2.4,1.3-2.8c57.5-22.2,54.3-86.9,46.8-145.9
				c-7-54.5-45.7-64.1-47.3-64.5l-4.1-1l3.1-2.8c0.4-0.4,10.7-9.5,26-14.4c14.3-4.6,35.7-6.1,56.7,12.6
				c22.1,19.7,35.5,59.7,33.3,99.6c-2.5,44.3-23.5,82.7-59.3,108.1c-1,0.7-2.4,0.5-3.1-0.5c-0.7-1-0.5-2.4,0.5-3.1
				c34.7-24.6,55.1-61.8,57.4-104.7c2.1-38-11-77.5-31.8-96c-31.1-27.7-63.7-7.9-73.7-0.6c10.9,4.2,40.6,19.9,46.6,66.9
				c7.8,60.6,11,127.2-49.6,150.5C199,500.3,198.7,500.3,198.5,500.3z"/>
		</g>
		<g>
			<path class="st5" d="M118,493.6c-0.4,0-0.9-0.1-1.3-0.4c-0.6-0.4-56.8-40.7-45-139.3c3.9-32.4,15.6-55.3,34.8-67.9
				c17.7-11.6,37.5-11.8,49.5-10.4c-15.8-8.9-49.9-21.7-84.7,4.9c-19,14.5-30.2,37.3-32.6,65.9c-3.9,46.9,16.3,99,38.1,122.3
				c0.8,0.9,0.8,2.3-0.1,3.1c-0.9,0.8-2.3,0.8-3.1-0.1c-22.4-24-43.3-77.5-39.2-125.7c2.5-29.9,14.4-53.8,34.3-69.1
				c49.5-37.7,98.8,0.7,99.3,1.1l8.8,7l-10.8-3.2c-0.3-0.1-31.5-9-57,7.8c-18.1,11.9-29.1,33.7-32.8,64.8
				c-11.5,96,42.6,134.8,43.2,135.1c1,0.7,1.2,2.1,0.6,3.1C119.4,493.3,118.7,493.6,118,493.6z"/>
		</g>
		<g>
			<path class="st5" d="M196.7,284.7c-0.1,0-0.3,0-0.4-0.1c-0.6-0.2-0.8-0.9-0.6-1.4c0.2-0.5,5.1-12.2,18.2-20.7
				c12-7.9,33.5-14.3,67.6-0.4c0.6,0.2,0.8,0.9,0.6,1.4c-0.2,0.6-0.9,0.8-1.4,0.6c-63.3-25.9-82.1,18-82.9,19.9
				C197.6,284.4,197.2,284.7,196.7,284.7z"/>
		</g>
		<g>
			<path class="st5" d="M197.5,274c-0.3,0-0.5,0-0.8-0.1c-1.1-0.4-1.7-1.7-1.3-2.8c0.4-1,10.1-25.1,48.6-30.1
				c1.2-0.2,2.3,0.7,2.5,1.9c0.2,1.2-0.7,2.3-1.9,2.5c-35.9,4.7-45,27.1-45.1,27.3C199.2,273.5,198.4,274,197.5,274z"/>
		</g>
		<g>
			<path class="st5" d="M166.2,269.2c-0.8,0-1.5-0.4-1.9-1.1c-0.1-0.2-13.2-22.1-41.8-27.3c-1.2-0.2-2-1.4-1.8-2.6
				c0.2-1.2,1.4-2,2.6-1.8c30.7,5.6,44.3,28.4,44.9,29.4c0.6,1.1,0.3,2.4-0.8,3C167,269.1,166.6,269.2,166.2,269.2z"/>
		</g>
		<g>
			<path class="st5" d="M165.2,275.2c-0.3,0-0.5-0.1-0.7-0.3c-0.5-0.5-52.2-45.9-99.5-6.8c-0.5,0.4-1.2,0.3-1.6-0.1
				c-0.4-0.5-0.3-1.2,0.1-1.6c48.8-40.3,101.9,6.4,102.4,6.9c0.5,0.4,0.5,1.1,0.1,1.6C165.8,275.1,165.5,275.2,165.2,275.2z"/>
		</g>
		<g>
			<path class="st5" d="M108.8,335.6c-0.1,0-0.2,0-0.3,0c-0.6-0.1-1-0.7-0.8-1.3c13-56.1,60.1-51.9,60.5-51.8c0.6,0.1,1,0.6,1,1.2
				c-0.1,0.6-0.6,1.1-1.2,1c-1.9-0.2-45.6-4-58.2,50.1C109.8,335.2,109.3,335.6,108.8,335.6z"/>
		</g>
		<g>
			<path class="st5" d="M164.9,345.4c-0.6,0-1.1-0.4-1.1-1c-1.8-29,4.5-42.6,10.2-48.8c5.4-6,11-6.3,11.2-6.3c0.6,0,1.1,0.4,1.1,1.1
				c0,0.6-0.4,1.1-1.1,1.1l0,0c0,0-4.9,0.3-9.7,5.7c-5.3,5.9-11.3,18.9-9.5,47.1C166,344.8,165.5,345.4,164.9,345.4
				C164.9,345.4,164.9,345.4,164.9,345.4z"/>
		</g>
		<g>
			<path class="st5" d="M262.3,317.5c-0.4,0-0.8-0.2-1-0.6c-9.2-19.9-20.8-32-34.3-36c-15.2-4.5-27.5,3.1-27.6,3.1
				c-0.5,0.3-1.2,0.2-1.5-0.3c-0.3-0.5-0.2-1.2,0.3-1.5c0.5-0.3,13.3-8.2,29.4-3.4c14.2,4.2,26.2,16.7,35.7,37.2
				c0.3,0.6,0,1.2-0.5,1.5C262.6,317.5,262.4,317.5,262.3,317.5z"/>
		</g>
		<g>
			<path class="st5" d="M60,321.7c-0.2,0-0.3,0-0.5-0.1c-0.6-0.3-0.8-0.9-0.5-1.5c32.4-71.7,97.5-44.4,98.2-44.1
				c0.6,0.2,0.8,0.9,0.6,1.5c-0.2,0.6-0.9,0.8-1.4,0.6c-0.6-0.3-63.8-26.7-95.3,43C60.8,321.4,60.4,321.7,60,321.7z"/>
		</g>
		<g>
			<g>
				<path class="st5" d="M372.5,443.7c-26.1,0-49.3-15.1-49.6-15.3c-1-0.7-1.3-2-0.6-3.1c0.7-1,2-1.3,3.1-0.6
					c0.4,0.3,44.4,28.8,77.3,5.4c12.2-8.7,19.2-18.9,20.7-30.2c1.8-13.2-4.4-24.9-8.3-29.7c-6-7.4-19.8-15.3-33.2-6.9
					c-5,3.1-7.8,8.5-7.6,14.6c0.3,11.7,10.3,23.8,27.4,33.4c1.1,0.6,1.4,1.9,0.9,3c-0.6,1.1-1.9,1.4-3,0.9
					c-18.5-10.3-29.3-23.8-29.6-37.1c-0.2-7.8,3.3-14.5,9.7-18.5c15.8-9.9,32-0.7,39,7.9c1.2,1.5,11.7,15,9.3,33.1
					c-1.7,12.6-9.3,23.8-22.6,33.2C394.8,441,383.4,443.7,372.5,443.7z"/>
			</g>
			<g>
				<path class="st5" d="M377.4,426.5c-19,0-41.9-16.8-42.9-17.6c-1-0.7-1.2-2.1-0.4-3.1c0.7-1,2.1-1.2,3.1-0.4
					c0.3,0.2,27.6,20.4,45.5,16.2c7.2-1.7,14.2-6,19.2-11.7c-5.1-4.1-18.7-16-19.4-25.7c-0.4-5.8,3.9-11.1,10.4-12.7
					c6.1-1.5,14.8,0.2,19.4,10.2c3.1,6.6,2.6,14.6-1.2,22.3c-1.1,2.2-2.4,4.4-4,6.4c-0.1,0.2-0.2,0.4-0.3,0.6
					c-0.2,0.2-0.3,0.4-0.5,0.5c-5.8,7.1-14,12.5-22.7,14.5C381.6,426.3,379.6,426.5,377.4,426.5z M396.9,375.3c-1,0-2,0.1-2.9,0.4
					c-3.6,0.9-7.4,3.9-7.1,8.2c0.5,7.3,11.7,17.7,17.7,22.5c1-1.4,1.8-2.9,2.6-4.4c3.2-6.5,3.6-13.1,1.1-18.5
					C405.5,377.4,401,375.3,396.9,375.3z"/>
			</g>
			<g>
				<path class="st5" d="M453.8,429.8c-19.4,0-35.4-8.7-35.6-8.9c-1.1-0.6-1.4-1.9-0.8-3c0.6-1.1,1.9-1.4,3-0.9
					c0.1,0.1,12.4,6.8,28,8.2c20.6,1.8,37.2-6.3,49.1-23.9c0.7-1,2.1-1.3,3.1-0.6c1,0.7,1.3,2.1,0.6,3.1
					C487.3,424.1,469.4,429.8,453.8,429.8z"/>
			</g>
		</g>
		<g>
			<g>
				<path class="st5" d="M149.5,231.2c-5.9,0-11.7-3.4-17.3-10.1c-9-10.9-15.5-18-23-18c-4.1,0-8.9,2.1-14.9,6.5
					c-0.9,0.7-2.1,0.5-2.9-0.3c-0.8-0.8-0.8-2.1-0.1-2.9c12.5-15.3,31.5-25.6,47.3-25.6c7.9,0,14.8,2.4,20.4,7.3
					c19.8,17,10.6,28.1,3.3,37.1C162,225.4,157.2,231.2,149.5,231.2z M109.2,198.7c9.4,0,16.6,7.8,26.4,19.6
					c4.7,5.7,9.4,8.5,13.9,8.5c5.6,0,9.2-4.4,9.2-4.4c7.4-9,13.8-16.7-2.7-31c-4.8-4.1-10.6-6.2-17.5-6.2c-10.8,0-23.4,5.4-33.9,14
					C106.2,198.9,107.7,198.7,109.2,198.7z"/>
			</g>
			<g>
				<path class="st5" d="M172.4,225.3c-0.4,0-0.8,0-1.2-0.1c-6-0.5-12.6-5.1-18.8-13.2c-9.4-12.1-24.3-14.1-24.5-14.1
					c-0.6-0.1-1-0.6-1-1.2c0.1-0.6,0.6-1.1,1.2-1c0.6,0.1,16,2.1,25.9,14.9c5.8,7.5,12,11.9,17.3,12.4c2.9,0.3,5.6-0.7,7.9-2.7
					c0.4-0.4,1.1-0.4,1.6,0.1c0.4,0.4,0.4,1.1-0.1,1.6C178.3,224.1,175.5,225.3,172.4,225.3z"/>
			</g>
		</g>
		<g>
			<g>
				<path class="st5" d="M188.8,480c-2.2,0-4.7-0.2-7.9-0.7c-8.4-1.2-13.6-11.6-17.5-19.2l-0.6-1.1c-3.8-7.4-3.1-37.1-3-43
					c0-1.1,0.6-2.1,1.5-2.7c0.9-0.6,2-0.7,3-0.3c0.2,0.1,23.7,8.8,47.7,1.4c1.7-0.5,3.6,0.4,4.1,2.2c0.5,1.7-0.4,3.6-2.2,4.1
					c-0.6,0.2-1.2,0.4-1.8,0.5c0,0.1,0,0.2,0,0.3c-1.8,35.9-6.9,54.7-15.6,57.3C193.9,479.6,191.6,480,188.8,480z M166.4,420.5
					c-0.2,13.1,0.3,31.3,2.4,35.4l0.6,1.2c3,6,7.5,14.9,12.5,15.7c6.8,1,9.2,0.8,12.9-0.3c0.3-0.1,8.3-3,10.8-49.8
					C188.7,425.7,173.6,422.5,166.4,420.5z"/>
			</g>
			<g>
				
					<rect x="181.7" y="442.1" transform="matrix(0.3242 -0.946 0.946 0.3242 -313.223 484.8954)" class="st5" width="2.2" height="39.2"/>
			</g>
		</g>
		<g>
			<g>
				<path class="st3" d="M261.4,391.9l3.8-11.7l0.3-12.4l-2.3-9.9l-2.8-5.8l-6.3-7.1l-8.1-5.8l-11.6-6.4c-0.9,0.1-1.8,0.2-2.7,0.4
					c-20.9,4.2-20.9,23.5-17.1,37.2c3.8,13.7,6.6,38.4,29.1,37.3c1.9-0.1,3.8-0.3,5.7-0.6l0.7-0.6L261.4,391.9z"/>
				<path class="st4" d="M279,356.2c-6-13.1-24.6-26.1-44.6-23.5l11.6,6.4l8.1,5.8l6.3,7.1l2.8,5.8l2.3,9.9l-0.3,12.4l-3.8,11.7
					L250,406.4l-0.7,0.6C270.4,403.4,292.5,385.8,279,356.2z"/>
			</g>
			<polygon class="st6" points="213.7,367.8 222.1,356.4 227.2,352.8 240.1,352.3 254.8,358.9 261.4,368.8 263.5,377.2 260.2,386.8 
				256.4,395.4 251.5,399.3 246.2,401.8 239.6,402 229.2,398.2 218.8,388.1 			"/>
			<g>
				<path class="st3" d="M139.6,340.5c-4.2-3.7-8.4-5.7-12.4-6.6l-8.3,3.3l-8.6,6.6l-7.9,10.7l-3.1,11.9l-1.7,8.1l0.9,7.9l1.8,6.6
					l4.2,8.1l12.6,11c10.1-0.5,19.5-6.8,27.6-17C152.9,380.8,165,363,139.6,340.5z"/>
				<path class="st4" d="M100.3,389l-1.8-6.6l-0.9-7.9l1.7-8.1l3.1-11.9l7.9-10.7l8.6-6.6l8.3-3.3c-20.4-4.4-37.5,22.1-37.5,22.1
					s-17,25.1,2.5,42c8.6,7.4,17,10.5,24.9,10.1l-12.6-11L100.3,389z"/>
			</g>
			<polygon class="st6" points="150.9,382.1 148.2,367 142.5,361.2 135.8,356.4 122.5,352.5 114.6,354.8 108.6,361.7 103.4,371.5 
				101.1,379.2 102.2,384.9 105.7,391.8 112.3,397.4 121.6,400.8 131.5,402.9 			"/>
			<g>
				<path class="st5" d="M242.2,410.9C242.2,410.9,242.2,410.9,242.2,410.9c-21.1,0-26.1-20.7-29.5-34.4c-0.5-1.9-0.9-3.7-1.3-5.3
					c-1.9-6.9-4.2-20,2-29.9c3.6-5.9,9.6-9.8,17.7-11.4c2.8-0.6,5.6-0.8,8.5-0.8c19.9,0,36.7,13.3,42.4,25.8
					c7.6,16.5,4,28.5-0.3,35.6c-8.6,14.1-25.8,19.9-37.9,20.5C243.3,410.9,242.7,410.9,242.2,410.9z M239.5,335.6
					c-2.4,0-4.8,0.2-7.2,0.7c-6.2,1.3-10.7,4.1-13.4,8.4c-4.8,7.8-2.8,18.9-1.2,24.7c0.5,1.7,0.9,3.5,1.4,5.5
					c3.9,16.1,8.3,29.4,23,29.4h0c0.4,0,0.9,0,1.3,0c11.3-0.6,25.8-6.1,32.6-17.3c5-8.3,5-18.2-0.1-29.4
					C271,346.8,256,335.6,239.5,335.6z"/>
			</g>
			<g>
				<path class="st5" d="M240.6,407.8c-3.3,0-7-0.8-11.1-2.9l1-2c7.4,3.9,14.7,3.5,20.9-1c9.8-7.1,15.2-22.9,12.9-37.7
					c-3.7-23-32.6-30-32.9-30l0.5-2.1c0.3,0.1,30.7,7.4,34.6,31.8c2.5,15.5-3.3,32.3-13.8,39.8C249.8,405.8,245.7,407.8,240.6,407.8
					z"/>
			</g>
			<g>
				<path class="st5" d="M242.5,403.5c-11.1,0-20.9-9.5-24.6-18.4c-3.5-8.6-3.6-12.9-3.6-13.1c0-0.3,0.9-21.5,19-21.5l0.6,0
					c9.9,0.3,19.2,4.7,24.8,11.8c4.2,5.3,5.8,11.3,4.6,17.1c-3.2,15.7-10,23.8-20.2,24.2C242.9,403.5,242.7,403.5,242.5,403.5z
					 M216.4,371.9c0,0,0.1,4.2,3.5,12.3c3.5,8.4,12.9,17.1,22.6,17.1l0.6,0c9.2-0.3,15.1-7.7,18.1-22.4c1-5.1-0.5-10.6-4.2-15.3
					c-5.2-6.6-13.9-10.7-23.2-10.9l-0.6,0C217.2,352.6,216.5,371.1,216.4,371.9L216.4,371.9z"/>
			</g>
			<g>
				<path class="st5" d="M236.1,381.7L236.1,381.7c-2.6,0-4.8-1.8-5.4-4.4c-0.3-1.4,0-2.9,0.8-4.1c0.8-1.2,2-2.1,3.5-2.4
					c2.9-0.6,5.9,1.3,6.5,4.2c0.3,1.4,0,2.9-0.8,4.1c-0.8,1.2-2,2.1-3.5,2.4C236.9,381.7,236.5,381.7,236.1,381.7z"/>
			</g>
			<g>
				<path class="st5" d="M128.8,386.9L128.8,386.9c-1.2,0-2.3-0.3-3.3-1c-1.3-0.9-2.2-2.2-2.6-3.8c-0.3-1.6,0-3.2,0.9-4.5
					c1.8-2.7,5.6-3.5,8.3-1.7c2.8,1.8,3.5,5.6,1.7,8.3C132.6,385.9,130.8,386.9,128.8,386.9z"/>
			</g>
			<g>
				<path class="st5" d="M115.7,411.5L115.7,411.5c-8.6,0-17.3-3.7-25.7-11c-17.2-14.9-9.6-36.8-3.1-46.4
					c0.6-0.9,15.8-24.1,35.7-24.1c6.8,0,13.2,2.7,19.2,7.9c25.6,22.6,16.4,41.4,5.5,55.2C137.8,405.2,126.9,411.5,115.7,411.5z
					 M122.6,336.7c-16.3,0-30,20.9-30.2,21.1c-0.7,1-15.1,23,1.9,37.7c7.2,6.2,14.3,9.3,21.4,9.3c9.1,0,18.2-5.4,26.4-15.7
					c6.8-8.6,19.5-24.7-4.7-46.1C132.7,338.8,127.7,336.7,122.6,336.7z"/>
			</g>
			<g>
				<path class="st5" d="M117.7,408.6c-19-11.1-25-27.9-17.9-49.8c7.7-23.8,29-25.3,29.2-25.4l0.1,2.2c-0.8,0-20,1.5-27.2,23.8
					c-6.8,20.9-1.1,36.8,16.9,47.3L117.7,408.6z"/>
			</g>
			<g>
				<path class="st5" d="M132.4,403.7c-12.9-0.9-22.1-4.7-27.5-11.3c-5.7-6.9-4.8-14.3-4.8-14.6c1-4.8,5.4-18.4,14.4-23.9
					c3.9-2.4,8.1-3,12.6-1.7c11.3,3.2,18.7,8.2,22.1,15.1c2.8,5.7,2.8,12.5-0.2,20.2l-2.1-0.8c2.8-7.1,2.9-13.3,0.3-18.5
					c-3.1-6.3-10.1-11-20.8-13.9c-3.9-1.1-7.5-0.6-10.9,1.4c-8.3,5.1-12.5,18.2-13.3,22.4l0,0c0,0-0.8,6.8,4.3,12.9
					c5,6,13.7,9.6,25.9,10.4L132.4,403.7z"/>
			</g>
		</g>
	</g>
</g>
</svg>
