<?xml version="1.0" encoding="utf-8"?>
<!-- Generator: Adobe Illustrator 25.4.1, SVG Export Plug-In . SVG Version: 6.00 Build 0)  -->
<svg version="1.1" xmlns="http://www.w3.org/2000/svg" xmlns:xlink="http://www.w3.org/1999/xlink" x="0px" y="0px"
	 viewBox="0 0 500 500" style="enable-background:new 0 0 500 500;" xml:space="preserve">
<style type="text/css">
	.st0{fill:#152B39;}
	.st1{fill:#42D0DC;}
	.st2{fill:#1AACC4;}
	.st3{fill:#FDC905;}
	.st4{fill:#DA9702;}
	.st5{fill:#AE7401;}
	.st6{fill:#EDEBEB;}
</style>
<g id="Layer_1">
</g>
<g id="obj">
	<g>
		<path class="st0" d="M450,404.6c-16.7,0-28.3-6.3-28.9-6.6c-1-0.5-1.3-1.8-0.8-2.7c0.5-1,1.8-1.3,2.7-0.8
			c0.2,0.1,18.6,10.1,41.9,4.3c1.1-0.3,2.2,0.4,2.4,1.5c0.3,1.1-0.4,2.2-1.5,2.4C460.3,404.1,454.9,404.6,450,404.6z"/>
	</g>
	<g>
		<g>
			<polygon class="st1" points="73.8,468.3 66.2,461.7 57.1,461 46.1,465.7 32.8,477.5 25.1,482.5 8.8,483.5 12,489 37.8,501.3 
				52.9,501.3 67.7,494.5 76.2,485.8 79.4,477.7 			"/>
			<polygon class="st1" points="191.7,213.3 197.5,205.3 194.4,194.6 183.7,184.1 173.8,180.7 160.1,180.9 143.1,188.3 130.7,199 
				140.9,196.8 146.8,197 155.3,203.5 167.6,217.2 175.5,221.8 185.8,220.2 			"/>
			<path class="st2" d="M346.9,384.2l24.4,12.4l14.7,2.7l10.7-1.7l12.5-9l8.5-14.3l-1.5-13.3l-9-7c0,0-9.9-0.6-12.5,3.4
				s1.5,13.8,1.5,13.8l13.5,13.9l-2.9,4.1l-19-14.4l-6.8-19.5l6.5-12.3l13.2-4.8l9,2.1l8.5,4.3l8.1,11.5l3.6,12.8l-1.4,14.3l-5.3,12
				l-14.7,12.4l-14,6.6l-17.8,0.9l-21.2-4.5l-18-9.3L346.9,384.2z"/>
			<polygon class="st2" points="183.3,276.9 234.8,291.7 225.3,242.9 233.6,223.9 247.2,215.6 261.2,216.8 271.2,223.3 275.1,234 
				285.4,236.5 282.2,220.1 274.2,208.8 260,198.5 240.7,196.4 217.3,204.4 203.1,221 			"/>
			<polygon class="st3" points="221.6,270.1 225.3,244.6 260,234.9 285.4,236.5 305.4,242.2 326.8,257.3 342.2,280 352.2,323.7 
				347.2,377.9 323.1,419.6 283.4,448.7 239.3,464.4 187.8,468.4 128.4,453.7 91.6,426.3 56.9,380.9 47.2,347.8 51.9,303 
				72.9,261.6 101,240.9 139.4,231.5 196.5,239.2 193.5,265.6 197.1,271.6 206.9,276.3 			"/>
		</g>
		<polygon class="st4" points="164.3,433.3 181.5,420.9 262.8,420.8 265.2,429 		"/>
		<polygon class="st5" points="267.7,398.9 261.1,415.3 262.8,420.8 179.3,420.9 206.2,407.3 234.4,397.6 255.5,396.1 		"/>
		<g>
			<polygon class="st4" points="217.8,364.6 221.6,370.2 222,376.7 218.2,381.4 207.3,382.5 200.9,377.5 			"/>
			<polygon class="st5" points="216.8,364.5 216.6,369.6 213.1,375 207.4,377.3 201.7,376.1 202.6,366.8 			"/>
		</g>
		<g>
			<path class="st0" d="M199,469.7c-0.1,0-0.2,0-0.4,0c-41.5-7.8-49.8-46.4-51.2-119.6c-1.4-75.2,52.9-79.1,53.4-79.1
				c1.1-0.1,2,0.8,2.1,1.9s-0.8,2-1.9,2.1c-2.1,0.1-51,3.8-49.7,75c1.3,72.6,8.9,108.4,47.9,115.7c1.1,0.2,1.8,1.3,1.6,2.3
				C200.8,469.1,200,469.7,199,469.7z"/>
		</g>
		<g>
			<path class="st0" d="M208.6,278.4c-1,0-2-0.1-3.1-0.3c-5.3-0.9-9.8-4.1-13.2-9.6L192,268l-0.1-0.7c-0.1-0.6-6.9-63.5,43.8-73.5
				c14.3-2.8,26.2-0.7,35.4,6.4c16,12.3,17.6,34.9,17.6,35.8c0.1,1.7-1.2,3.1-2.8,3.2c-1.6,0.1-3.1-1.1-3.2-2.8
				c0-0.2-1.5-20.9-15.3-31.5c-7.7-5.9-18-7.7-30.5-5.2c-42.6,8.4-39.7,59.7-39.1,66.2c2.4,3.6,5.4,5.7,8.7,6.3
				c5.2,0.9,10.4-1.9,12.7-3.3c-0.4-9-0.5-48.8,25.3-56.5c8.7-2.6,16.2-2,22.2,1.8c10.1,6.4,12.2,19.3,12.3,19.9
				c0.3,1.6-0.9,3.2-2.5,3.4c-1.6,0.3-3.2-0.9-3.4-2.5l0,0c0-0.1-1.8-10.8-9.6-15.7c-4.5-2.8-10.3-3.2-17.2-1.1
				c-23.8,7.2-20.9,51.6-20.9,52.1l0.1,1.6l-1.3,1C223.8,273.1,216.9,278.4,208.6,278.4z"/>
		</g>
		<g>
			<path class="st0" d="M204,470.8c-45.6,0-104.1-15-144.9-79.8c-23.8-37.7-20.2-93.1,8.4-128.9c28.7-36,76.4-45.6,131-26.4
				c2.1,0.7,3.2,3,2.5,5.1c-0.7,2.1-3,3.2-5.1,2.5c-70-24.6-106.5,4.4-122,23.9c-26.5,33.2-29.9,84.6-7.8,119.6
				c33.9,53.7,84,79.2,148.9,75.8c47.8-2.5,93.8-27.5,117.2-63.6c23.7-36.7,26.8-116.2-17.6-146.7c-44.3-30.5-87.1-4.3-87.5-4.1
				c-1.9,1.2-4.4,0.6-5.5-1.3c-1.2-1.9-0.6-4.3,1.3-5.5c0.5-0.3,47.7-29.2,96.3,4.3c22.2,15.3,35.6,42.7,37.8,77.2
				c1.8,29.6-5.1,60.4-18,80.5c-24.7,38.2-73.2,64.6-123.5,67.3C211.6,470.7,207.8,470.8,204,470.8z"/>
		</g>
		<g>
			<path class="st0" d="M260.7,430.2c-7.4,14.6-19.2,26.4-37.6,33.5c-1,0.4-1.5,1.6-1.1,2.6c0.3,0.8,1.1,1.3,1.9,1.3
				c0.2,0,0.5,0,0.7-0.1c20.5-7.9,33.3-21.2,40.9-37.7C264.1,429.7,262.5,430.3,260.7,430.2z"/>
			<path class="st0" d="M297,267.2c-19.1-17-38.5-15.6-51.5-11.4c-13.9,4.5-23.3,12.8-23.7,13.1l-2.8,2.5l3.7,0.9
				c1.6,0.4,39.3,10.1,45.6,59.7c2.8,22.2,4.5,45.1,1.8,65.7c1.6,0.3,2.8,1,3.8,1.8c2.9-21.3,1.2-45-1.7-68
				c-5.5-43.1-34.6-57.9-45-61.9c9.1-6.7,38.8-24.7,67.1,0.5c19,16.9,30.9,52.8,28.9,87.4c-2.2,39.1-20.7,72.9-52.2,95.3
				c-0.9,0.6-1.1,1.9-0.5,2.8c0.6,0.9,1.9,1.1,2.8,0.5c32.5-23.1,51.7-58,53.9-98.3C329.3,321.5,317.1,285.1,297,267.2z"/>
		</g>
		<g>
			<path class="st0" d="M150.7,461.5c-0.4,0-0.8-0.1-1.1-0.4c-0.5-0.4-51.7-37-40.9-126.7c3.5-29.5,14.2-50.3,31.7-61.8
				c16.1-10.6,34.1-10.8,45-9.5c-14.4-8.1-45.4-19.7-77.1,4.5c-17.2,13.2-27.5,33.9-29.7,60c-3.6,42.6,14.8,90,34.6,111.2
				c0.8,0.8,0.7,2.1-0.1,2.8c-0.8,0.8-2.1,0.7-2.8-0.1C89.8,419.7,70.9,371,74.6,327.3c2.3-27.2,13.1-48.9,31.2-62.8
				c45-34.3,89.9,0.6,90.3,1l8,6.4l-9.8-2.9c-0.3-0.1-28.7-8.2-51.8,7.1c-16.4,10.8-26.5,30.6-29.9,58.9
				c-10.4,87.3,38.7,122.6,39.2,122.9c0.9,0.6,1.1,1.9,0.5,2.8C151.9,461.2,151.3,461.5,150.7,461.5z"/>
		</g>
		<g>
			<path class="st0" d="M222.3,271.4c-0.1,0-0.3,0-0.4-0.1c-0.5-0.2-0.8-0.8-0.5-1.3c0.2-0.4,4.6-11.1,16.5-18.9
				c10.9-7.2,30.5-13,61.5-0.3c0.5,0.2,0.8,0.8,0.5,1.3c-0.2,0.5-0.8,0.8-1.3,0.5c-23.9-9.8-44.5-9.7-59.6,0.2
				c-11.4,7.4-15.7,17.8-15.8,17.9C223.1,271.2,222.7,271.4,222.3,271.4z"/>
		</g>
		<g>
			<path class="st0" d="M223,261.8c-0.2,0-0.5,0-0.7-0.1c-1-0.4-1.5-1.6-1.1-2.6c0.4-0.9,9.2-22.8,44.2-27.4
				c1.1-0.2,2.1,0.6,2.2,1.7c0.1,1.1-0.6,2.1-1.7,2.2c-17,2.2-27.2,8.9-32.8,14c-6,5.6-8.1,10.8-8.1,10.8
				C224.6,261.3,223.8,261.8,223,261.8z"/>
		</g>
		<g>
			<path class="st0" d="M194.6,257.4c-0.7,0-1.4-0.4-1.7-1c-0.1-0.2-12-20.1-38.1-24.8c-1.1-0.2-1.8-1.2-1.6-2.3s1.2-1.8,2.3-1.6
				c27.9,5.1,40.3,25.9,40.8,26.7c0.6,1,0.2,2.2-0.7,2.7C195.3,257.3,194.9,257.4,194.6,257.4z"/>
		</g>
		<g>
			<path class="st0" d="M193.6,262.8c-0.2,0-0.5-0.1-0.7-0.3c-0.5-0.4-47.5-41.8-90.5-6.2c-0.4,0.4-1.1,0.3-1.4-0.1
				c-0.4-0.4-0.3-1.1,0.1-1.4c44.4-36.7,92.6,5.8,93.1,6.2c0.4,0.4,0.4,1,0.1,1.4C194.1,262.7,193.9,262.8,193.6,262.8z"/>
		</g>
		<g>
			<path class="st0" d="M137.8,307.8c-0.1,0-0.2,0-0.3-0.1c-0.5-0.2-0.8-0.7-0.6-1.3c13.4-39.6,59.1-37.2,59.6-37.2
				c0.6,0,1,0.5,0.9,1.1c0,0.6-0.5,1-1.1,0.9c-0.4,0-44.7-2.3-57.6,35.8C138.6,307.5,138.2,307.8,137.8,307.8z"/>
		</g>
		<g>
			<path class="st0" d="M193.3,326.7c-0.5,0-1-0.4-1-0.9c-1.6-26.4,4.1-38.7,9.3-44.4c4.9-5.5,10-5.8,10.2-5.8c0.5,0,1,0.4,1,1
				c0,0.6-0.4,1-1,1l0,0c0,0-4.5,0.3-8.9,5.2c-4.8,5.4-10.3,17.2-8.7,42.8C194.3,326.2,193.9,326.6,193.3,326.7
				C193.4,326.7,193.3,326.7,193.3,326.7z"/>
		</g>
		<g>
			<path class="st0" d="M281.9,301.3c-0.4,0-0.7-0.2-0.9-0.6c-8.4-18.1-18.9-29.1-31.2-32.8c-13.8-4.1-25.1,2.8-25.2,2.8
				c-0.5,0.3-1.1,0.1-1.4-0.3c-0.3-0.5-0.2-1.1,0.3-1.4c0.5-0.3,12.1-7.4,26.8-3.1c12.9,3.8,23.8,15.2,32.5,33.8
				c0.2,0.5,0,1.1-0.5,1.3C282.2,301.3,282,301.3,281.9,301.3z"/>
		</g>
		<g>
			<path class="st0" d="M98,305.1c-0.1,0-0.3,0-0.4-0.1c-0.5-0.2-0.7-0.8-0.5-1.3c29.5-65.2,88.7-40.4,89.3-40.2
				c0.5,0.2,0.7,0.8,0.5,1.3c-0.2,0.5-0.8,0.7-1.3,0.5c-0.6-0.3-58-24.3-86.7,39.1C98.7,304.8,98.3,305.1,98,305.1z"/>
		</g>
		<g>
			<g>
				<path class="st0" d="M382.2,416c-23.7,0-44.8-13.7-45.1-13.9c-0.9-0.6-1.2-1.9-0.6-2.8c0.6-0.9,1.9-1.2,2.8-0.6
					c0.4,0.3,40.4,26.2,70.3,4.9c11.1-7.9,17.5-17.2,18.9-27.5c1.6-12-4-22.6-7.6-27c-5.5-6.7-18-13.9-30.2-6.3
					c-4.6,2.9-7.1,7.7-6.9,13.3c0.3,10.6,9.4,21.7,24.9,30.3c1,0.5,1.3,1.8,0.8,2.7c-0.5,1-1.8,1.3-2.7,0.8
					c-16.8-9.4-26.6-21.7-27-33.7c-0.2-7.1,3-13.2,8.8-16.8c14.4-9,29.1-0.7,35.4,7.1c1.1,1.4,10.7,13.7,8.4,30.1
					c-1.5,11.5-8.5,21.6-20.5,30.2C402.4,413.6,392.1,416,382.2,416z"/>
			</g>
			<g>
				<path class="st0" d="M386.7,400.4c-17.3,0-38.1-15.3-39-16c-0.9-0.7-1.1-1.9-0.4-2.8c0.7-0.9,1.9-1.1,2.8-0.4
					c0.2,0.2,25.1,18.5,41.4,14.7c6.6-1.5,12.9-5.5,17.5-10.7c-4.7-3.8-17-14.5-17.6-23.4c-0.4-5.3,3.5-10.1,9.4-11.6
					c5.5-1.4,13.5,0.2,17.7,9.3c2.8,6,2.4,13.3-1.1,20.3c-1,2-2.2,4-3.6,5.8c-0.1,0.2-0.2,0.4-0.3,0.5c-0.1,0.2-0.3,0.3-0.5,0.5
					c-5.3,6.4-12.8,11.3-20.6,13.2C390.5,400.2,388.6,400.4,386.7,400.4z M404.3,353.8c-0.9,0-1.8,0.1-2.7,0.3
					c-3.3,0.8-6.7,3.5-6.4,7.4c0.5,6.6,10.6,16.1,16.1,20.5c0.9-1.3,1.7-2.6,2.3-4c2.9-5.9,3.3-11.9,1-16.9
					C412.2,355.7,408.1,353.8,404.3,353.8z"/>
			</g>
			<g>
				<path class="st0" d="M456.1,403.4c-17.7,0-32.2-7.9-32.4-8.1c-1-0.5-1.3-1.8-0.8-2.7c0.5-1,1.8-1.3,2.7-0.8
					c0.1,0.1,11.3,6.2,25.5,7.4c18.8,1.6,33.8-5.7,44.7-21.8c0.6-0.9,1.9-1.2,2.8-0.5c0.9,0.6,1.2,1.9,0.5,2.8
					C486.6,398.2,470.3,403.4,456.1,403.4z"/>
			</g>
		</g>
		<g>
			<g>
				<path class="st0" d="M179.4,222.8c-5.4,0-10.7-3.1-15.7-9.2c-8.2-9.9-14.1-16.4-20.9-16.4c-3.8,0-8.1,1.9-13.6,5.9
					c-0.8,0.6-1.9,0.5-2.6-0.2c-0.7-0.7-0.7-1.9-0.1-2.6c11.4-13.9,28.7-23.3,43-23.3c7.2,0,13.4,2.2,18.5,6.6
					c18,15.5,9.7,25.6,3,33.7C190.7,217.5,186.3,222.8,179.4,222.8z M142.7,193.2c8.6,0,15.1,7.1,24,17.8c4.3,5.1,8.5,7.8,12.7,7.8
					c5.1,0,8.3-4,8.4-4c6.7-8.2,12.5-15.2-2.5-28.2c-4.3-3.7-9.7-5.6-15.9-5.6c-9.8,0-21.3,4.9-30.9,12.8
					C139.9,193.4,141.3,193.2,142.7,193.2z"/>
			</g>
			<g>
				<path class="st0" d="M200.2,217.4c-0.3,0-0.7,0-1.1,0c-5.5-0.5-11.4-4.6-17.1-12c-8.5-11-22.1-12.8-22.2-12.8
					c-0.6-0.1-0.9-0.6-0.9-1.1c0.1-0.6,0.6-0.9,1.1-0.9c0.6,0.1,14.6,1.9,23.6,13.6c5.3,6.8,10.9,10.8,15.7,11.2
					c2.7,0.2,5.1-0.6,7.2-2.5c0.4-0.4,1-0.3,1.4,0.1c0.4,0.4,0.3,1-0.1,1.4C205.6,216.4,203,217.4,200.2,217.4z"/>
			</g>
		</g>
		<g>
			<g>
				<path class="st0" d="M46.9,502C46.9,502,46.9,502,46.9,502c-18.4,0-37-12.1-48.2-23.4c-0.7-0.7-0.8-1.9-0.2-2.7
					c0.6-0.8,1.7-1,2.6-0.5c6,3.6,11.1,5.4,15.6,5.4c8.5,0,15.5-6.1,25.1-15.5c5.9-5.7,11.9-8.6,18-8.6c7.8,0,12.6,4.8,12.8,5
					c6.1,6.1,8.7,11.8,7.9,17.5c-0.8,6.4-5.9,12.3-15.2,17.7C60,500.4,53.7,502,46.9,502z M11.3,484.2c10.1,7.6,23,13.8,35.7,13.8
					c0,0,0,0,0,0c6.1,0,11.6-1.5,16.5-4.3c8.1-4.8,12.6-9.7,13.2-14.8c0.6-4.4-1.7-9-6.8-14.2c0,0-3.9-3.9-10-3.9
					c-5,0-10.1,2.5-15.2,7.4c-10.4,10-17.9,16.6-27.9,16.6h0C15,484.8,13.2,484.6,11.3,484.2z"/>
			</g>
			<g>
				<path class="st0" d="M37.2,487.7c-0.5,0-0.9-0.4-1-0.9c-0.1-0.6,0.3-1,0.9-1.1c0.2,0,16-1.7,25.9-12.3
					c10.6-11.3,21.7-14.6,29.6-8.6c0.4,0.3,0.5,1,0.2,1.4c-0.3,0.4-1,0.5-1.4,0.2c-7-5.3-17.1-2.1-26.9,8.4
					c-10.4,11.1-26.5,12.9-27.2,12.9C37.2,487.7,37.2,487.7,37.2,487.7z"/>
			</g>
		</g>
		<g>
			<g>
				<path class="st0" d="M210.3,385L210.3,385c-7.1,0-11.4-3.4-11.7-9.4c-0.8-12.3,8.3-13.3,11.2-13.7c8.5-1,14,3.2,14.6,11.3
					c0.5,7.4-6.2,10.7-9.8,11.4C214.5,384.6,212.7,385,210.3,385z M212.2,365.8c-0.6,0-1.3,0-2,0.1c-4.2,0.5-8.2,1.6-7.7,9.5
					c0.1,1.4,0.3,5.6,7.7,5.6c1.9,0,3.4-0.3,3.4-0.3c0.3-0.1,7-1.5,6.6-7.2C220,368.3,217.3,365.8,212.2,365.8z"/>
			</g>
			<g>
				<path class="st0" d="M210.3,385L210.3,385c-7.1,0-11.4-3.4-11.7-9.4c-0.8-12.3,8.3-13.3,11.2-13.7c8.5-1,14,3.2,14.6,11.3
					c0.5,7.4-6.2,10.7-9.8,11.4C214.5,384.6,212.7,385,210.3,385z M212.2,365.8c-0.6,0-1.3,0-2,0.1c-4.2,0.5-8.2,1.6-7.7,9.5
					c0.1,1.4,0.3,5.6,7.7,5.6c1.9,0,3.4-0.3,3.4-0.3c0.3-0.1,7-1.5,6.6-7.2C220,368.3,217.3,365.8,212.2,365.8z"/>
			</g>
			<g>
				<path class="st0" d="M206.6,378.5c-3.4,0-5.5-1.9-5.7-2l1.3-1.5c0.1,0.1,3.4,2.9,8.1,0.5c4.5-2.3,6.1-5.6,4.9-10.2l1.9-0.5
					c1.5,5.5-0.6,9.8-5.9,12.5C209.6,378.2,208,378.5,206.6,378.5z"/>
			</g>
		</g>
		<g>
			<g>
				<g>
					<path class="st0" d="M154,442.7c-1,0-2-0.5-2.6-1.5c-0.7-1.2-0.5-2.8,0.6-3.8c0.7-0.7,17.9-16.1,42.2-28.7
						c32.6-16.9,62.1-20.2,85.4-9.5c1.5,0.7,2.2,2.5,1.5,4c-0.7,1.5-2.5,2.2-4,1.5c-38.2-17.5-84.7,10-107.4,26.4l96-4
						c0.6,0,1.3,0.1,1.8,0.5l10.8,7.2c1.4,0.9,1.8,2.8,0.8,4.2c-0.9,1.4-2.8,1.8-4.2,0.8l-10-6.6l-94.9,4l-15.1,5.4
						C154.7,442.6,154.3,442.7,154,442.7z"/>
				</g>
				<g>
					<polygon class="st0" points="264,430.6 259.2,414.9 265.8,398.3 269.5,399.7 263.5,415.1 267.8,429.5 					"/>
				</g>
			</g>
			<g>
				
					<rect x="219.4" y="379.2" transform="matrix(1.259386e-03 -1 1 1.259386e-03 -201.0014 641.0429)" class="st0" width="2" height="83.9"/>
			</g>
		</g>
		<g>
			<g>
				<path class="st5" d="M281.2,366.9l3.5-10.6l0.2-11.3l-2.1-9l-2.5-5.3l-5.8-6.5l-7.4-5.3l-10.5-5.8c-0.8,0.1-1.6,0.2-2.5,0.4
					c-19,3.8-19,21.4-15.6,33.9c3.4,12.5,6,34.9,26.5,33.9c1.7-0.1,3.4-0.3,5.1-0.6l0.7-0.6L281.2,366.9z"/>
				<path class="st4" d="M297.1,334.5c-5.5-11.9-22.4-23.8-40.5-21.4l10.5,5.8l7.4,5.3l5.8,6.5l2.5,5.3l2.1,9l-0.2,11.3l-3.5,10.6
					l-10.4,13.2l-0.7,0.6C289.3,377.4,309.4,361.4,297.1,334.5z"/>
			</g>
			<polygon class="st6" points="237.8,345 245.4,334.6 250,331.4 261.8,331 275.2,336.9 281.2,345.9 283,353.6 280,362.3 
				276.5,370.2 272.2,373.6 267.3,375.9 261.3,376.2 251.9,372.7 242.4,363.5 			"/>
			<g>
				<path class="st5" d="M170.3,320.2c-3.8-3.4-7.6-5.2-11.3-6l-7.6,3l-7.9,6l-7.2,9.7l-2.8,10.9l-1.5,7.3l0.8,7.2l1.7,6l3.8,7.3
					l11.4,10c9.2-0.5,17.7-6.1,25.1-15.4C182.4,356.8,193.5,340.7,170.3,320.2z"/>
				<path class="st4" d="M134.6,364.3l-1.7-6l-0.8-7.2l1.5-7.3l2.8-10.9l7.2-9.7l7.9-6l7.6-3c-18.6-4-34.1,20.1-34.1,20.1
					s-15.4,22.8,2.3,38.2c7.8,6.8,15.4,9.6,22.6,9.2l-11.4-10L134.6,364.3z"/>
			</g>
			<polygon class="st6" points="180.6,358 178.1,344.3 173,339 166.9,334.6 154.8,331.1 147.6,333.2 142.2,339.5 137.4,348.4 
				135.3,355.4 136.3,360.6 139.5,366.8 145.6,372 153.9,375.1 163,377 			"/>
			<g>
				<path class="st0" d="M263.7,384.3C263.7,384.3,263.7,384.3,263.7,384.3c-19.2,0-23.8-18.8-26.8-31.3c-0.4-1.7-0.8-3.3-1.2-4.8
					c-1.7-6.3-3.8-18.2,1.8-27.2c3.3-5.4,8.7-8.9,16.1-10.4c2.5-0.5,5.1-0.8,7.7-0.8c18.1,0,33.4,12.1,38.6,23.5
					c6.9,15.1,3.7,25.9-0.2,32.3c-7.8,12.9-23.5,18.1-34.5,18.6C264.6,384.3,264.1,384.3,263.7,384.3z M261.2,315.8
					c-2.2,0-4.4,0.2-6.5,0.7c-5.7,1.1-9.8,3.7-12.2,7.6c-4.4,7.1-2.6,17.2-1.1,22.5c0.4,1.5,0.8,3.2,1.3,5
					c3.6,14.6,7.6,26.7,21,26.7h0c0.4,0,0.8,0,1.2,0c10.3-0.5,23.5-5.6,29.6-15.7c4.6-7.6,4.6-16.6-0.1-26.7
					C289.9,325.9,276.2,315.8,261.2,315.8z"/>
			</g>
			<g>
				<path class="st0" d="M262.2,381.4c-3,0-6.4-0.7-10.1-2.7l0.9-1.8c6.8,3.5,13.4,3.2,19-0.9c8.9-6.4,13.9-20.9,11.7-34.3
					c-3.3-20.9-29.7-27.2-29.9-27.3l0.5-2c0.3,0.1,27.9,6.7,31.4,28.9c2.2,14.1-3,29.3-12.5,36.2
					C270.6,379.6,266.8,381.4,262.2,381.4z"/>
			</g>
			<g>
				<path class="st0" d="M263.9,377.5c-10.1,0-19.1-8.6-22.4-16.8c-3.2-7.8-3.3-11.8-3.3-11.9c0-0.2,0.8-19.6,17.2-19.6l0.6,0
					c9,0.3,17.5,4.3,22.6,10.7c3.8,4.8,5.3,10.3,4.2,15.6c-2.9,14.3-9.1,21.7-18.3,22C264.3,377.5,264.1,377.5,263.9,377.5z
					 M240.2,348.8c0,0,0.1,3.8,3.1,11.2c3.1,7.6,11.7,15.5,20.5,15.5l0.5,0c8.3-0.3,13.7-7,16.4-20.4c1-4.7-0.4-9.6-3.8-13.9
					c-4.8-6-12.6-9.7-21.1-9.9l-0.5,0C240.9,331.2,240.2,348.1,240.2,348.8L240.2,348.8z"/>
			</g>
			<g>
				<path class="st0" d="M258.2,357.7L258.2,357.7c-2.3,0-4.4-1.7-4.9-4c-0.3-1.3,0-2.6,0.7-3.8c0.7-1.1,1.8-1.9,3.2-2.2
					c2.6-0.6,5.4,1.2,5.9,3.9c0.3,1.3,0,2.6-0.7,3.8c-0.7,1.1-1.8,1.9-3.2,2.2C258.9,357.7,258.5,357.7,258.2,357.7z"/>
			</g>
			<g>
				<path class="st0" d="M160.5,362.4L160.5,362.4c-1.1,0-2.1-0.3-3-0.9c-1.2-0.8-2-2-2.3-3.5c-0.3-1.4,0-2.9,0.8-4.1
					c1.6-2.4,5.1-3.1,7.6-1.5c2.5,1.7,3.2,5.1,1.5,7.6C164,361.5,162.3,362.4,160.5,362.4z"/>
			</g>
			<g>
				<path class="st0" d="M148.6,384.8L148.6,384.8c-7.9,0-15.7-3.4-23.4-10c-15.6-13.5-8.7-33.5-2.8-42.2
					c0.5-0.8,14.3-21.9,32.4-21.9c6.2,0,12,2.4,17.5,7.2c23.3,20.6,14.9,37.6,5,50.2C168.7,379,158.8,384.8,148.6,384.8z
					 M154.9,316.8c-14.8,0-27.3,19-27.4,19.2c-0.6,0.9-13.7,20.9,1.8,34.3c6.5,5.6,13,8.5,19.4,8.5c8.3,0,16.6-5,24-14.3
					c6.2-7.9,17.8-22.5-4.3-41.9C164,318.7,159.5,316.8,154.9,316.8z"/>
			</g>
			<g>
				<path class="st0" d="M150.4,382.1c-17.3-10.1-22.7-25.3-16.3-45.3c7-21.7,26.4-23.1,26.6-23.1l0.1,2c-0.7,0-18.2,1.3-24.8,21.7
					c-6.1,19-1,33.4,15.4,43L150.4,382.1z"/>
			</g>
			<g>
				<path class="st0" d="M163.8,377.7c-11.7-0.8-20.1-4.3-25-10.3c-5.2-6.3-4.4-13-4.3-13.3c0.9-4.4,4.9-16.7,13.1-21.7
					c3.5-2.2,7.4-2.7,11.5-1.5c10.2,2.9,17,7.5,20.1,13.7c2.6,5.2,2.5,11.4-0.2,18.4l-1.9-0.7c2.5-6.5,2.6-12.1,0.3-16.8
					c-2.8-5.7-9.2-10-18.9-12.7c-3.5-1-6.9-0.5-9.9,1.3c-7.5,4.6-11.4,16.5-12.1,20.3l0,0c0,0-0.7,6.1,3.9,11.8
					c4.5,5.5,12.5,8.7,23.6,9.5L163.8,377.7z"/>
			</g>
		</g>
	</g>
</g>
</svg>
