<?xml version="1.0" encoding="utf-8"?>
<!-- Generator: Adobe Illustrator 25.4.1, SVG Export Plug-In . SVG Version: 6.00 Build 0)  -->
<svg version="1.1" xmlns="http://www.w3.org/2000/svg" xmlns:xlink="http://www.w3.org/1999/xlink" x="0px" y="0px"
	 viewBox="0 0 500 500" style="enable-background:new 0 0 500 500;" xml:space="preserve">
<style type="text/css">
	.st0{fill:#42D0DC;}
	.st1{fill:#1AACC4;}
	.st2{fill:#FDC905;}
	.st3{fill:#152B39;}
</style>
<g id="Layer_1">
</g>
<g id="obj">
	<g>
		<g>
			<polygon class="st0" points="75.9,361.4 68.3,354.9 59.3,354.1 48.3,358.9 35,370.6 27.3,375.6 11,376.6 14.3,382.1 40,394.4 
				55,394.4 69.8,387.6 78.3,378.9 81.5,370.9 			"/>
			<polygon class="st0" points="193.5,107.2 199.3,99.2 196.1,88.5 185.5,78 175.6,74.7 162,74.8 145,82.2 132.7,92.8 142.8,90.7 
				148.6,90.8 157.1,97.3 169.5,111 177.3,115.7 187.6,114 			"/>
			<path class="st1" d="M348.2,277.6l24.3,12.3l14.7,2.7l10.7-1.7l12.5-9l8.5-14.2l-1.5-13.2l-9-7c0,0-9.9-0.6-12.5,3.4
				s1.5,13.7,1.5,13.7l13.5,13.9l-2.9,4.1l-19-14.4l-6.7-19.5l6.5-12.2l13.1-4.7l9,2.1l8.5,4.2l8.1,11.5l3.6,12.7l-1.4,14.2l-5.2,12
				l-14.6,12.4l-14,6.6l-17.7,0.9l-21.1-4.5l-18-9.2L348.2,277.6z"/>
			<polygon class="st1" points="185.1,170.6 236.5,185.4 227,136.6 235.3,117.7 248.9,109.5 262.7,110.6 272.8,117.1 276.6,127.8 
				286.9,130.3 283.7,113.9 275.7,102.7 261.6,92.3 242.4,90.3 219,98.2 204.9,114.8 			"/>
			<polygon class="st2" points="223.3,163.8 226.9,138.3 261.6,128.7 286.9,130.3 306.9,136 328.2,151 343.6,173.6 353.6,217.3 
				348.6,271.3 324.6,312.9 284.9,341.9 240.9,357.6 189.6,361.6 130.3,346.9 93.7,319.6 59,274.3 49.4,241.3 54,196.6 75,155.3 
				103,134.7 141.3,125.3 198.3,133 195.3,159.3 198.9,165.3 208.6,170 			"/>
		</g>
		<g>
			<g>
				<path class="st3" d="M202.7,362.8c-0.2,0-0.3,0-0.5-0.1c-36.5-9.3-42.2-91.3-43.1-116.2c-1.2-34.7,5.3-59,19.3-72.2
					c11.5-10.8,23.7-9.7,24.2-9.7c1.1,0.1,1.9,1.1,1.8,2.2c-0.1,1.1-1.1,1.9-2.2,1.8c-0.2,0-11.1-0.9-21.2,8.7
					c-12.9,12.2-19.1,36.1-17.9,69c1.8,49.9,13.2,105.6,40.1,112.5c1.1,0.3,1.7,1.4,1.4,2.4C204.4,362.2,203.6,362.8,202.7,362.8z"
					/>
			</g>
			<g>
				<path class="st3" d="M209.9,172.1c-1,0-2-0.1-3.1-0.3c-5.3-0.9-9.7-4.1-13.2-9.5l-0.4-0.6l-0.1-0.7c-0.1-0.6-6.8-63.3,43.7-73.3
					c14.3-2.8,26.2-0.7,35.3,6.4c15.9,12.3,17.5,34.8,17.6,35.7c0.1,1.7-1.1,3.1-2.8,3.2c-1.6,0.1-3.1-1.1-3.2-2.8
					c0-0.2-1.5-20.8-15.3-31.4c-7.7-5.9-18-7.7-30.5-5.2c-42.5,8.4-39.5,59.6-39,66c2.4,3.6,5.4,5.7,8.7,6.3
					c5.2,0.9,10.3-1.9,12.6-3.3c-0.4-9-0.5-48.7,25.2-56.4c8.7-2.6,16.1-2,22.2,1.8c10.1,6.4,12.2,19.3,12.3,19.8
					c0.3,1.6-0.9,3.2-2.5,3.4c-1.6,0.3-3.2-0.9-3.4-2.5l0,0c0-0.1-1.8-10.8-9.6-15.7c-4.5-2.8-10.3-3.2-17.2-1.1
					c-23.8,7.1-20.9,51.5-20.8,51.9l0.1,1.6l-1.2,1C225.1,166.7,218.2,172.1,209.9,172.1z"/>
			</g>
			<g>
				<path class="st3" d="M205.3,364c-45.4,0-103.8-15-144.6-79.6c-23.7-37.6-20.1-92.8,8.3-128.5c28.6-35.9,76.2-45.5,130.6-26.4
					c2.1,0.7,3.2,3,2.4,5.1c-0.7,2.1-3,3.2-5.1,2.4c-69.8-24.5-106.2,4.4-121.7,23.8c-26.4,33.2-29.8,84.4-7.8,119.3
					c33.8,53.6,83.8,79,148.5,75.6c47.7-2.5,93.6-27.4,116.9-63.5c23.6-36.6,26.8-115.9-17.5-146.3c-44.2-30.4-86.8-4.3-87.3-4.1
					c-1.9,1.2-4.3,0.6-5.5-1.3c-1.2-1.9-0.6-4.3,1.3-5.5c0.5-0.3,47.6-29.1,96,4.2c22.2,15.2,35.5,42.6,37.7,77
					c1.8,29.5-5,60.3-18,80.3c-24.6,38.1-73,64.5-123.2,67.1C212.9,363.9,209.1,364,205.3,364z"/>
			</g>
			<g>
				<path class="st3" d="M225.1,360.8c-0.8,0-1.6-0.5-1.9-1.3c-0.4-1,0.1-2.2,1.1-2.6c52.2-20.1,49.3-78.9,42.4-132.3
					c-6.3-49.4-41.4-58.2-42.9-58.5l-3.7-0.9l2.8-2.6c0.4-0.4,9.7-8.7,23.6-13.1c13-4.1,32.4-5.5,51.4,11.4
					c20.1,17.9,32.2,54.2,30.2,90.3c-2.2,40.2-21.3,75.1-53.8,98.1c-0.9,0.6-2.1,0.4-2.8-0.5c-0.6-0.9-0.4-2.1,0.5-2.8
					c31.4-22.3,49.9-56,52.1-95c1.9-34.4-10-70.3-28.9-87.1c-28.2-25.2-57.8-7.2-66.9-0.5c9.9,3.8,36.8,18,42.3,60.7
					c7,55,9.9,115.4-45,136.6C225.6,360.7,225.4,360.8,225.1,360.8z"/>
			</g>
			<g>
				<path class="st3" d="M162.1,356.4c-0.4,0-0.7-0.1-1-0.3c-0.6-0.4-61.6-38.7-50.9-128.2c3.5-29.4,14.1-50.2,31.6-61.6
					c16.1-10.6,34-10.7,44.9-9.4c-14.4-8-45.3-19.6-76.9,4.5C84,181,76.6,209.6,74.9,230.2c-2.8,34.1,8.4,72,27.3,92.2
					c0.8,0.8,0.7,2.1-0.1,2.8c-0.8,0.8-2.1,0.7-2.8-0.1c-19.6-21-31.3-60.1-28.3-95.2c1.8-21.4,9.6-51.2,36.5-71.7
					c44.9-34.2,89.6,0.6,90.1,1l8,6.4l-9.8-2.9c-0.3-0.1-28.6-8.2-51.7,7.1c-16.4,10.8-26.4,30.6-29.8,58.7
					c-10.4,87,48.4,123.9,49,124.3c0.9,0.6,1.2,1.8,0.7,2.7C163.4,356.1,162.7,356.4,162.1,356.4z"/>
			</g>
			<g>
				<path class="st3" d="M223.6,165.1c-0.1,0-0.3,0-0.4-0.1c-0.5-0.2-0.8-0.8-0.5-1.3c0.2-0.4,4.6-11.1,16.5-18.8
					c10.9-7.1,30.4-13,61.3-0.3c0.5,0.2,0.8,0.8,0.5,1.3c-0.2,0.5-0.8,0.8-1.3,0.5c-23.8-9.7-44.4-9.7-59.5,0.2
					c-11.4,7.4-15.7,17.8-15.7,17.9C224.3,164.9,224,165.1,223.6,165.1z"/>
			</g>
			<g>
				<path class="st3" d="M224.3,155.5c-0.2,0-0.5,0-0.7-0.1c-1-0.4-1.5-1.6-1.1-2.6c0.4-0.9,9.2-22.8,44.1-27.3
					c1.1-0.2,2.1,0.6,2.2,1.7c0.1,1.1-0.6,2.1-1.7,2.2c-17,2.2-27.2,8.8-32.7,14c-6,5.6-8.1,10.7-8.1,10.8
					C225.8,155,225.1,155.5,224.3,155.5z"/>
			</g>
			<g>
				<path class="st3" d="M195.9,151.1c-0.7,0-1.4-0.4-1.7-1c-0.1-0.2-12-20-38-24.8c-1.1-0.2-1.8-1.2-1.6-2.3
					c0.2-1.1,1.2-1.8,2.3-1.6c27.8,5.1,40.2,25.8,40.7,26.7c0.6,1,0.2,2.2-0.7,2.7C196.6,151,196.3,151.1,195.9,151.1z"/>
			</g>
			<g>
				<path class="st3" d="M194.9,156.5c-0.2,0-0.5-0.1-0.7-0.3c-0.5-0.4-47.4-41.7-90.3-6.2c-0.4,0.4-1.1,0.3-1.4-0.1
					c-0.4-0.4-0.3-1.1,0.1-1.4c44.3-36.6,92.4,5.8,92.9,6.2c0.4,0.4,0.4,1,0.1,1.4C195.5,156.4,195.2,156.5,194.9,156.5z"/>
			</g>
			<g>
				<path class="st3" d="M143.8,211.3c-0.1,0-0.2,0-0.2,0c-0.5-0.1-0.9-0.7-0.7-1.2c11.8-50.9,54.5-47,54.9-47
					c0.5,0.1,0.9,0.5,0.9,1.1c-0.1,0.5-0.6,1-1.1,0.9c-1.7-0.2-41.3-3.6-52.8,45.5C144.7,211,144.3,211.3,143.8,211.3z"/>
			</g>
			<g>
				<path class="st3" d="M194.7,220.2c-0.5,0-1-0.4-1-0.9c-1.6-26.3,4.1-38.6,9.2-44.3c4.9-5.5,9.9-5.7,10.2-5.7c0.5,0,1,0.4,1,1
					c0,0.6-0.4,1-1,1l0,0c0,0-4.5,0.3-8.8,5.2c-4.8,5.4-10.2,17.2-8.7,42.7C195.7,219.7,195.3,220.2,194.7,220.2
					C194.7,220.2,194.7,220.2,194.7,220.2z"/>
			</g>
			<g>
				<path class="st3" d="M283,194.9c-0.4,0-0.7-0.2-0.9-0.6c-8.4-18-18.8-29-31.1-32.7c-13.7-4.1-25,2.8-25.1,2.8
					c-0.5,0.3-1.1,0.1-1.4-0.3c-0.3-0.5-0.2-1.1,0.3-1.4c0.5-0.3,12.1-7.4,26.7-3.1c12.9,3.8,23.8,15.2,32.4,33.8
					c0.2,0.5,0,1.1-0.5,1.3C283.3,194.9,283.2,194.9,283,194.9z"/>
			</g>
			<g>
				<path class="st3" d="M99.6,198.7c-0.1,0-0.3,0-0.4-0.1c-0.5-0.2-0.7-0.8-0.5-1.3c29.4-65,88.5-40.3,89.1-40
					c0.5,0.2,0.7,0.8,0.5,1.3c-0.2,0.5-0.8,0.7-1.3,0.5c-0.6-0.3-57.9-24.2-86.4,39C100.3,198.4,99.9,198.7,99.6,198.7z"/>
			</g>
			<g>
				<g>
					<path class="st3" d="M383.1,309.3c-23.7,0-44.7-13.7-45-13.9c-0.9-0.6-1.2-1.9-0.6-2.8c0.6-0.9,1.8-1.2,2.8-0.6
						c0.4,0.3,40.3,26.1,70.1,4.9c11.1-7.9,17.4-17.1,18.8-27.4c1.6-11.9-4-22.5-7.6-26.9c-5.4-6.7-18-13.9-30.1-6.3
						c-4.5,2.9-7.1,7.7-6.9,13.3c0.3,10.6,9.3,21.6,24.8,30.3c1,0.5,1.3,1.8,0.8,2.7c-0.5,1-1.8,1.3-2.7,0.8
						c-16.8-9.4-26.6-21.6-26.9-33.7c-0.2-7,3-13.1,8.8-16.8c14.3-9,29-0.7,35.3,7.1c1.1,1.3,10.6,13.6,8.4,30
						c-1.5,11.4-8.4,21.6-20.5,30.2C403.2,307,392.9,309.3,383.1,309.3z"/>
				</g>
				<g>
					<path class="st3" d="M387.5,293.8c-17.3,0-38-15.3-38.9-16c-0.9-0.7-1.1-1.9-0.4-2.8c0.7-0.9,1.9-1.1,2.8-0.4
						c0.2,0.2,25,18.5,41.3,14.7c6.6-1.5,12.8-5.4,17.5-10.6c-4.6-3.7-17-14.5-17.6-23.3c-0.4-5.3,3.5-10.1,9.4-11.6
						c5.5-1.4,13.4,0.2,17.6,9.3c2.8,6,2.4,13.2-1.1,20.3c-1,2-2.2,3.9-3.6,5.8c-0.1,0.2-0.2,0.3-0.3,0.5c-0.1,0.2-0.3,0.3-0.5,0.5
						c-5.2,6.4-12.7,11.3-20.6,13.1C391.3,293.6,389.4,293.8,387.5,293.8z M405.1,247.3c-0.9,0-1.8,0.1-2.7,0.3
						c-3.3,0.8-6.7,3.5-6.4,7.4c0.5,6.6,10.6,16,16.1,20.5c0.9-1.3,1.7-2.6,2.3-4c2.9-5.9,3.3-11.9,1-16.8
						C413,249.2,408.8,247.3,405.1,247.3z"/>
				</g>
				<g>
					<path class="st3" d="M456.7,296.7c-17.6,0-32.1-7.9-32.3-8c-1-0.5-1.3-1.8-0.8-2.7c0.5-1,1.8-1.3,2.7-0.8
						c0.1,0.1,11.2,6.2,25.4,7.4c18.7,1.6,33.7-5.7,44.6-21.7c0.6-0.9,1.9-1.2,2.8-0.5c0.9,0.6,1.2,1.9,0.5,2.8
						C487.2,291.6,470.9,296.7,456.7,296.7z"/>
				</g>
			</g>
			<g>
				<path class="st3" d="M450.7,298c-16.7,0-28.2-6.3-28.8-6.6c-1-0.5-1.3-1.8-0.8-2.7c0.5-1,1.8-1.3,2.7-0.8
					c0.2,0.1,18.5,10,41.8,4.3c1.1-0.3,2.2,0.4,2.4,1.5c0.3,1.1-0.4,2.2-1.5,2.4C460.9,297.4,455.6,298,450.7,298z"/>
			</g>
			<g>
				<g>
					<path class="st3" d="M180.7,116.6c-5.4,0-10.6-3.1-15.7-9.2c-8.2-9.9-14.1-16.3-20.9-16.3c-3.8,0-8.1,1.9-13.5,5.9
						c-0.8,0.6-1.9,0.5-2.6-0.2c-0.7-0.7-0.7-1.9-0.1-2.6c11.3-13.9,28.6-23.2,42.9-23.2c7.2,0,13.4,2.2,18.5,6.6
						c17.9,15.4,9.6,25.5,3,33.6C192,111.4,187.7,116.6,180.7,116.6z M144.2,87.1c8.5,0,15,7,24,17.8c4.3,5.1,8.5,7.7,12.6,7.7
						c5.1,0,8.3-4,8.4-4c6.7-8.2,12.5-15.2-2.5-28.1c-4.3-3.7-9.7-5.6-15.9-5.6c-9.8,0-21.2,4.9-30.8,12.7
						C141.4,87.3,142.8,87.1,144.2,87.1z"/>
				</g>
				<g>
					<path class="st3" d="M201.5,111.2c-0.3,0-0.7,0-1.1,0c-5.5-0.5-11.4-4.6-17.1-12c-8.5-11-22.1-12.7-22.2-12.8
						c-0.5-0.1-0.9-0.6-0.9-1.1c0.1-0.5,0.6-0.9,1.1-0.9c0.6,0.1,14.5,1.9,23.5,13.5c5.3,6.8,10.9,10.8,15.7,11.2
						c2.7,0.2,5.1-0.6,7.1-2.5c0.4-0.4,1-0.3,1.4,0.1c0.4,0.4,0.3,1-0.1,1.4C206.9,110.2,204.3,111.2,201.5,111.2z"/>
				</g>
			</g>
			<g>
				<g>
					<path class="st3" d="M48.7,395.1L48.7,395.1c-18.4,0-36.9-12.1-48.1-23.4c-0.7-0.7-0.8-1.9-0.2-2.6c0.6-0.8,1.7-1,2.6-0.5
						c5.9,3.6,11,5.4,15.6,5.4c8.5,0,15.4-6.1,25.1-15.4c5.9-5.7,11.9-8.5,17.9-8.5c7.8,0,12.6,4.8,12.8,5c6,6.1,8.6,11.8,7.9,17.5
						c-0.8,6.3-5.9,12.3-15.1,17.7C61.7,393.5,55.4,395.1,48.7,395.1z M13.1,377.3c10.1,7.6,22.9,13.8,35.6,13.8h0
						c6,0,11.6-1.4,16.5-4.3c8.1-4.7,12.5-9.7,13.2-14.8c0.6-4.4-1.6-9-6.8-14.2c0,0-3.9-3.8-10-3.8c-5,0-10.1,2.5-15.2,7.4
						c-10.3,10-17.9,16.5-27.8,16.5h0C16.8,378,15,377.7,13.1,377.3z"/>
				</g>
				<g>
					<path class="st3" d="M38.9,380.9c-0.5,0-0.9-0.4-1-0.9c-0.1-0.5,0.3-1,0.9-1.1c0.2,0,16-1.7,25.9-12.3
						c10.6-11.3,21.6-14.5,29.5-8.6c0.4,0.3,0.5,1,0.2,1.4c-0.3,0.4-1,0.5-1.4,0.2c-7-5.2-17-2.1-26.8,8.4
						c-10.4,11.1-26.5,12.8-27.1,12.9C39,380.9,38.9,380.9,38.9,380.9z"/>
				</g>
			</g>
		</g>
	</g>
</g>
</svg>
