<?xml version="1.0" encoding="utf-8"?>
<!-- Generator: Adobe Illustrator 25.4.1, SVG Export Plug-In . SVG Version: 6.00 Build 0)  -->
<svg version="1.1" xmlns="http://www.w3.org/2000/svg" xmlns:xlink="http://www.w3.org/1999/xlink" x="0px" y="0px"
	 viewBox="0 0 500 500" style="enable-background:new 0 0 500 500;" xml:space="preserve">
<style type="text/css">
	.st0{fill:#42D0DC;}
	.st1{fill:#1AACC4;}
	.st2{fill:#FDC905;}
	.st3{fill:#152B39;}
	.st4{fill:#AE7401;}
	.st5{fill:#DA9702;}
	.st6{fill:#EDEBEB;}
</style>
<g id="Layer_1">
</g>
<g id="obj">
	<g>
		<polygon class="st0" points="162.5,220.5 168.9,211.7 165.5,200 153.8,188.5 143,184.8 128,185 109.3,193 95.8,204.7 107,202.4 
			113.4,202.5 122.7,209.7 136.2,224.7 144.8,229.8 156.1,227.9 		"/>
		<path class="st1" d="M332.3,407.4L359,421l16.1,2.9l11.7-1.8l13.7-9.9l9.3-15.6l-1.6-14.5l-9.9-7.7c0,0-10.8-0.7-13.7,3.7
			s1.6,15.1,1.6,15.1l14.8,15.2l-3.2,4.5l-20.8-15.8l-7.4-21.4l7.1-13.4l14.4-5.2l9.9,2.3l9.3,4.7l8.9,12.6l4,14l-1.5,15.6
			l-5.8,13.2L400,433l-15.4,7.3l-19.5,1l-23.2-4.9l-19.7-10.1L332.3,407.4z"/>
		<polygon class="st1" points="153.3,290 209.7,306.2 199.3,252.8 208.4,232 223.3,223 238.5,224.3 249.6,231.4 253.8,243.1 
			265.1,245.9 261.5,227.8 252.8,215.5 237.2,204.2 216.2,201.9 190.6,210.7 175,228.8 		"/>
		<polygon class="st2" points="195.2,282.6 199.3,254.6 237.3,244 265.1,245.9 287,252.1 310.4,268.5 327.2,293.4 338.2,341.3 
			332.7,400.5 306.4,446.2 262.9,478 214.6,495.2 158.3,499.5 93.3,483.5 53.1,453.5 15,403.8 4.4,367.6 9.5,318.6 32.6,273.3 
			63.3,250.6 105.3,240.4 167.8,248.8 164.5,277.7 168.5,284.3 179.2,289.4 		"/>
		<g>
			<path class="st3" d="M172.8,289.2c1.2-0.1,2.1-1.2,2-2.4c-0.1-1.2-1.2-2.1-2.4-2c-0.5,0-12.5,1.3-24.4,13
				c-9.3,9.2-20,26.6-22.1,58.9c1.1,1.1,2.6,1.8,4.2,2.4C133.3,294,171.1,289.4,172.8,289.2z"/>
			<path class="st3" d="M172,497.9c-28.1-6.1-36.8-28.7-40-72.3c-1.1,0.6-2.7,0.9-4.2,1.5c3.5,44.1,13,68.6,43.3,75.1
				c0.2,0,0.3,0,0.5,0c1,0,1.9-0.7,2.1-1.7C173.9,499.4,173.2,498.2,172,497.9z"/>
		</g>
		<g>
			<path class="st3" d="M180.8,293c-1.1,0-2.2-0.1-3.3-0.3c-5.8-1-10.7-4.5-14.5-10.5l-0.4-0.6l-0.1-0.7c-0.1-0.7-7.5-69.4,48-80.4
				c15.7-3.1,28.7-0.8,38.7,7c17.5,13.4,19.2,38.2,19.3,39.2c0.1,1.8-1.3,3.4-3.1,3.5c-1.8,0.1-3.4-1.3-3.5-3.1
				c0-0.2-1.7-22.8-16.8-34.4c-8.5-6.5-19.7-8.4-33.4-5.7c-46.6,9.2-43.4,65.3-42.8,72.5c2.7,3.9,5.9,6.2,9.6,6.9
				c5.7,1,11.3-2,13.9-3.6c-0.4-9.8-0.5-53.4,27.6-61.9c9.5-2.9,17.7-2.2,24.3,2c11.1,7,13.4,21.1,13.5,21.7c0.3,1.8-1,3.5-2.7,3.8
				c-1.8,0.3-3.5-1-3.8-2.7l0,0c0-0.1-2-11.9-10.5-17.2c-4.9-3.1-11.3-3.5-18.9-1.2c-26.1,7.8-22.9,56.5-22.9,57l0.1,1.7l-1.4,1.1
				C197.5,287.1,189.9,293,180.8,293z"/>
		</g>
		<g>
			<path class="st3" d="M175.8,503.5c-49.9,0-113.9-16.5-158.6-87.3c-26-41.2-22.1-101.8,9.1-141c31.4-39.4,83.6-49.9,143.3-28.9
				c2.3,0.8,3.5,3.3,2.7,5.6c-0.8,2.3-3.3,3.5-5.6,2.7c-76.6-26.9-116.5,4.8-133.5,26.1c-29,36.4-32.7,92.6-8.6,130.8
				c37.1,58.8,91.9,86.6,163,82.9c52.4-2.8,102.7-30.1,128.2-69.6c25.9-40.1,29.4-127.1-19.2-160.5c-48.5-33.3-95.3-4.7-95.7-4.5
				c-2.1,1.3-4.8,0.7-6-1.4c-1.3-2.1-0.7-4.8,1.4-6c0.5-0.3,52.2-31.9,105.4,4.7c24.3,16.7,39,46.7,41.3,84.5
				c2,32.4-5.5,66.1-19.7,88.1c-27,41.8-80.1,70.7-135.1,73.6C184,503.4,180,503.5,175.8,503.5z"/>
		</g>
		<g>
			<path class="st3" d="M196.7,495.7c-1.1,0.4-1.7,1.7-1.3,2.8c0.3,0.9,1.2,1.4,2,1.4c0.3,0,0.5,0,0.8-0.1
				c34.4-13.3,48.1-40.6,52.1-72.7c-1.5,0.3-3,0.6-4.6,0.8C241.7,458.1,228.6,483.4,196.7,495.7z"/>
			<path class="st3" d="M277.5,280.7c-20.8-18.6-42.2-17.1-56.4-12.5c-15.3,4.9-25.5,14-25.9,14.4l-3.1,2.8l4.1,1
				c1.6,0.4,40.1,10,47.1,64.2c0.1,0.8,0.2,1.6,0.3,2.4c1.4,0,2.9,0.1,4.4,0.2c-0.1-1.1-0.3-2.1-0.4-3.2
				c-6-46.8-35.5-62.4-46.4-66.6c9.9-7.3,42.4-27,73.4,0.6c20.8,18.5,33.8,57.8,31.7,95.6c-2.4,42.8-22.7,79.8-57.2,104.2
				c-1,0.7-1.2,2.1-0.5,3.1c0.7,1,2.1,1.2,3.1,0.5c35.6-25.2,56.6-63.4,59-107.6C312.9,340.2,299.6,300.3,277.5,280.7z"/>
		</g>
		<g>
			<path class="st3" d="M117.4,493.3c-0.4,0-0.9-0.1-1.2-0.4c-0.6-0.4-56.5-40.5-44.8-138.6c3.9-32.3,15.5-55,34.7-67.6
				c17.6-11.6,37.3-11.8,49.2-10.4c-15.8-8.8-49.7-21.5-84.3,4.9c-18.9,14.4-30.1,37.1-32.5,65.6c-3.9,46.7,16.2,98.5,37.9,121.7
				c0.8,0.9,0.8,2.3-0.1,3.1c-0.9,0.8-2.3,0.8-3.1-0.1c-22.3-23.9-43-77.2-39-125.1c2.5-29.8,14.3-53.6,34.2-68.7
				c49.2-37.6,98.3,0.7,98.8,1.1l8.8,7l-10.8-3.2c-0.3-0.1-31.4-9-56.7,7.7c-18,11.8-29,33.5-32.7,64.4
				c-11.4,95.3,42.4,134.1,42.9,134.5c1,0.7,1.2,2.1,0.5,3.1C118.8,492.9,118.1,493.3,117.4,493.3z"/>
		</g>
		<g>
			<path class="st3" d="M195.8,285.3c-0.1,0-0.3,0-0.4-0.1c-0.6-0.2-0.8-0.9-0.6-1.4c0.2-0.5,5.1-12.1,18.1-20.6
				c12-7.8,33.4-14.2,67.3-0.4c0.6,0.2,0.8,0.9,0.6,1.4c-0.2,0.6-0.9,0.8-1.4,0.6c-26.1-10.7-48.7-10.6-65.3,0.2
				c-12.5,8.1-17.2,19.5-17.3,19.6C196.6,285.1,196.2,285.3,195.8,285.3z"/>
		</g>
		<g>
			<path class="st3" d="M196.6,274.7c-0.3,0-0.5,0-0.8-0.2c-1.1-0.4-1.7-1.7-1.2-2.8c0.4-1,10.1-25,48.4-29.9
				c1.2-0.2,2.3,0.7,2.5,1.9c0.2,1.2-0.7,2.3-1.9,2.5c-18.6,2.4-29.8,9.7-35.9,15.4c-6.6,6.1-8.9,11.8-8.9,11.8
				C198.3,274.2,197.4,274.7,196.6,274.7z"/>
		</g>
		<g>
			<path class="st3" d="M165.5,269.9c-0.8,0-1.5-0.4-1.9-1.1c-0.1-0.2-13.2-22-41.6-27.2c-1.2-0.2-2-1.4-1.8-2.6
				c0.2-1.2,1.4-2,2.5-1.8c30.5,5.5,44.1,28.3,44.6,29.3c0.6,1,0.3,2.4-0.8,3C166.2,269.8,165.8,269.9,165.5,269.9z"/>
		</g>
		<g>
			<path class="st3" d="M164.4,275.9c-0.3,0-0.5-0.1-0.7-0.3c-0.5-0.5-52-45.7-99-6.8c-0.5,0.4-1.2,0.3-1.5-0.1
				c-0.4-0.5-0.3-1.2,0.1-1.5c48.6-40.1,101.4,6.4,101.9,6.8c0.4,0.4,0.5,1.1,0.1,1.5C165,275.8,164.7,275.9,164.4,275.9z"/>
		</g>
		<g>
			<path class="st3" d="M108.3,336c-0.1,0-0.2,0-0.2,0c-0.6-0.1-1-0.7-0.8-1.3c13-55.8,59.8-51.6,60.3-51.6c0.6,0.1,1,0.6,1,1.2
				c-0.1,0.6-0.6,1-1.2,1c-1.9-0.2-45.4-4-57.9,49.9C109.2,335.6,108.8,336,108.3,336z"/>
		</g>
		<g>
			<path class="st3" d="M164.1,345.8c-0.6,0-1.1-0.4-1.1-1c-1.8-28.9,4.5-42.4,10.1-48.6c5.4-6,10.9-6.3,11.1-6.3
				c0.6,0,1.1,0.4,1.1,1.1c0,0.6-0.4,1.1-1,1.1l0,0c0,0-4.9,0.3-9.7,5.7c-5.3,5.9-11.2,18.9-9.5,46.9
				C165.2,345.2,164.7,345.7,164.1,345.8C164.1,345.8,164.1,345.8,164.1,345.8z"/>
		</g>
		<g>
			<path class="st3" d="M261,318c-0.4,0-0.8-0.2-1-0.6c-9.2-19.8-20.7-31.8-34.1-35.9c-15.1-4.5-27.4,3-27.5,3.1
				c-0.5,0.3-1.2,0.2-1.5-0.3c-0.3-0.5-0.2-1.2,0.3-1.5c0.5-0.3,13.3-8.1,29.3-3.4c14.1,4.2,26.1,16.6,35.5,37
				c0.3,0.6,0,1.2-0.5,1.5C261.3,318,261.2,318,261,318z"/>
		</g>
		<g>
			<path class="st3" d="M59.7,322.1c-0.2,0-0.3,0-0.5-0.1c-0.6-0.3-0.8-0.9-0.5-1.5c32.3-71.4,97-44.2,97.7-43.9
				c0.6,0.2,0.8,0.9,0.6,1.4c-0.2,0.6-0.9,0.8-1.4,0.6c-0.6-0.3-63.5-26.5-94.8,42.8C60.6,321.9,60.2,322.1,59.7,322.1z"/>
		</g>
		<g>
			<g>
				<path class="st3" d="M370.8,443.5c-25.9,0-49.1-15-49.4-15.3c-1-0.7-1.3-2-0.6-3c0.7-1,2-1.3,3-0.6c0.4,0.3,44.2,28.7,76.9,5.4
					c12.2-8.7,19.1-18.8,20.6-30.1c1.8-13.1-4.4-24.7-8.3-29.6c-6-7.4-19.7-15.3-33-6.9c-5,3.1-7.8,8.4-7.6,14.6
					c0.3,11.6,10.2,23.7,27.3,33.2c1.1,0.6,1.4,1.9,0.8,3c-0.6,1.1-1.9,1.4-3,0.8c-18.4-10.3-29.2-23.7-29.5-36.9
					c-0.2-7.7,3.3-14.4,9.6-18.4c15.7-9.9,31.8-0.7,38.8,7.8c1.2,1.5,11.7,15,9.2,32.9c-1.7,12.5-9.2,23.7-22.5,33.1
					C392.9,440.9,381.6,443.5,370.8,443.5z"/>
			</g>
			<g>
				<path class="st3" d="M375.6,426.5c-19,0-41.7-16.7-42.7-17.5c-1-0.7-1.2-2.1-0.4-3.1c0.7-1,2.1-1.2,3.1-0.4
					c0.3,0.2,27.5,20.3,45.3,16.1c7.2-1.7,14.1-6,19.2-11.7c-5.1-4.1-18.6-15.9-19.3-25.6c-0.4-5.8,3.8-11,10.3-12.7
					c6.1-1.5,14.7,0.2,19.3,10.2c3,6.6,2.6,14.5-1.2,22.2c-1.1,2.2-2.4,4.3-3.9,6.3c-0.1,0.2-0.2,0.4-0.3,0.6
					c-0.2,0.2-0.3,0.4-0.5,0.5c-5.8,7-14,12.4-22.6,14.4C379.8,426.3,377.7,426.5,375.6,426.5z M395,375.5c-1,0-2,0.1-2.9,0.4
					c-3.6,0.9-7.3,3.9-7,8.1c0.5,7.2,11.6,17.6,17.6,22.4c1-1.4,1.8-2.8,2.6-4.3c3.2-6.5,3.6-13.1,1.1-18.5
					C403.6,377.6,399,375.5,395,375.5z"/>
			</g>
			<g>
				<path class="st3" d="M451.6,429.7c-19.3,0-35.2-8.7-35.5-8.8c-1.1-0.6-1.4-1.9-0.8-3c0.6-1.1,1.9-1.4,3-0.8
					c0.1,0.1,12.3,6.8,27.9,8.1c20.5,1.8,37-6.2,48.9-23.8c0.7-1,2-1.3,3-0.6c1,0.7,1.3,2,0.6,3C485,424.1,467.2,429.7,451.6,429.7z
					"/>
			</g>
		</g>
		<g>
			<path class="st3" d="M445,431.1c-18.3,0-30.9-6.9-31.6-7.3c-1.1-0.6-1.4-1.9-0.8-3c0.6-1.1,1.9-1.4,3-0.9
				c0.2,0.1,20.3,11,45.8,4.7c1.2-0.3,2.4,0.4,2.7,1.6c0.3,1.2-0.4,2.4-1.6,2.7C456.2,430.5,450.3,431.1,445,431.1z"/>
		</g>
		<g>
			<g>
				<path class="st3" d="M148.8,232.1c-5.9,0-11.7-3.4-17.2-10.1c-9-10.8-15.4-17.9-22.9-17.9c-4.1,0-8.8,2.1-14.8,6.5
					c-0.9,0.7-2.1,0.5-2.9-0.3c-0.8-0.8-0.8-2-0.1-2.9c12.5-15.2,31.4-25.4,47-25.4c7.9,0,14.7,2.4,20.3,7.2
					c19.7,16.9,10.6,28,3.2,36.9C161.2,226.3,156.4,232.1,148.8,232.1z M108.7,199.8c9.4,0,16.5,7.7,26.3,19.5
					c4.7,5.6,9.3,8.5,13.9,8.5c5.6,0,9.1-4.4,9.2-4.4c7.4-8.9,13.7-16.7-2.7-30.8c-4.7-4.1-10.6-6.2-17.4-6.2
					c-10.8,0-23.3,5.3-33.8,14C105.7,200,107.2,199.8,108.7,199.8z"/>
			</g>
			<g>
				<path class="st3" d="M171.6,226.2c-0.4,0-0.8,0-1.2-0.1c-6-0.5-12.5-5.1-18.8-13.1c-9.3-12-24.2-14-24.3-14
					c-0.6-0.1-1-0.6-1-1.2c0.1-0.6,0.6-1,1.2-1c0.6,0.1,15.9,2.1,25.8,14.8c5.8,7.5,11.9,11.8,17.2,12.3c2.9,0.3,5.6-0.7,7.8-2.7
					c0.4-0.4,1.1-0.4,1.5,0.1c0.4,0.4,0.4,1.1-0.1,1.5C177.5,225.1,174.7,226.2,171.6,226.2z"/>
			</g>
		</g>
		<g>
			<g>
				<path class="st4" d="M260.2,414l3.8-11.6l0.3-12.4l-2.3-9.8l-2.8-5.8l-6.3-7.1l-8.1-5.8l-11.5-6.4c-0.9,0.1-1.8,0.2-2.7,0.4
					c-20.8,4.2-20.8,23.4-17.1,37c3.8,13.7,6.6,38.2,28.9,37.1c1.8-0.1,3.7-0.3,5.6-0.6l0.7-0.6L260.2,414z"/>
				<path class="st5" d="M277.6,378.5c-6-13-24.5-26-44.4-23.4l11.5,6.4l8.1,5.8l6.3,7.1l2.8,5.8l2.3,9.8l-0.3,12.4l-3.8,11.6
					l-11.4,14.4l-0.7,0.6C269.1,425.4,291.1,407.9,277.6,378.5z"/>
			</g>
			<polygon class="st6" points="212.7,390 221.1,378.6 226.1,375.1 239,374.6 253.6,381.1 260.2,391 262.2,399.3 258.9,408.9 
				255.1,417.5 250.3,421.3 245,423.8 238.5,424.1 228.1,420.3 217.8,410.2 			"/>
			<g>
				<path class="st4" d="M138.9,362.8c-4.2-3.7-8.3-5.7-12.3-6.6l-8.3,3.3l-8.6,6.6l-7.9,10.6l-3.1,11.9l-1.6,8l0.9,7.9l1.8,6.6
					l4.2,8l12.5,11c10.1-0.5,19.4-6.7,27.4-16.9C152.2,402.9,164.2,385.2,138.9,362.8z"/>
				<path class="st5" d="M99.8,411.1l-1.8-6.6l-0.9-7.9l1.6-8l3.1-11.9l7.9-10.6l8.6-6.6l8.3-3.3c-20.3-4.3-37.4,22-37.4,22
					s-16.9,25,2.5,41.8c8.5,7.4,16.9,10.5,24.8,10.1l-12.5-11L99.8,411.1z"/>
			</g>
			<polygon class="st6" points="150.2,404.2 147.5,389.2 141.8,383.4 135.1,378.6 122,374.8 114,377.1 108.1,383.9 102.9,393.7 
				100.6,401.4 101.7,407 105.2,413.8 111.8,419.4 121,422.9 130.9,424.9 			"/>
			<g>
				<path class="st3" d="M241,432.9C241,432.9,241,432.9,241,432.9c-21,0-26-20.6-29.3-34.3c-0.5-1.9-0.9-3.6-1.3-5.3
					c-1.9-6.9-4.1-19.9,2-29.8c3.6-5.9,9.6-9.7,17.6-11.3c2.8-0.6,5.6-0.8,8.5-0.8c19.8,0,36.5,13.3,42.2,25.7
					c7.5,16.5,4,28.3-0.3,35.4c-8.5,14.1-25.7,19.8-37.7,20.4C242.1,432.9,241.6,432.9,241,432.9z M238.4,358
					c-2.4,0-4.8,0.2-7.2,0.7c-6.2,1.3-10.7,4.1-13.3,8.3c-4.8,7.8-2.8,18.8-1.2,24.6c0.5,1.7,0.9,3.5,1.4,5.5
					c3.9,16,8.3,29.2,22.9,29.2h0c0.4,0,0.8,0,1.3,0c11.3-0.6,25.7-6.1,32.4-17.2c5-8.3,5-18.1-0.1-29.2
					C269.7,369.1,254.8,358,238.4,358z"/>
			</g>
			<g>
				<path class="st3" d="M239.4,429.8c-3.3,0-7-0.8-11-2.9l1-1.9c7.4,3.8,14.6,3.5,20.8-1c9.8-7.1,15.2-22.8,12.8-37.5
					c-3.6-22.9-32.4-29.8-32.7-29.9l0.5-2.1c0.3,0.1,30.5,7.3,34.4,31.7c2.5,15.4-3.3,32.1-13.7,39.6
					C248.6,427.8,244.5,429.8,239.4,429.8z"/>
			</g>
			<g>
				<path class="st3" d="M241.3,425.5c-11,0-20.8-9.5-24.5-18.4c-3.5-8.5-3.6-12.9-3.6-13.1c0-0.3,0.9-21.4,18.9-21.4l0.6,0
					c9.9,0.3,19.1,4.7,24.7,11.7c4.2,5.2,5.8,11.3,4.6,17c-3.2,15.6-9.9,23.7-20.1,24.1C241.8,425.5,241.5,425.5,241.3,425.5z
					 M215.4,394.1c0,0,0.1,4.2,3.4,12.2c3.4,8.4,12.8,17,22.5,17l0.6,0c9.1-0.3,15-7.6,18-22.3c1-5.1-0.4-10.5-4.2-15.2
					c-5.2-6.6-13.8-10.6-23.1-10.9l-0.6,0C216.2,374.9,215.4,393.3,215.4,394.1L215.4,394.1z"/>
			</g>
			<g>
				<path class="st3" d="M235,403.9L235,403.9c-2.6,0-4.8-1.8-5.3-4.3c-0.3-1.4,0-2.9,0.8-4.1c0.8-1.2,2-2.1,3.5-2.4
					c2.9-0.6,5.9,1.3,6.5,4.2c0.3,1.4,0,2.9-0.8,4.1c-0.8,1.2-2,2.1-3.5,2.4C235.8,403.8,235.4,403.9,235,403.9z"/>
			</g>
			<g>
				<path class="st3" d="M128.1,409L128.1,409c-1.2,0-2.3-0.3-3.3-1c-1.3-0.9-2.2-2.2-2.6-3.8c-0.3-1.6,0-3.2,0.9-4.5
					c1.8-2.6,5.6-3.4,8.3-1.7c2.7,1.8,3.5,5.5,1.7,8.3C132,408,130.2,409,128.1,409z"/>
			</g>
			<g>
				<path class="st3" d="M115.2,433.5L115.2,433.5c-8.6,0-17.2-3.7-25.6-10.9c-17.1-14.8-9.5-36.7-3.1-46.1
					c0.6-0.9,15.7-23.9,35.5-23.9c6.7,0,13.2,2.7,19.1,7.9c25.5,22.5,16.3,41.2,5.5,54.9C137.2,427.2,126.3,433.5,115.2,433.5z
					 M122,359c-16.2,0-29.9,20.8-30,21c-0.7,1-15,22.8,1.9,37.5c7.1,6.2,14.3,9.3,21.2,9.3c9.1,0,18.1-5.4,26.2-15.7
					c6.8-8.6,19.4-24.6-4.7-45.9C132,361.2,127.1,359,122,359z"/>
			</g>
			<g>
				<path class="st3" d="M117.1,430.6c-18.9-11-24.9-27.7-17.8-49.6c7.7-23.7,28.8-25.2,29.1-25.2l0.1,2.2
					c-0.8,0-19.9,1.5-27.1,23.7c-6.7,20.8-1.1,36.6,16.8,47L117.1,430.6z"/>
			</g>
			<g>
				<path class="st3" d="M131.8,425.7c-12.8-0.9-22-4.7-27.4-11.2c-5.6-6.9-4.8-14.3-4.7-14.6c1-4.8,5.4-18.3,14.3-23.8
					c3.9-2.4,8.1-2.9,12.6-1.7c11.2,3.2,18.6,8.2,22,15c2.8,5.7,2.8,12.5-0.2,20.2l-2-0.8c2.8-7.1,2.9-13.3,0.3-18.4
					c-3.1-6.2-10.1-10.9-20.7-13.9c-3.9-1.1-7.5-0.6-10.8,1.4c-8.2,5-12.4,18.1-13.3,22.3l0,0c0,0-0.8,6.7,4.3,12.9
					c5,6,13.6,9.5,25.8,10.4L131.8,425.7z"/>
			</g>
		</g>
	</g>
</g>
</svg>
