<?xml version="1.0" encoding="utf-8"?>
<!-- Generator: Adobe Illustrator 25.4.1, SVG Export Plug-In . SVG Version: 6.00 Build 0)  -->
<svg version="1.1" id="Layer_1" xmlns="http://www.w3.org/2000/svg" xmlns:xlink="http://www.w3.org/1999/xlink" x="0px" y="0px"
	 viewBox="0 0 500 500" style="enable-background:new 0 0 500 500;" xml:space="preserve">
<style type="text/css">
	.st0{fill:#644936;}
	.st1{opacity:0.3;fill:#380606;}
	.st2{opacity:0.3;}
	.st3{fill:#380606;}
	.st4{fill:#201B1B;}
	.st5{fill:#604B4C;}
	.st6{fill:#C65D02;}
	.st7{opacity:0.3;fill:#B02101;}
	.st8{fill:#FD990D;}
	.st9{fill:#5A0B0B;}
</style>
<g id="Scarecrow">
	<path class="st0" d="M276.7,451.8c-1.2-2.4-4-17.6-4.3-23.1c-0.2-5.5,2.6-42.1,2-47.8c-0.6-5.7-4.9-50.4-4.7-56.1
		s-0.8-106.1-1.2-110.5c-0.3-3.7-0.8-18.7-0.7-25.2c-4.7,0.4-9.5,0.8-14.2,1.1c0.5,13.3,2.1,57.2,1.7,78.9
		c-0.4,25.7,5.7,108.3,4.9,122.9s-4.2,43.7-3.3,49.8c0.9,6.1,6,16.6,6.2,19s-3.2,12.8-2.4,14.8c0.8,2,3.6,4.3,4,7.1
		c0.4,2.8,5.9,16.8,6.5,17.2c0.6,0.4,1.8-1,2-3.2c0.2-2.2,3-19,4-21.9s1.4-3.8,1.2-7.3C278.3,464.1,277.9,454.2,276.7,451.8z"/>
	<path class="st1" d="M272.8,363.6c-1.4-15.2-3.1-35.1-3-38.7c0.1-1.8,0-13.6-0.1-28.8c-3-34.9-7-68.2-7-68.2s-8.2-15.4-4.9-29
		c1.8-7,6.2-7.4,10-6.2c0-1.3,0-2.5,0-3.5c-4.7,0.4-9.5,0.8-14.2,1.1c0.5,13.3,2.1,57.2,1.7,78.9c-0.4,25.7,5.7,108.3,4.9,122.9
		s-4.2,43.7-3.3,49.8c0.9,6.1,6,16.6,6.2,19c0,0,2.6-8.1,0.9-23.3c-1.6-15.2,0-48.5,7.1-63.9C272,371.9,272.5,368.3,272.8,363.6z"/>
	<path class="st1" d="M272.4,428.7c-0.1-3.2,0.8-16.8,1.4-28.9c-5-52.2-16.9-138.2-18.4-163.5c-1.3-22.3,6.4-37.6,12.4-45.9
		c0-0.5,0-0.9,0-1.3c-4.7,0.4-9.5,0.8-14.2,1.1c0.5,13.3,2.1,57.2,1.7,78.9c-0.4,25.7,5.7,108.3,4.9,122.9s-4.2,43.7-3.3,49.8
		c0.9,6.1,6,16.6,6.2,19s-3.2,12.8-2.4,14.8c0.8,2,3.6,4.3,4,7.1c0.1,0.6,0.4,1.8,0.9,3.2c2.2-12.5,5.5-32.3,8.8-42.9
		C273.5,437.8,272.5,431.7,272.4,428.7z"/>
	<path class="st0" d="M90.8,179.6c1.1-1.3,5.9-2.3,10-3.3c4-1,17.8,1,24,0c6.2-1,26.5,1.6,33.5,1.5c7-0.1,67.6-0.7,77.5-1.5
		c9.8-0.8,58.8-2.4,67.5-2.4c8.6,0,63.2-2.2,72.3-1.3c9.2,0.8,30.8,1.5,31.8,3.7c1.1,2.2,3,13,0,14.4c-3,1.4-16.7,0.8-23.2,0
		s-33.7-1.6-33.7-1.6s28.1,5.9,32.4,8.4c4.3,2.4,3.2,3.8,3,4.6c-0.3,0.8-9.2,9.4-11.1,8.9c-1.9-0.5-8.4-9.2-13.8-10.5
		c-5.4-1.3-13.5-3.8-21.3-5.9c-7.8-2.2-34.8-7.6-41.8-7.6c-7,0-59.6,5.2-72.1,4.8c-12.4-0.5-54-1.5-62.1-1.3
		c-8.1,0.3-16.2,1.3-21.3,3c-5.1,1.6-18.6,10.3-22.9,12.4c-4.3,2.2-6.7,5.4-8.6,5.2c-1.9-0.3-7.3-7-6.2-8.9
		c1.1-1.9,12.1-7.4,18.6-10.3c6.5-2.9,21.1-7.8,21.1-7.8s-14-0.8-19.2,0.5c-5.1,1.4-19.7,5.7-23.2,5.9c-3.5,0.3-7,2-8.6,1.3
		C91.6,191,90.8,179.6,90.8,179.6z"/>
	<path class="st1" d="M407.4,190.7c1.6-0.7,1.8-4.1,1.5-7.5c-15.8,0.2-62.7,0.5-80.1-2.3c-21.1-3.4-98.3,3.8-120,5.3
		c-21.7,1.4-50.4-7.6-68-1c-5,1.9-10.8,4-16.3,6c-0.4,0.2-0.8,0.4-1.2,0.5c-6.5,2.9-17.5,8.4-18.6,10.3c-1.1,1.9,4.3,8.6,6.2,8.9
		c1.9,0.3,4.3-3,8.6-5.2c4.3-2.2,17.8-10.8,22.9-12.4c5.1-1.6,13.2-2.7,21.3-3c8.1-0.3,49.7,0.8,62.1,1.3c12.4,0.5,65-4.8,72.1-4.8
		c7,0,34,5.4,41.8,7.6c7.8,2.2,15.9,4.6,21.3,5.9c5.4,1.3,11.9,10,13.8,10.5c1.9,0.5,10.8-8.1,11.1-8.9c0.3-0.8,1.3-2.2-3-4.6
		c-4.3-2.4-32.4-8.4-32.4-8.4s27.3,0.8,33.7,1.6S404.4,192,407.4,190.7z"/>
	<g class="st2">
		<path class="st3" d="M297.8,186.9c7,0,34,5.4,41.8,7.6c7.8,2.2,15.9,4.6,21.3,5.9c5.4,1.3,11.9,10,13.8,10.5
			c1.9,0.5,10.8-8.1,11.1-8.9c0.1-0.2,0.2-0.5,0.3-0.9c-6.7-1.3-19.3-3.9-28.6-6.9c-13.2-4.3-23.8-13.8-36.6-14
			c-7.5-0.1-20.6,3.8-30.3,7.1C294,187.1,296.6,186.9,297.8,186.9z"/>
		<path class="st3" d="M163.7,190.4c8.1-0.3,49.7,0.8,62.1,1.3c3.2,0.1,9-0.1,16-0.6c-8.7-1.9-22.8-4.7-33-4.9
			c-15.1-0.4-75.2,0.9-103.5,15.1c-0.3,0.3-0.6,0.5-0.7,0.7c-1.1,1.9,4.3,8.6,6.2,8.9c1.9,0.3,4.3-3,8.6-5.2
			c4.3-2.2,17.8-10.8,22.9-12.4C147.5,191.8,155.6,190.7,163.7,190.4z"/>
	</g>
	<path class="st1" d="M93.2,191.7c1.6,0.7,5.1-1,8.6-1.3c3.5-0.3,18.1-4.6,23.2-5.9c5.1-1.4,19.2-0.5,19.2-0.5s-0.7,0.2-1.9,0.7
		l0.1,0c0,0,17.1,3.9,39.5,6c11.5,0.2,25.7,0.6,35.5,0.9c25.9-1.9,58.2-12.1,73.2-17.2c-17.9,0.5-47.4,1.5-54.8,2.1
		c-4.6,0.4-20.3,0.7-36.4,1l-26.2,6.4c0,0-37.8-7.4-48.4-4s-33.9-0.1-33.9-0.1S91.6,191,93.2,191.7z"/>
	<path class="st4" d="M351.8,208c-1.3-4.9-6.2-14.6-7.6-18.1c-1.3-3.5,0.8-17.1,0.8-17.1v0c-17.6,0.5-37,1.1-41.8,1.1
		c-0.1,0-0.2,0-0.3,0c0.2,4.1-0.1,10.6-3.5,16.2c-5.4,8.9-17.5,24.6-39.4,22.9c-21.9-1.6-37.8-14.3-41.6-20
		c-2.7-4.1-3.2-12-3.3-16.1c-16.6,0.3-38.5,0.6-49.9,0.7c0,0-1.9,18.9-5.9,25.4c-4,6.5-9.4,17.3-8.6,18.4c0.8,1.1,12.4,1.1,14.6,0
		c2.2-1.1,1.4,13,2.7,14.3c1.3,1.3,10.8-3.5,12.7-4.3c1.9-0.8,4.6-0.3,4.6-0.3s4.3,16.7,3.8,24.6c-0.5,7.8-5.4,31.6-4.6,35.4
		c0.8,3.8,1.9,5.4,1.9,5.4l2.7-2.2c0,0-1.8,23.5,0,28.6c1.8,5.1,5.4,14.3,8,20c2.7,5.7,6.2,13.8,10,17.3c3.8,3.5,7.3,7.3,7.3,7.3
		s0.8-5.4,1.3-8.4c0.5-3-1.1-14.8-1.4-20.8c-0.3-5.9,5.1-21.6,5.1-21.6s4.6,22.7,4.6,28.9s-0.5,27.8,0,33.2
		c0.5,5.4,1.9,15.7,1.9,19.7s4.6,11.3,7.6,14.6c3,3.2,7.6,8.4,8.1,10.8c0.5,2.4,2.2,4.9,2.2,4.9s3-20.2,2.4-24
		c-0.5-3.8,6.5-22.9,8.6-27.3c2.2-4.3,10.5-11.3,12.4-13.8s3.2-4.3,3.2-4.3s1.6,26.7,0,34.5s-4.3,21.6-4.3,25.4
		c0,3.8-5.4,17.5-6.7,18.9c0,0,10.5-0.8,13.8-3.8c3.2-3,11.1-14.3,14.6-19.4c3.5-5.1,14-25.9,16.5-34.3c2.4-8.4,4.9-10,4.3-14.8
		c-0.5-4.9-1.2-28.6,0.1-35.1c1.3-6.5,0-13.5,0-13.5s7.8,5.4,9.1,5.4c1.3,0,1.9-8.9,2.4-13s3.5-11.3,2.7-15.7s0.3-13.5,2.4-14.6
		c2.2-1.1,5.1,0,5.4-1.6c0.3-1.6-0.3-15.4,0-22.1c0.3-6.7-2.2-15.7-2.7-18.9c-0.5-3.2,2.3-12.4,2.8-13.2c0.5-0.8,16.7,0.3,19.9,1.6
		c3.2,1.3,8.4,1.6,9.4,1.1C361.2,225.8,353.1,212.8,351.8,208z"/>
	<g>
		<path class="st5" d="M296.7,398.5c-0.3-2.5-0.4-5-0.5-7.6c-0.1-2.5-0.1-5-0.1-7.6c0-5,0.2-10.1,0.6-15.1c0.4,2.5,0.6,5,0.7,7.6
			c0.1,2.5,0.2,5,0.2,7.6c0,2.5-0.1,5-0.2,7.6C297.3,393.5,297.1,396,296.7,398.5z"/>
	</g>
	<g>
		<path class="st5" d="M247.3,398.5c-0.9-6.5-1.3-13-1.4-19.6c0-3.3,0-6.5,0.2-9.8c0.2-3.3,0.5-6.6,1.3-9.8
			c-0.2,3.3-0.1,6.5-0.1,9.8l0.1,9.8C247.5,385.4,247.6,392,247.3,398.5z"/>
	</g>
	<g>
		<path class="st5" d="M241.3,390.4c0.3,2.7,0.5,5.4,0.6,8.1c0.1,2.7,0.2,5.4,0.2,8.1c0,2.7,0,5.4-0.2,8.1c-0.1,2.7-0.3,5.4-0.6,8.1
			c-0.3-2.7-0.5-5.4-0.6-8.1c-0.1-2.7-0.2-5.4-0.2-8.1c0-2.7,0-5.4,0.2-8.1C240.8,395.8,240.9,393.1,241.3,390.4z"/>
	</g>
	<path class="st5" d="M160.7,111.3c-0.2,1.1,7.1,4.3,8.3,4.3s18.8-8.9,18.8-8.9s-4.3,4.5-4,5.5s4.7,0.2,7.1,1.2
		c2.4,1,6.5,1.4,8.1-0.2c1.6-1.6,9.3-7.1,10.7-6.5s31.6-1.1,38.5,0c6.9,1.1,17.4,3.9,25.5,3.5c8.1-0.4,18.6-3,23.3-3.8
		c4.7-0.8,13,3.6,16,4.7c3,1,4.5,1.4,5.3,1.2c0.8-0.2,2-6.5,3.2-6s10.9,1.7,14.6,1.7c3.6,0,10.7,1.8,11.7,1.6c1-0.2,3.4-6.7,3.4-6.7
		s-6.3-1.8-11.1-3.2c-4.9-1.4-15.2-3.2-15.2-3.2s7.3-0.4,7.7-1.2c0.4-0.8-10.9-3-14.6-3.4c-3.6-0.4-15.4-2.6-19.2-3.8
		c-3.8-1.2-7.9-2.8-7.9-2.8s-3.8-6.9-4.3-9.7c-0.4-2.8,1.8-16.4,1.6-18.6c-0.2-2.2-7.3-12.3-8.7-15.8c-1.4-3.4-2.2-14-1.6-15
		c0.6-1,1.6-1.2,1.6-1.2s8.1,0,9.9,3c1.8,3,3.8,6.3,5.5,7.9c1.6,1.6,4.5,7.3,5.1,10.3c0.6,3,1.8,5.1,2.6,5.3
		c0.8,0.2,4.7,0.2,4.7,0.2s-1.6-7.1-2.2-9.5c-0.6-2.4-2.2-8.5-2.2-8.5s4.9,3.6,7.5,5.5s4.9,2.2,4.9,2.2s1.6-4,1.2-5.3
		c-0.4-1.2-5.9-5.7-7.7-7.5c-1.8-1.8-4.7-3.6-4.7-3.6l4.9-2c0,0,0.6-2-1.8-2.4s-13.4-7.1-16.6-10.3c-3.2-3.2-9.7-8.7-13.6-8.9
		s-10.5-2-11.1,0c-0.6,2-5.3,7.1-5.9,10.5c-0.6,3.4-2.8,10.5-4.9,12.3c-2,1.8-9.5,7.7-13.6,10.7c-4,3-6.1,4.7-6.3,6.5
		c-0.2,1.8-2.8,17.8-5.3,23.9S222,75,220,78.7c-2,3.6-4.5,6.9-4.5,6.9s-5.1,0.6-10.3,3.8s-16.8,7.9-24.3,11.1
		C173.4,103.8,161.1,109,160.7,111.3z"/>
	<path class="st6" d="M296.9,106.2c-4.7,0.8-15.2,3.4-23.3,3.8c-8.1,0.4-18.6-2.4-25.5-3.5c-6.9-1.1-37,0.7-38.5,0
		c-1-0.4-5.5,2.4-8.4,4.6c-2.9,9.3-8.2,30.4-1.1,42.8c9.3,16.2,49.6,31.4,80.8,20c30.4-11.1,34.6-48.3,24.9-66.1
		C302.7,106.8,299.3,105.8,296.9,106.2z"/>
	<path class="st1" d="M279.5,24.6c0,0,8.1,0,9.9,3c1.8,3,3.8,6.3,5.5,7.9c1.6,1.6,4.5,7.3,5.1,10.3c0.6,3,1.8,5.1,2.6,5.3
		c0.8,0.2,4.7,0.2,4.7,0.2s-1.6-7.1-2.2-9.5c-0.6-2.4-2.2-8.5-2.2-8.5s4.9,3.6,7.5,5.5s4.9,2.2,4.9,2.2s0.5-1.3,0.9-2.6
		c-7.6-6.9-21.4-18.8-27.5-20.1c-8.8-1.8-10.7,0-10.6,7.5C278.5,24.8,279.5,24.6,279.5,24.6z"/>
	<path class="st1" d="M298.7,87.8c-3.8-1.2-7.9-2.8-7.9-2.8s-3.8-6.9-4.3-9.7c-0.4-2.8,1.8-16.4,1.6-18.6
		c-0.2-2.2-7.3-12.3-8.7-15.8c-1.4-3.4-2.2-14-1.6-15c0,0-7.4,6.4-3.3,17.5c4.1,11.1-5.3,24.8-2.8,35.5
		c2.5,10.7,41.4,12.1,41.4,12.1C308.2,90,301.5,88.7,298.7,87.8z"/>
	<path class="st1" d="M312.9,110.9c3,1,4.5,1.4,5.3,1.2c0.7-0.2,1.7-4.6,2.7-5.7c-1.6,0.5-7,1.5-18.1-3.1
		c-13.6-5.7-26.3-2.4-48.6-5.8c-22.3-3.4-51.1,1.8-44.6-3.8c6.5-5.5,34.5-13.4,39.3-14.9c4.8-1.5-1.6-10.4-5-25.8
		c-3.4-15.4,6-23.3,6-23.3l-1-0.8c-2.6,2-5.4,4.2-7.4,5.7c-4,3-6.1,4.7-6.3,6.5c-0.2,1.8-2.8,17.8-5.3,23.9S222,75,220,78.7
		c-2,3.6-4.5,6.9-4.5,6.9s-5.1,0.6-10.3,3.8s-16.8,7.9-24.3,11.1c-7.5,3.2-19.8,8.5-20.2,10.7c-0.2,1.1,7.1,4.3,8.3,4.3
		s18.8-8.9,18.8-8.9s-4.3,4.5-4,5.5s4.7,0.2,7.1,1.2c2.4,1,6.5,1.4,8.1-0.2c1.6-1.6,9.3-7.1,10.7-6.5s31.6-1.1,38.5,0
		c6.9,1.1,17.4,3.9,25.5,3.5c8.1-0.4,18.6-3,23.3-3.8C301.6,105.4,309.9,109.9,312.9,110.9z"/>
	<g class="st2">
		<path class="st3" d="M280.8,77.8c0.9,0.3,1.8,0.7,2.8,1C283.6,78.8,282.7,78.4,280.8,77.8z"/>
		<path class="st3" d="M280.8,77.8c-28.4-15.5-41.6-28.7-44.8-38.6c-0.5,0.6-0.8,1.2-0.8,1.8c-0.2,1.8-2.8,17.8-5.3,23.9
			S222,75,220,78.7c-2,3.6-4.5,6.9-4.5,6.9s-5.1,0.6-10.3,3.8s-16.8,7.9-24.3,11.1c-7.5,3.2-19.8,8.5-20.2,10.7
			c-0.2,1.1,7.1,4.3,8.3,4.3s18.8-8.9,18.8-8.9s-4.3,4.5-4,5.5s4.7,0.2,7.1,1.2c1.7,0.7,4.1,1.1,6,0.7c-5.6-14.5,9.5-20.3,36.3-31.9
			C256.4,72.2,274.2,75.8,280.8,77.8z"/>
	</g>
	<path class="st1" d="M285.8,51.6L285.8,51.6c-2.3-3.8-5.4-8.6-6.3-10.8c-1.4-3.4-2.2-14-1.6-15c0.6-1,1.6-1.2,1.6-1.2s8.1,0,9.9,3
		c1.8,3,3.8,6.3,5.5,7.9c1.6,1.6,4.5,7.3,5.1,10.3c0.6,3,1.8,5.1,2.6,5.3c0.8,0.2,4.7,0.2,4.7,0.2s-8.6-14.2-12-20.4
		s-11.2-14.4-21.2-5.1C264.1,35.2,279.4,45.1,285.8,51.6z"/>
	<path class="st7" d="M291.5,168.4c-67.6,16.6-75.8-28.4-65.5-46.6c8.5-14.8,61-8.7,82.9-5.5c-0.8-3.1-1.9-5.9-3.2-8.4
		c-3.1-1.2-6.5-2.2-8.9-1.7c-4.7,0.8-15.2,3.4-23.3,3.8c-8.1,0.4-18.6-2.4-25.5-3.5c-6.9-1.1-37,0.7-38.5,0c-1-0.4-5.5,2.4-8.4,4.6
		c-2.9,9.3-8.2,30.4-1.1,42.8c9.3,16.2,49.6,31.4,80.8,20C284.9,172.6,288.4,170.7,291.5,168.4z"/>
	<g>
		<path class="st8" d="M213.8,120.8c0,0,20,14.3,36.1,15.7c0,0-17.8,12.4-23.8,11.9c-6-0.5-15.7-3.5-16.4-13.8
			S213.8,120.8,213.8,120.8z"/>
		<path class="st8" d="M290,115.5c0,0-17.1,18.8-29.2,22.5c0,0,18.7,6.7,23.4,5.4c4.7-1.4,14.4-8.4,14.7-12.1
			C299.2,127.5,294,117.5,290,115.5z"/>
	</g>
	<path class="st7" d="M208,162.5c-2.3-30.2,12.6-47.2,26.1-56.2c-10.8,0.2-23.4,0.7-24.3,0.3c-1-0.4-5.5,2.4-8.4,4.6
		c-2.9,9.3-8.2,30.4-1.1,42.8C201.8,156.9,204.5,159.8,208,162.5z"/>
	<path class="st7" d="M301.8,157.9c-97.4,38.4-99.9-25.2-97.8-48.6c-1,0.6-2,1.3-2.8,2c-2.9,9.3-8.2,30.4-1.1,42.8
		c9.3,16.2,49.6,31.4,80.8,20C290.2,170.6,297,164.8,301.8,157.9z"/>
	<g>
		<g>
			<g>
				<path class="st5" d="M185.3,231.2c-0.8-2.3-1.4-4.6-1.9-7c-0.5-2.4-0.9-4.7-1.2-7.1c-0.3-2.4-0.5-4.8-0.6-7.2
					c-0.1-2.4,0-4.8,0.2-7.3c0.4,2.4,0.6,4.8,0.9,7.2l0.9,7.1C184.2,221.6,184.8,226.4,185.3,231.2z"/>
			</g>
			<g>
				<path class="st5" d="M189,216.9c1,2.7,1.8,5.4,2.7,8.1c0.8,2.7,1.6,5.4,2.3,8.2c1.5,5.5,2.6,11,3.5,16.7
					c0.4,2.8,0.7,5.7,0.8,8.5c0.1,2.8,0.2,5.7,0.2,8.5c0,2.8,0,5.7-0.2,8.5c-0.2,2.8-0.3,5.7-0.7,8.5c0.1-2.8,0.1-5.7,0-8.5
					c0-2.8-0.1-5.6-0.3-8.5c-0.1-2.8-0.3-5.6-0.4-8.5c-0.2-2.8-0.5-5.6-0.9-8.4c-0.8-5.6-1.9-11.1-3.1-16.6
					c-0.6-2.8-1.2-5.5-1.9-8.3C190.4,222.4,189.7,219.6,189,216.9z"/>
			</g>
			<g>
				<path class="st5" d="M198,290.6c0.3,1.3,0.4,2.5,0.5,3.7c0.1,1.2,0.1,2.5,0.1,3.7c0,2.5-0.2,5-0.7,7.5c-0.4-1.2-0.5-2.5-0.7-3.7
					c-0.1-1.2-0.2-2.5-0.2-3.7c0-1.2,0.1-2.5,0.2-3.7C197.5,293,197.7,291.8,198,290.6z"/>
			</g>
			<g>
				<path class="st5" d="M214.4,337.2c-0.7-1.8-1.2-3.6-1.6-5.4c-0.4-1.8-0.8-3.7-1-5.5c-0.3-1.9-0.4-3.7-0.5-5.6
					c-0.1-1.9,0-3.8,0.4-5.6c0.2,1.9,0.5,3.7,0.7,5.5l0.8,5.5C213.7,329.8,214.3,333.5,214.4,337.2z"/>
			</g>
			<g>
				<path class="st5" d="M219.5,316.7c-1-4.2-1.7-8.4-2.1-12.7c-0.2-2.1-0.4-4.3-0.5-6.4c-0.1-2.2,0-4.3,0-6.5
					c0.1-4.3,0.3-8.6,0.5-12.9c0.2-4.3,0.6-8.6,1.1-12.8c0.2,8.6,0,17.1-0.1,25.7c-0.1,4.3-0.1,8.5,0.1,12.8
					C218.8,308.2,219.1,312.5,219.5,316.7z"/>
			</g>
			<g>
				<path class="st5" d="M218.6,257.4c-0.4-1.1-0.6-2.3-0.8-3.5c-0.2-1.2-0.3-2.3-0.4-3.5c-0.1-1.2-0.1-2.3-0.1-3.5
					c0-1.2,0.1-2.4,0.3-3.5c0.4,1.1,0.6,2.3,0.8,3.5c0.2,1.2,0.3,2.3,0.4,3.5c0.1,1.2,0.1,2.3,0.1,3.5
					C218.9,255,218.8,256.2,218.6,257.4z"/>
			</g>
			<g>
				<path class="st5" d="M301.6,204.2c-1.2,2.6-2.8,5-4.6,7.2c-1.8,2.2-3.8,4.3-6.1,6.1c-2.2,1.8-4.7,3.4-7.3,4.6
					c-2.6,1.3-5.4,2-8.2,2.3c2.7-1,5.3-2,7.7-3.4c2.4-1.4,4.8-2.9,6.9-4.7C294.3,212.8,298.1,208.7,301.6,204.2z"/>
			</g>
			<g>
				<path class="st5" d="M290,224.4c-0.5,1.8-2,3.2-3.6,4.2c-1.6,1-3.4,1.7-5.2,2.1c-0.9,0.2-1.8,0.4-2.7,0.5
					c-0.9,0.1-1.8,0.2-2.7,0.2c-0.9,0-1.8,0-2.7,0c-0.9-0.1-1.8-0.2-2.7-0.3c0.9-0.2,1.8-0.3,2.7-0.4l2.7-0.4l2.6-0.5
					c0.9-0.2,1.7-0.3,2.6-0.6c1.7-0.4,3.4-1,5-1.7C287.4,226.8,288.9,225.9,290,224.4z"/>
			</g>
			<g>
				<path class="st5" d="M205.5,177.2c0,4.3,0.3,8.5,1.3,12.6c0.5,2,1.2,4,2.1,5.9c0.9,1.9,2.1,3.6,3.4,5.3
					c-1.7-1.3-3.3-2.9-4.4-4.8c-1.1-1.9-2-3.9-2.5-6.1c-0.5-2.1-0.7-4.3-0.7-6.5C204.6,181.4,204.9,179.3,205.5,177.2z"/>
			</g>
			<g>
				<path class="st5" d="M317.8,243.3c0.4,2.1,0.7,4.3,1,6.4c0.3,2.1,0.4,4.3,0.6,6.5c0.1,2.2,0.2,4.3,0.2,6.5c0,2.2,0,4.3-0.2,6.5
					c-0.4-2.1-0.7-4.3-1-6.4c-0.3-2.1-0.4-4.3-0.6-6.4c-0.1-2.2-0.2-4.3-0.2-6.5C317.6,247.7,317.6,245.5,317.8,243.3z"/>
			</g>
			<g>
				<path class="st5" d="M308.7,317.3c-0.6-2.7-1-5.3-1.3-8c-0.4-2.7-0.6-5.4-0.9-8.1c-0.2-2.7-0.4-5.4-0.5-8.1
					c-0.1-2.7-0.1-5.4,0.2-8.2c0.4,2.7,0.7,5.4,1,8.1c0.3,2.7,0.6,5.4,0.8,8.1c0.2,2.7,0.4,5.4,0.5,8.1
					C308.6,311.8,308.7,314.5,308.7,317.3z"/>
			</g>
			<g>
				<path class="st5" d="M270.5,359.4c-0.5-2.1-0.8-4.2-1.1-6.4c-0.3-2.1-0.5-4.3-0.7-6.4c-0.3-4.3-0.5-8.5-0.4-12.9
					c0.6,2.1,0.9,4.2,1.2,6.3c0.3,2.1,0.5,4.3,0.7,6.4c0.2,2.1,0.3,4.3,0.3,6.4C270.7,355.1,270.7,357.2,270.5,359.4z"/>
			</g>
			<g>
				<path class="st5" d="M274.6,309.4c0.5,3.4,0.9,6.9,1.4,10.3l1.1,10.4c0.7,6.9,1.3,13.8,1.8,20.8c0.4,6.9,0.8,13.9,0.9,20.8
					c0,6.9,0.1,14-1.1,20.8c0.3-3.5,0.4-6.9,0.3-10.4c0-3.5-0.2-6.9-0.3-10.4c-0.3-6.9-0.8-13.9-1.2-20.8l-1.4-20.8l-0.7-10.4
					L274.6,309.4z"/>
			</g>
			<g>
				<path class="st5" d="M268.4,296.8c0.3,1.2,0.5,2.5,0.6,3.7c0.1,1.2,0.2,2.5,0.2,3.7c0,1.2,0,2.5-0.2,3.7
					c-0.1,1.2-0.3,2.5-0.6,3.7c-0.3-1.2-0.5-2.5-0.6-3.7c-0.1-1.2-0.2-2.5-0.2-3.7c0-1.2,0-2.5,0.2-3.7
					C267.9,299.2,268.1,298,268.4,296.8z"/>
			</g>
			<g>
				<path class="st5" d="M281.9,275.4c1,8.9,1.5,17.9,2.1,26.8l0.7,13.4l0.3,6.7c0.1,2.2,0.2,4.5,0.4,6.7c-1-4.4-1.5-8.9-1.9-13.3
					c-0.4-4.5-0.7-9-1-13.4C282,293.4,281.7,284.4,281.9,275.4z"/>
			</g>
			<g>
				<path class="st5" d="M304.6,261.4c0.3,1.2,0.5,2.3,0.6,3.5c0.1,1.2,0.2,2.3,0.2,3.5c0,1.2,0,2.3-0.2,3.5
					c-0.1,1.2-0.3,2.3-0.6,3.5c-0.3-1.2-0.5-2.3-0.6-3.5c-0.1-1.2-0.2-2.3-0.2-3.5c0-1.2,0-2.3,0.2-3.5
					C304.1,263.7,304.2,262.6,304.6,261.4z"/>
			</g>
			<g>
				<path class="st5" d="M228.7,302.3c0.6,2.7,1.2,5.4,1.8,8.1l1.6,8.2c1,5.5,1.9,10.9,2.7,16.4c0.4,2.8,0.8,5.5,1.1,8.3
					c0.2,2.8,0.4,5.6,0.4,8.4c0,2.8-0.1,5.6-0.3,8.3c-0.3,2.8-0.5,5.5-1.1,8.3c0.2-2.8,0.3-5.5,0.4-8.3c0-2.8,0-5.5-0.1-8.3
					c-0.2-2.8-0.4-5.5-0.7-8.2c-0.3-2.7-0.7-5.5-1.1-8.2l-2.4-16.5l-1.2-8.2C229.4,307.8,229,305.1,228.7,302.3z"/>
			</g>
			<g>
				<path class="st5" d="M235.8,284.9c0.3,2,0.5,4.1,0.6,6.1c0.1,2,0.2,4.1,0.2,6.1c0,2,0,4.1-0.2,6.1c-0.1,2-0.3,4.1-0.6,6.1
					c-0.3-2-0.5-4.1-0.6-6.1c-0.1-2-0.2-4.1-0.2-6.1c0-2,0-4.1,0.2-6.1C235.3,289,235.4,286.9,235.8,284.9z"/>
			</g>
			<g>
				<path class="st5" d="M324.5,212.8c1.7-0.4,3.5-0.5,5.3-0.4c1.8,0,3.5,0.2,5.3,0.5c1.7,0.3,3.5,0.8,5.1,1.4
					c1.6,0.7,3.2,1.5,4.6,2.6c-1.7-0.6-3.3-1.1-5-1.5c-1.7-0.4-3.3-0.8-5-1C331.4,213.7,328,213.3,324.5,212.8z"/>
			</g>
		</g>
		<g>
			<g>
				<g>
					<g>
						<g>
							<path class="st4" d="M215.5,182.1c4.3-0.7,8.6-1,13-1.2c4.3-0.2,8.7-0.3,13,0c-4.3,0.7-8.6,1-13,1.2
								C224.2,182.3,219.8,182.4,215.5,182.1z"/>
						</g>
						<g>
							<path class="st4" d="M216.2,186.9c1.7-0.5,3.3-0.6,5-0.6c1.7,0,3.3,0.1,5,0.6c-1.7,0.5-3.3,0.6-5,0.6
								C219.5,187.5,217.8,187.4,216.2,186.9z"/>
						</g>
						<g>
							<path class="st4" d="M262.7,179.1c5.1-0.6,10.1-0.8,15.2-1c2.5-0.1,5.1-0.1,7.6-0.1c2.5,0,5.1,0,7.6,0.1
								c-2.5,0.5-5,0.7-7.6,0.9c-2.5,0.2-5.1,0.3-7.6,0.4C272.9,179.5,267.8,179.5,262.7,179.1z"/>
						</g>
						<g>
							<path class="st4" d="M284.2,182.1c3-0.5,6.1-0.6,9.1-0.6c3,0,6.1,0.1,9.1,0.6c-3,0.5-6.1,0.6-9.1,0.6
								C290.2,182.7,287.2,182.6,284.2,182.1z"/>
						</g>
						<g>
							<path class="st4" d="M253.7,190.3c2.3-0.7,4.7-1,7-1.2c2.4-0.2,4.7-0.2,7.1,0.1c-2.3,0.7-4.7,1-7,1.2
								C258.5,190.5,256.1,190.6,253.7,190.3z"/>
						</g>
						<g>
							<path class="st4" d="M343.9,183.3c1.5-0.3,3.1-0.5,4.6-0.6c1.5-0.1,3.1-0.2,4.6-0.2c1.5,0,3.1,0,4.6,0.2
								c1.5,0.1,3.1,0.3,4.6,0.6c-3.1,0.3-6.1,0.4-9.2,0.4C350,183.8,347,183.7,343.9,183.3z"/>
						</g>
						<g>
							<path class="st4" d="M369.2,183.3c1.3-0.5,2.6-0.6,3.8-0.6c1.3,0,2.6,0.1,3.8,0.6c-1.3,0.5-2.6,0.6-3.8,0.6
								C371.8,183.9,370.5,183.8,369.2,183.3z"/>
						</g>
						<g>
							<path class="st4" d="M373,178.1c5.9-0.5,11.7-0.6,17.6-0.5c2.9,0.1,5.9,0.2,8.8,0.4c2.9,0.2,5.9,0.5,8.8,1.2
								c-2.9-0.1-5.9-0.1-8.8-0.2l-8.8-0.1C384.8,178.7,378.9,178.5,373,178.1z"/>
						</g>
						<g>
							<path class="st4" d="M397.1,186.2c2-0.5,3.9-0.6,5.9-0.6c2,0,3.9,0.1,5.9,0.6c-2,0.5-3.9,0.6-5.9,0.6
								C401.1,186.8,399.1,186.7,397.1,186.2z"/>
						</g>
						<g>
							<path class="st4" d="M364.1,198.3c1.5,0.3,3,0.8,4.5,1.4c1.4,0.6,2.8,1.3,4.2,2c1.3,0.8,2.7,1.6,3.8,2.7
								c1.2,1,2.3,2.2,3.1,3.6c-1.2-1-2.4-1.9-3.6-2.8c-1.3-0.8-2.6-1.6-3.9-2.4c-1.3-0.8-2.7-1.5-4-2.2
								C366.8,199.8,365.5,199.1,364.1,198.3z"/>
						</g>
						<g>
							<path class="st4" d="M164.4,184.8c-1.9,0.4-3.7,0.4-5.6,0.4c-0.9,0-1.8,0-2.8-0.1c-0.9-0.1-1.9-0.2-2.8-0.3
								c1.8-0.6,3.7-0.8,5.6-0.8c0.9,0,1.9,0.1,2.8,0.2C162.5,184.3,163.5,184.4,164.4,184.8z"/>
						</g>
						<g>
							<path class="st4" d="M91.6,186.9c1.3-0.8,2.7-1.4,4.1-1.8c1.4-0.5,2.9-0.8,4.3-1.1c2.9-0.6,5.9-0.8,8.9-0.6
								c-1.4,0.4-2.9,0.7-4.3,1l-4.3,0.9C97.4,185.7,94.5,186.3,91.6,186.9z"/>
						</g>
						<g>
							<path class="st4" d="M110.7,179.7c2.3-0.5,4.7-0.6,7-0.6c2.3,0,4.7,0.1,7,0.6c-2.3,0.5-4.7,0.6-7,0.6
								C115.3,180.3,113,180.2,110.7,179.7z"/>
						</g>
					</g>
					<g>
						<path class="st4" d="M108.9,209.7c2.8-3.7,6.4-6.9,10.2-9.7c1.9-1.4,4-2.6,6.1-3.6c2.1-1,4.4-1.8,6.7-2.3
							c-2.1,1-4.2,2-6.2,3.1c-2,1.2-3.9,2.4-5.8,3.7c-1.9,1.3-3.7,2.7-5.5,4.2C112.4,206.7,110.6,208.2,108.9,209.7z"/>
					</g>
				</g>
				<g>
					<path class="st4" d="M257.9,189.7c0.5,3,0.6,6.1,0.6,9.1c0,3-0.1,6.1-0.6,9.1c-0.5-3-0.6-6.1-0.6-9.1
						C257.3,195.8,257.4,192.8,257.9,189.7z"/>
				</g>
				<g>
					<path class="st4" d="M262.7,189.7c0.5,1.1,0.6,2.2,0.6,3.3c0,1.1-0.1,2.2-0.6,3.3c-0.5-1.1-0.6-2.2-0.6-3.3
						C262.1,191.9,262.2,190.8,262.7,189.7z"/>
				</g>
				<g>
					<path class="st4" d="M263.7,367.4c0.8,4.6,1.2,9.3,1.3,13.9c0,2.3,0,4.7-0.2,7c-0.2,2.3-0.5,4.7-1.1,6.9c0.2-2.3,0.1-4.6,0.1-7
						c0-2.3,0-4.6-0.1-7C263.7,376.7,263.6,372.1,263.7,367.4z"/>
				</g>
				<g>
					<path class="st4" d="M268.4,362.3c0.5,2.8,0.6,5.6,0.6,8.3c0,2.8-0.1,5.6-0.6,8.3c-0.5-2.8-0.6-5.6-0.6-8.3
						C267.8,367.8,267.9,365.1,268.4,362.3z"/>
				</g>
				<g>
					<path class="st4" d="M270.2,436.1c1.4,6,2.5,12,3.8,18c0.7,3,1,6.2,0.9,9.3c-0.1,3.1-0.5,6.2-1.3,9.1c0.3-3.1,0.4-6.1,0.3-9.1
						c-0.1-3-0.4-6-1.1-9C271.5,448.3,270.6,442.2,270.2,436.1z"/>
				</g>
				<g>
					<path class="st4" d="M270.2,466.5c-0.1,0.8-0.4,1.6-0.7,2.4l-0.8,2.3c-0.6,1.5-1.1,3.1-1.6,4.6c-0.5,1.5-1,3.1-1.3,4.7
						c-0.3,1.6-0.6,3.2-0.3,4.8c-0.8-1.5-0.8-3.3-0.7-5c0.2-1.7,0.6-3.3,1.1-4.9c0.5-1.6,1.2-3.1,1.9-4.6c0.4-0.7,0.8-1.5,1.2-2.2
						C269.4,468,269.9,467.3,270.2,466.5z"/>
				</g>
				<g>
					<path class="st4" d="M267.6,450.1c0.5,1.1,0.6,2.2,0.6,3.2c0,1.1-0.1,2.2-0.6,3.2c-0.5-1.1-0.6-2.2-0.6-3.2
						C267,452.2,267.1,451.2,267.6,450.1z"/>
				</g>
			</g>
			<g>
				<path class="st4" d="M266.1,404.2c0.5,2.5,0.6,5,0.7,7.6c0,2.5-0.1,5-0.6,7.6c-0.5-2.5-0.6-5-0.7-7.6
					C265.6,409.2,265.6,406.7,266.1,404.2z"/>
			</g>
		</g>
		<g>
			<g>
				<g>
					<path class="st9" d="M298.9,106.1c1.5,1.6,2.7,3.6,3.6,5.6c0.9,2,1.5,4.2,2,6.4c0.4,2.2,0.6,4.4,0.6,6.6c0,1.1-0.1,2.2-0.2,3.3
						c-0.1,1.1-0.3,2.2-0.6,3.3c-0.1-1.1-0.1-2.2-0.2-3.3c-0.1-1.1-0.1-2.2-0.2-3.2c-0.1-0.5-0.1-1.1-0.2-1.6
						c-0.1-0.5-0.1-1.1-0.2-1.6c-0.1-1.1-0.3-2.1-0.5-3.2c-0.4-2.1-0.9-4.2-1.6-6.2C300.7,110.1,299.9,108.1,298.9,106.1z"/>
				</g>
				<g>
					<path class="st9" d="M296.2,155.1c-0.8,2.1-2,4-3.4,5.6c-1.4,1.7-3.1,3.2-4.9,4.5c-0.5,0.3-0.9,0.6-1.4,0.9
						c-0.5,0.3-1,0.6-1.5,0.8c-1,0.4-2,0.9-3.1,1.2c-2.1,0.7-4.3,1-6.5,1c2.1-0.7,4.2-1.2,6.1-2.1c2-0.8,3.8-1.9,5.5-3
						c1.8-1.2,3.4-2.5,4.9-4C293.5,158.4,294.9,156.8,296.2,155.1z"/>
				</g>
				<g>
					<path class="st9" d="M296.2,144.5c-0.2,1.3-0.5,2.5-1,3.7c-0.4,1.2-1,2.3-1.6,3.4c-0.6,1.1-1.4,2.1-2.2,3.1
						c-0.8,1-1.8,1.8-2.9,2.5l2-3.2l1.9-3.2C293.5,148.8,294.7,146.6,296.2,144.5z"/>
				</g>
				<g>
					<path class="st9" d="M294.3,106.7c0.6,0.6,1,1.3,1.3,2c0.3,0.7,0.6,1.4,0.7,2.2c0.2,0.8,0.3,1.5,0.2,2.3c0,0.8-0.1,1.6-0.4,2.3
						c-0.3-0.8-0.5-1.5-0.7-2.2c-0.2-0.7-0.4-1.4-0.5-2.1c-0.2-0.7-0.3-1.4-0.4-2.2C294.4,108.3,294.3,107.5,294.3,106.7z"/>
				</g>
				<g>
					<path class="st9" d="M209.7,106.6c-1.4,3.7-2.8,7.4-3.9,11.1c-0.6,1.9-1.1,3.7-1.6,5.6c-0.5,1.9-0.8,3.8-1.1,5.8
						c-0.3-2-0.3-4,0-6c0.3-2,0.7-4,1.3-5.9c0.6-1.9,1.3-3.8,2.2-5.6C207.4,109.9,208.4,108.2,209.7,106.6z"/>
				</g>
				<g>
					<path class="st9" d="M215.3,106.7c0,0.7-0.1,1.4-0.2,2c-0.1,0.6-0.4,1.2-0.6,1.8c-0.3,0.6-0.6,1.2-0.9,1.7
						c-0.4,0.5-0.8,1.1-1.3,1.5c0-0.7,0.1-1.4,0.2-2c0.1-0.6,0.4-1.2,0.6-1.8c0.3-0.6,0.6-1.2,0.9-1.7
						C214.4,107.7,214.8,107.2,215.3,106.7z"/>
				</g>
				<g>
					<path class="st9" d="M215.3,158.3c2.9,1.8,5.9,3.4,9,4.9c3.1,1.4,6.2,2.7,9.4,3.8c3.2,1.1,6.5,2,9.8,2.7
						c3.3,0.7,6.7,1.2,10.1,1.6c-0.9,0-1.7,0.1-2.6,0.1c-0.9,0-1.7,0-2.6,0l-2.6-0.2c-0.9,0-1.7-0.2-2.6-0.3c-1.7-0.2-3.4-0.6-5.1-1
						c-0.8-0.2-1.7-0.5-2.5-0.7c-0.8-0.2-1.7-0.5-2.5-0.8c-3.3-1.1-6.5-2.5-9.5-4.2C220.8,162.5,217.9,160.6,215.3,158.3z"/>
				</g>
				<g>
					<path class="st9" d="M245.7,165.9c3.1-0.2,6.1-0.2,9.1-0.2l4.5,0.1c1.5,0,3,0,4.5,0.1c-2.9,1.1-6,1.4-9,1.3
						c-1.5,0-3.1-0.1-4.6-0.3C248.7,166.7,247.2,166.4,245.7,165.9z"/>
				</g>
			</g>
			<g>
				<path class="st9" d="M279.8,117.9c-0.8,1.6-1.9,3-3,4.4c-1.2,1.4-2.4,2.6-3.8,3.8c-1.4,1.1-2.8,2.2-4.4,3.1
					c-1.5,0.9-3.2,1.7-4.8,2.2c1.4-1.1,2.8-2.1,4.2-3.2c1.4-1.1,2.7-2.1,4-3.3c1.3-1.1,2.6-2.3,3.9-3.4L279.8,117.9z"/>
			</g>
			<g>
				<path class="st9" d="M224.5,121.8c2.6,1.6,5,3.3,7.4,4.9c1.2,0.8,2.5,1.6,3.7,2.4c1.3,0.8,2.5,1.5,3.8,2.2
					c-1.5-0.2-3-0.6-4.4-1.2c-1.4-0.6-2.7-1.4-4-2.2c-1.2-0.9-2.4-1.8-3.6-2.8C226.4,124.1,225.3,123,224.5,121.8z"/>
			</g>
		</g>
		<g>
			<g>
				<path class="st4" d="M194.7,101.1c2.3-1.6,4.7-3.1,7.1-4.4c2.4-1.4,4.9-2.6,7.5-3.7c1.3-0.5,2.6-1.1,4-1.5
					c1.3-0.4,2.6-0.9,3.9-1.4c2.5-1.1,5-2.3,7.3-3.9c-1.9,2.1-4.3,3.7-6.8,5c-1.3,0.7-2.6,1.2-3.9,1.7c-1.3,0.5-2.6,1-3.8,1.5
					c-2.5,1.1-5.1,2.3-7.6,3.4C199.8,98.9,197.3,100.1,194.7,101.1z"/>
			</g>
			<g>
				<path class="st4" d="M231.1,85c-0.1,0.9-0.5,1.7-0.9,2.4c-0.4,0.8-0.9,1.5-1.5,2.1c-1.1,1.3-2.6,2.3-4.3,2.8
					c0.5-0.7,1.1-1.3,1.6-1.9c0.5-0.6,1.1-1.2,1.6-1.8C228.8,87.4,229.8,86.2,231.1,85z"/>
			</g>
			<g>
				<path class="st4" d="M258.1,29.7c-2.4,1.6-4.7,3.3-6.8,5.2c-2.1,1.9-4,4-5.7,6.3c-1.7,2.3-3,4.8-4,7.4c-1.1,2.6-1.5,5.5-2,8.3
					c-0.2-2.9,0-5.9,0.9-8.7l0.3-1.1l0.4-1c0.3-0.7,0.5-1.4,0.9-2l1.1-1.9c0.4-0.6,0.8-1.2,1.2-1.8c1.7-2.4,3.8-4.5,6.1-6.3
					C252.9,32.2,255.4,30.7,258.1,29.7z"/>
			</g>
			<g>
				<path class="st4" d="M247.6,46.2c-0.8,2.3-1.6,4.5-2.2,6.8c-0.3,1.1-0.6,2.3-0.8,3.4c-0.3,1.2-0.4,2.3-0.7,3.6
					c-0.4-1.2-0.5-2.4-0.5-3.7c0-1.2,0.2-2.5,0.5-3.7c0.3-1.2,0.8-2.4,1.4-3.4C246,48,246.7,47,247.6,46.2z"/>
			</g>
			<g>
				<path class="st4" d="M254.2,43.3c0.1,0.5,0.1,0.9,0.1,1.3c0,0.4-0.1,0.8-0.3,1.1c-0.1,0.4-0.3,0.7-0.6,1c-0.2,0.3-0.5,0.6-1,0.9
					c-0.1-0.5-0.1-0.9-0.1-1.3c0-0.4,0.1-0.8,0.3-1.1c0.1-0.4,0.3-0.7,0.6-1C253.5,43.9,253.8,43.6,254.2,43.3z"/>
			</g>
			<g>
				<path class="st4" d="M282.4,60.6c-0.3,3.7-0.5,7.3-0.4,10.9c0,1.8,0.2,3.6,0.4,5.4c0.3,1.8,0.7,3.5,1.2,5.3
					c-1.1-1.5-1.9-3.3-2.4-5.1c-0.5-1.8-0.7-3.7-0.8-5.6c0-1.9,0.1-3.7,0.4-5.6C281.2,64.1,281.7,62.3,282.4,60.6z"/>
			</g>
			<g>
				<path class="st4" d="M276.8,69.5c0.2,1.7,0.1,3.2,0.1,4.7l-0.1,2.3c0,0.8,0,1.5,0.1,2.3c-0.7-0.6-1-1.4-1.2-2.2
					c-0.2-0.8-0.3-1.7-0.2-2.5c0-0.8,0.2-1.6,0.4-2.4C276,71,276.3,70.2,276.8,69.5z"/>
			</g>
			<g>
				<path class="st4" d="M301.7,101.1c-3.4,0.9-6.9,1.7-10.3,2.4c-3.5,0.7-6.9,1.4-10.4,2c-3.6,0.5-7.2,0.5-10.7,0.1
					c-3.5-0.5-7-1.3-10.3-2.8c3.4,0.9,6.9,1.4,10.4,1.6c3.5,0.2,7,0.2,10.4-0.4c1.7-0.2,3.5-0.6,5.2-0.9c1.7-0.3,3.5-0.6,5.2-0.8
					C294.6,101.9,298.1,101.5,301.7,101.1z"/>
			</g>
			<g>
				<path class="st4" d="M307,97.4c-3.1,0.6-6.2,0.8-9.2,0.9c-1.5,0-3.1,0.1-4.6,0.1l-4.6,0.1c1.4-0.6,3-1,4.5-1.2
					c1.5-0.3,3.1-0.4,4.6-0.5c1.6,0,3.1-0.1,4.7,0C303.9,97,305.4,97.1,307,97.4z"/>
			</g>
			<g>
				<path class="st4" d="M277.9,25.8c-0.3-0.7-0.5-1.4-0.5-2.1c-0.1-0.7,0-1.4,0.2-2.1c0.2-0.7,0.4-1.4,0.9-2
					c0.4-0.6,1.1-1.2,1.8-1.3c-0.4,0.6-0.6,1.2-0.8,1.8c-0.2,0.6-0.3,1.2-0.5,1.8C278.7,23.2,278.5,24.5,277.9,25.8z"/>
			</g>
			<g>
				<path class="st4" d="M278.2,22.1c0.9-0.7,1.9-1.1,3-1.4c1.1-0.3,2.2-0.5,3.4-0.4c1.1,0,2.3,0.3,3.4,0.8c1.1,0.5,2,1.3,2.6,2.2
					c-1-0.5-2-0.9-3-1.1c-1-0.2-2-0.3-3-0.4C282.5,21.6,280.4,21.9,278.2,22.1z"/>
			</g>
			<g>
				<path class="st4" d="M291.1,18.4c1.4,0.9,2.6,1.9,3.8,3c1.2,1.1,2.3,2.3,3.3,3.5c1,1.3,2,2.5,2.8,4c0.8,1.4,1.5,2.9,1.8,4.5
					c-0.9-1.4-1.8-2.6-2.8-3.8c-1-1.2-2-2.5-3-3.7C295,23.4,292.9,21,291.1,18.4z"/>
			</g>
			<g>
				<path class="st4" d="M300,21c0.5,0.1,1,0.3,1.4,0.5c0.4,0.2,0.8,0.5,1.1,0.8c0.3,0.3,0.6,0.6,0.9,1c0.3,0.4,0.5,0.8,0.6,1.4
					c-0.5-0.1-1-0.3-1.4-0.5c-0.4-0.2-0.8-0.5-1.1-0.8c-0.3-0.3-0.6-0.6-0.9-1C300.3,21.9,300.1,21.5,300,21z"/>
			</g>
		</g>
	</g>
</g>
</svg>
