<?xml version="1.0" encoding="utf-8"?>
<!-- Generator: Adobe Illustrator 25.4.1, SVG Export Plug-In . SVG Version: 6.00 Build 0)  -->
<svg version="1.1" id="Layer_1" xmlns="http://www.w3.org/2000/svg" xmlns:xlink="http://www.w3.org/1999/xlink" x="0px" y="0px"
	 viewBox="0 0 500 500" style="enable-background:new 0 0 500 500;" xml:space="preserve">
<style type="text/css">
	.st0{fill:#644936;}
	.st1{opacity:0.5;fill:#380606;}
	.st2{opacity:0.3;fill:#380606;}
	.st3{opacity:0.3;}
	.st4{fill:#380606;}
	.st5{fill:#FACD63;}
	.st6{opacity:0.3;fill:#C65D02;}
	.st7{fill:#201B1B;}
	.st8{fill:#45B8FF;}
</style>
<g id="Bole">
	<path class="st0" d="M128.9,222.4c0,0-15.3,11.4-21.8,7.9s-14.8-13.1-21-11.8c-6.1,1.3-16.6,6.5-19.6,3.9
		c-3.1-2.6-10.5-7.2-11.8-4.1c-1.3,3.2,3.1,17,9.6,17.7c6.5,0.7,19.2-1.9,23.6,4.2c4.4,6.1,9.2,22.7,36.2,16.6
		C151.1,250.8,128.9,222.4,128.9,222.4z"/>
	<path class="st1" d="M128.9,222.4c0,0-15.3,11.4-21.8,7.9s-14.8-13.1-21-11.8c-6.1,1.3-16.6,6.5-19.6,3.9
		c-3.1-2.6-10.5-7.2-11.8-4.1c-1.3,3.2,3.1,17,9.6,17.7c6.5,0.7,19.2-1.9,23.6,4.2c4.4,6.1,9.2,22.7,36.2,16.6
		C151.1,250.8,128.9,222.4,128.9,222.4z"/>
	<path class="st0" d="M370.3,212.8c0,0,25.3,8.5,31,4.5c5.7-4,13.5-14.1,20.5-13.2c7,0.9,23.1,6.8,26.6,7.1c3.5,0.3-5.2,7.5-10,7.2
		c-4.8-0.3-14-2.7-16.6,0c-2.6,2.7-15.7,20.6-34.9,21.9C367.7,241.6,370.3,212.8,370.3,212.8z"/>
	<path class="st0" d="M124.9,132c-3.1-0.3-6.1,21.8-6.1,32.3c0,10.5-1.3,13.1,3.1,23.6c4.4,10.5,4.4,20.1,3.1,25.8
		c-1.3,5.7-7.7,8.3-2.8,14.4s4.2,16.2,0,23.1c-4.2,7-17.8,20.7-27.4,16.3s-20.1-7.9-27.1-3.8c-7,4.1-14.4,12.6-24.5,18.6
		c-10,6-17.9,8.2-22.7,5.6S7.5,282.6,3.1,287s-3.9,12.7,0,11.8c3.9-0.9,10.5-1.6,18.8,0.1s15.7,5.3,27.1,0s17.9-3.5,31-3.5
		c13.1,0,47.2,2.6,56.3,0c9.2-2.6,21.8-7.4,21.8-7.4s-7,40.2-22.7,46.3c-15.7,6.1-33.2,1.7-40.6,7.9s-13.5,22.2-8.3,24.6
		c5.2,2.4,23.1,2.8,23.6,0c0.4-2.8-7-8,1.3-12.4s26.6,2.6,38.9,0c12.2-2.6,31.9-10.5,34.9-17.5c3.1-7,3.1-18.3,9.6-25.3
		s23.6-18.3,31.4-15.7c7.9,2.6,22.7,9.2,32.7,6.1c10-3.1,35.4-6.1,43.2-3.5c7.9,2.6,18.8,14.8,37.1,16.6c18.3,1.7,45.8,0.4,56.8-1.3
		s20.1,3.5,23.1,10c3.1,6.5,0.4,13.1,5.7,13.5c5.2,0.4,15.7-3.9,14-12.2s-8.3-17-19.6-21.4s-31.9-6.5-41.5-9.2
		c-9.6-2.6-21-12.7-21-12.7s13.5-7.4,22.7-5.7c9.2,1.7,19.2,7.9,31.4,3.1s19.6-4.8,28.1-3.5c8.5,1.3,28.6-0.4,35.6-3.5
		c7-3.1,23.1,2.2,24.9-0.9c1.7-3.1-5.2-9.2-12.2-10.9c-7-1.7-36.7,0.4-46.7-5.2c-10-5.7-10-7.9-18.8-8.3c-8.7-0.4-24.1-1-32.3-8.7
		c-7-6.5-14.8-15.7-14.8-21.4c0-5.7,4.4-7.9,3.1-13.1c-1.3-5.2-0.9-12.2-0.4-18.8c0.4-6.5,1.3-13.1,0.9-14.4s-17.9-10-37.6-11.8
		c-19.6-1.7-55.5-6.5-83-2.4c-27.5,4.1-46.7,2.4-63.3,4.1s-33.6,3.9-35.4,3.9c-1.7,0-5.2-16.6-7.4-16.6s-2.6,17.9-4.4,18.3
		c-1.7,0.4-14.9,4.8-15.5,2.6C131.1,166.5,130.2,132.4,124.9,132z"/>
	<path class="st2" d="M306.7,279.7c-23.9-11.6-55.3,11.6-64-8.5c-8.7-20.1-17.5-21.2-36.1-39.8s-17.5-60.7-17.5-60.7v-9.7
		c-14.8,1.6-28.6,3.4-30.1,3.4c-1.7,0-5.2-16.6-7.4-16.6s-2.6,17.9-4.4,18.3c-1.7,0.4-14.9,4.8-15.5,2.6c-0.6-2.2-1.5-36.2-6.7-36.7
		c-3.1-0.3-6.1,21.8-6.1,32.3c0,10.5-1.3,13.1,3.1,23.6c4.4,10.5,4.4,20.1,3.1,25.8c-1.3,5.7-7.7,8.3-2.8,14.4
		c4.1,5,4.3,12.7,1.9,19.2c-0.2,0.6-0.5,1.3-0.8,1.9c-0.1,0.1-0.1,0.2-0.2,0.3c-0.3,0.6-0.6,1.2-1,1.8c-0.2,0.3-0.4,0.6-0.6,1
		c0,0.1-0.1,0.1-0.1,0.2c-0.2,0.3-0.5,0.7-0.7,1c0,0-0.1,0.1-0.1,0.1c-0.3,0.4-0.5,0.7-0.8,1.1c0,0,0,0.1-0.1,0.1
		c-0.3,0.4-0.6,0.8-1,1.2c0,0-0.1,0.1-0.1,0.1c-0.7,0.8-1.5,1.7-2.3,2.5c0,0,0,0,0,0c-0.9,0.9-1.8,1.7-2.7,2.6l0,0
		c-5.7,5.1-12.9,9-18.7,6.3c-9-4.2-18.8-7.5-25.8-4.4c-0.4,0.2-0.9,0.4-1.3,0.6c-7,4.1-14.4,12.6-24.5,18.6c-10,6-17.9,8.2-22.7,5.6
		S7.5,282.6,3.1,287s-3.9,12.7,0,11.8c0.4-0.1,0.9-0.2,1.4-0.3c0.2,0,0.5-0.1,0.7-0.1c0.3,0,0.5-0.1,0.8-0.1c0.3,0,0.7-0.1,1-0.1
		c0.2,0,0.4,0,0.5-0.1c2-0.2,4.4-0.3,7.1-0.2c0,0,0.1,0,0.1,0c0.7,0,1.4,0.1,2.1,0.2l0,0c1.6,0.2,3.3,0.4,5,0.7
		c8.3,1.7,15.7,5.3,27.1,0s17.9-3.5,31-3.5c1.1,0,2.4,0,3.8,0l0,0c15,0.3,44.1,2.4,52.5,0c9.2-2.6,21.8-7.4,21.8-7.4
		s-7,40.2-22.7,46.3c-1.2,0.5-2.5,0.9-3.8,1.2l0,0c47.3-3.7,52.8-48.7,67.9-53.1c15.1-4.4,26.6,13.4,26.6,13.4
		c7.9,2.6,22.7,9.2,32.7,6.1c10-3.1,35.4-6.1,43.2-3.5c7.9,2.6,18.8,14.8,37.1,16.6c13.2,1.3,31,0.9,44.1,0
		C346.3,315.8,330.6,291.4,306.7,279.7z"/>
	<g class="st3">
		<path class="st4" d="M449.3,268.1c-12.9-4.1-27.9,1.2-39.5-3.5c-11.7-4.7-22.7-15.1-39.5-10.5c-16.9,4.7-48.3-13.8-48.3-13.8
			c0.6,14.2,15.1,21.9,21.5,24.8c6.4,2.9,13.4,16.6,13.4,16.6s13.5-7.4,22.7-5.7c9.2,1.7,19.2,7.9,31.4,3.1s19.6-4.8,28.1-3.5
			c8.5,1.3,28.6-0.4,35.6-3.5c1.2-0.5,2.7-0.8,4.4-0.9C473.6,271.4,459.5,271.3,449.3,268.1z"/>
		<path class="st4" d="M481.4,271.2C481.4,271.2,481.4,271.2,481.4,271.2C481.4,271.2,481.4,271.2,481.4,271.2L481.4,271.2z"/>
	</g>
	<path class="st2" d="M159,164.3c-1.7,0-5.2-16.6-7.4-16.6s-2.6,17.9-4.4,18.3c-1.7,0.4-14.9,4.8-15.5,2.6
		c-0.6-2.2-1.5-36.2-6.7-36.7c-3.1-0.3-6.1,21.8-6.1,32.3c0,10.5-1.3,13.1,3.1,23.6c4.4,10.5,4.4,20.1,3.1,25.8
		c-1.3,5.7-7.7,8.3-2.8,14.4s4.2,16.2,0,23.1c-4.2,7-17.8,20.7-27.4,16.3s-20.1-7.9-27.1-3.8c-7,4.1-14.4,12.6-24.5,18.6
		c-10,6-17.9,8.2-22.7,5.6S7.5,282.6,3.1,287s-3.9,12.7,0,11.8c3.9-0.9,10.5-1.6,18.8,0.1s15.7,5.3,27.1,0s17.9-3.5,31-3.5
		c13.1,0,47.2,2.6,56.3,0c9.2-2.6,21.8-7.4,21.8-7.4s-4.3,25-13.9,38.5l0,0c0,0,27.4-23.4,28-36.8c0.6-13.4-7.6-22.7,6.4-39.3
		s15.1-31.1,18.6-46.3c3.5-15.2,54.9-19.2,54.9-19.2l-16.5-26.3c-16.4,1.1-29.5,0.6-41.3,1.8C177.8,162.1,160.7,164.3,159,164.3z"/>
	<path class="st5" d="M133.2,169.3c0,0-7.4,2.9-7,5.1c0.4,2.2,38.4,4.8,65.1,5.2c26.6,0.4,86.9,10.9,121,5.7s60.3-9.6,65.9-14.8
		c-0.4-1.3-17.9-10-37.6-11.8c-19.6-1.7-55.5-6.5-83-2.4c-27.5,4.1-46.7,2.4-63.3,4.1s-33.6,3.9-35.4,3.9l-11.8,1.7
		C145.8,166.4,136.9,169.3,133.2,169.3L133.2,169.3z"/>
	<path class="st6" d="M242.7,174.9c-14.6-5.2-38.6-10.7-53.8-14c-14.7,1.6-28.3,3.3-29.9,3.3l-11.8,1.7c-1.4,0.4-10.3,3.3-14,3.2
		c0,0-7.4,2.9-7,5.1c0.4,2.2,38.4,4.8,65.1,5.2c26.6,0.4,86.9,10.9,121,5.7c13.4-2.1,25.5-4,35.7-5.9l0,0
		C347.9,179.4,265.4,183.1,242.7,174.9z"/>
	<g>
		<g>
			<g>
				<path class="st7" d="M165,223.3c0.3-3.7,0.3-7.5,0-11.2c-0.1-0.9-0.2-1.8-0.3-2.8l-0.4-2.8c-0.2-1.9-0.3-3.8-0.4-5.6
					c-0.1-3.8,0-7.5,0-11.2c0-1.9-0.1-3.7-0.2-5.5c-0.1-1.8-0.3-3.7-0.8-5.4l-0.2-0.7l0.7-0.2c5.6-1.3,11.2-2.6,16.8-3.7
					c2.8-0.6,5.6-1.2,8.4-1.8c2.8-0.6,5.6-1.1,8.4-1.7c-2.8,0.8-5.5,1.5-8.3,2.3c-2.8,0.8-5.5,1.4-8.3,2.2
					c-5.5,1.4-11.1,2.8-16.7,4.2l0.5-0.9c1,3.8,1,7.6,1.1,11.3c0,3.8-0.1,7.5-0.2,11.2c0,1.9,0,3.7,0.1,5.5l0.3,2.8
					c0.1,0.9,0.1,1.9,0.2,2.8c0.1,1.9,0,3.8-0.2,5.6C165.5,219.6,165.3,221.4,165,223.3z"/>
			</g>
			<g>
				<path class="st7" d="M130.3,188.3c1.9,2.2,3.3,4.8,4.4,7.6c1.1,2.7,1.8,5.7,1.6,8.8c0,0.4,0,0.8-0.1,1.1l-0.2,1.1
					c-0.1,0.8-0.3,1.4-0.5,2.1l-0.9,4.2c-0.6,2.8-1.2,5.7-1.7,8.5c-0.1-2.9,0.1-5.8,0.5-8.7c0.2-1.4,0.5-2.9,0.7-4.3
					c0.1-0.7,0.3-1.4,0.4-2.1l0.2-1c0-0.3,0-0.7,0.1-1c0.2-2.8-0.4-5.6-1.2-8.3C132.8,193.6,131.7,190.9,130.3,188.3z"/>
			</g>
			<g>
				<path class="st7" d="M140.8,211.9c-0.3,2.7-0.8,5.4-1.1,8c-0.2,1.3-0.3,2.6-0.4,4c-0.1,1.3-0.1,2.7-0.2,4.1
					c-0.5-1.3-0.8-2.7-1-4c-0.1-1.4-0.1-2.8,0.1-4.2c0.2-1.4,0.5-2.7,0.9-4C139.5,214.4,140.1,213.1,140.8,211.9z"/>
			</g>
			<g>
				<path class="st7" d="M152.7,233.7c0.4,2.9,0.7,5.8,0.8,8.7c0.1,2.9,0.1,5.8,0.1,8.7c-0.1,2.9-0.3,5.8-0.7,8.7
					c-0.4,2.9-1,5.8-2.1,8.5c0.6-2.9,0.8-5.7,1-8.6c0.2-2.9,0.3-5.8,0.4-8.7C152.3,245.3,152.4,239.5,152.7,233.7z"/>
			</g>
			<g>
				<g>
					<path class="st7" d="M121.9,268.4c2.5,0.9,4.8,2.6,6.6,4.6c1.9,2,3.3,4.4,4.2,7c0.9,2.6,1.4,5.3,1.4,8c0.1,1.4-0.1,2.7-0.2,4
						c-0.2,1.3-0.5,2.6-0.8,3.9c0-1.3,0-2.7,0-4l-0.1-2c0-0.7,0-1.3-0.1-2c-0.2-1.3-0.3-2.6-0.6-3.8c-0.2-1.3-0.7-2.5-1-3.7
						c-0.9-2.4-2.1-4.7-3.7-6.7C126,271.7,124.1,269.8,121.9,268.4z"/>
				</g>
				<g>
					<path class="st7" d="M120.7,282.2c0.8,0.9,1.4,2.1,1.8,3.3c0.4,1.2,0.7,2.4,0.8,3.7c0.1,1.3,0.1,2.5-0.2,3.8
						c-0.2,1.2-0.6,2.5-1.1,3.6c-0.1-1.3,0-2.5-0.1-3.7c0-1.2-0.1-2.4-0.2-3.6C121.6,286.9,121.3,284.6,120.7,282.2z"/>
				</g>
				<g>
					<path class="st7" d="M70.1,278c1.3,0.9,2.3,2.2,3.2,3.5c0.8,1.4,1.5,2.8,1.8,4.4c0.4,1.6,0.6,3.2,0.4,4.8
						c-0.1,1.6-0.5,3.1-1.1,4.6c0-1.6,0-3.1-0.1-4.6c-0.1-1.5-0.4-3-0.7-4.4c-0.3-1.4-0.8-2.8-1.4-4.2
						C71.6,280.7,70.9,279.3,70.1,278z"/>
				</g>
				<g>
					<path class="st7" d="M59.3,289.3c0.3,0.5,0.5,1,0.6,1.6c0.1,0.5,0.2,1,0.2,1.6c0,0.5,0,1-0.2,1.6c-0.1,0.5-0.3,1-0.6,1.6
						c-0.3-0.5-0.5-1-0.6-1.6c-0.1-0.5-0.2-1-0.2-1.6c0-0.5,0-1,0.2-1.6C58.8,290.4,59,289.8,59.3,289.3z"/>
				</g>
				<g>
					<path class="st7" d="M111.7,240.4c-0.7,1.4-1.2,2.8-1.6,4.2c-0.4,1.4-0.7,2.9-0.9,4.3L109,250l-0.1,1.1
						c-0.1,0.7-0.1,1.5-0.2,2.2l-0.1,2.2c0,0.8,0,1.5-0.1,2.3c-0.2-0.7-0.4-1.5-0.6-2.2c-0.1-0.8-0.3-1.5-0.3-2.3
						c-0.1-1.5-0.1-3.1,0.1-4.7c0.2-1.5,0.6-3.1,1.3-4.5C109.6,242.8,110.5,241.4,111.7,240.4z"/>
				</g>
				<g>
					<path class="st7" d="M107,230.2c-1.6,1.7-2.8,3.5-3.7,5.4c-0.4,1-0.9,2-1.2,3c-0.2,0.5-0.3,1.1-0.5,1.6
						c-0.2,0.5-0.3,1.1-0.5,1.7c-0.3-1.1-0.4-2.3-0.2-3.5c0.1-1.2,0.5-2.3,1-3.4c0.5-1.1,1.2-2.1,2.1-2.9
						C104.9,231.3,105.9,230.6,107,230.2z"/>
				</g>
				<g>
					<path class="st7" d="M85.2,229.2c-0.6,1.4-1,2.6-1.4,3.8c-0.2,0.6-0.4,1.2-0.5,1.9c-0.2,0.7-0.3,1.3-0.6,2.1
						c-0.4-0.7-0.6-1.4-0.6-2.2c-0.1-0.8,0.1-1.5,0.3-2.2c0.2-0.7,0.6-1.4,1.1-2C83.9,230,84.5,229.5,85.2,229.2z"/>
				</g>
			</g>
			<g>
				<path class="st7" d="M183.6,279.4c1.6-0.4,3.2-0.3,4.8,0c1.6,0.3,3.2,1,4.6,1.9c0.4,0.2,0.7,0.5,1,0.7c0.3,0.3,0.7,0.5,0.9,0.8
					c0.5,0.6,1.1,1.2,1.5,2c0.5,0.7,0.8,1.4,1.1,2.2c0.3,0.8,0.5,1.6,0.6,2.3c-0.5-0.7-0.8-1.4-1.3-2c-0.5-0.6-0.9-1.3-1.4-1.8
					c-1-1.2-2.1-2.2-3.3-3C189.7,280.9,186.7,279.9,183.6,279.4z"/>
			</g>
			<g>
				<path class="st7" d="M202.5,273.9c2.3,0.8,4.4,2.1,6.2,3.7c0.4,0.4,0.9,0.8,1.3,1.3l1.2,1.4c0.4,0.5,0.7,1,1.1,1.5
					c0.4,0.5,0.6,1,1,1.6c1.1,2.2,2,4.5,2.3,6.9c0.3,1.2,0.2,2.4,0.2,3.6c0,1.2-0.2,2.4-0.4,3.6c-0.2-1.2-0.2-2.4-0.3-3.5
					c-0.2-1.2-0.3-2.3-0.6-3.4c-0.5-2.3-1.4-4.4-2.5-6.4c-1.1-2-2.5-3.9-4.1-5.6C206.3,276.7,204.5,275.2,202.5,273.9z"/>
			</g>
			<g>
				<path class="st7" d="M173.7,323.4c1.7,0.4,3.2,1.4,4.5,2.6c1.3,1.2,2.4,2.6,3.1,4.2c0.7,1.6,1.3,3.3,1.4,5.1
					c0.1,0.9,0,1.7,0,2.6c-0.1,0.9-0.2,1.7-0.4,2.5c-0.1-0.9-0.2-1.7-0.3-2.5l-0.2-1.2l-0.1-0.6l-0.1-0.6c-0.1-0.4-0.2-0.8-0.3-1.2
					c-0.1-0.4-0.3-0.8-0.4-1.2l-0.2-0.6l-0.2-0.6c-0.2-0.4-0.3-0.8-0.5-1.1c-0.7-1.5-1.6-2.8-2.6-4.1
					C176.3,325.5,175.1,324.4,173.7,323.4z"/>
			</g>
			<g>
				<path class="st7" d="M164.6,305.2c-1.5,0.2-2.9,0.5-4.2,0.9c-1.3,0.5-2.6,1-3.7,1.8c-0.3,0.2-0.6,0.4-0.8,0.6
					c-0.3,0.2-0.6,0.4-0.8,0.7l-0.8,0.7c-0.2,0.3-0.5,0.5-0.7,0.8c-0.3,0.2-0.5,0.5-0.7,0.8l-0.7,0.8c-0.5,0.6-0.9,1.2-1.4,1.7
					c0.2-0.7,0.5-1.4,0.8-2.1c0.4-0.6,0.7-1.4,1.2-1.9c0.8-1.3,2-2.3,3.3-3.2c1.3-0.8,2.8-1.4,4.3-1.7
					C161.6,304.8,163.2,304.8,164.6,305.2z"/>
			</g>
			<g>
				<path class="st7" d="M248.2,290.8c2.3,0.4,4.5,0.6,6.7,0.6c2.2,0,4.5-0.1,6.7-0.4c2.2-0.3,4.4-0.8,6.5-1.5
					c2.2-0.6,4.2-1.6,6.3-2.5c-1.8,1.4-3.7,2.7-5.9,3.6c-1,0.5-2.2,0.8-3.3,1.2c-0.6,0.2-1.1,0.3-1.7,0.4c-0.6,0.1-1.1,0.2-1.7,0.3
					c-2.3,0.3-4.7,0.4-7,0.1C252.6,292.3,250.3,291.8,248.2,290.8z"/>
			</g>
			<g>
				<path class="st7" d="M267.1,284.4c0.7-0.9,1.6-1.6,2.4-2.3c0.8-0.7,1.7-1.3,2.6-1.9c0.9-0.6,1.8-1.1,2.8-1.6c1-0.5,2-1,3-1.3
					c-0.7,0.9-1.6,1.6-2.4,2.3c-0.8,0.7-1.7,1.3-2.6,1.9c-0.9,0.6-1.8,1.1-2.8,1.6C269.2,283.6,268.2,284,267.1,284.4z"/>
			</g>
			<g>
				<path class="st7" d="M312.6,264.6c-2.5,2-4.6,4.3-6.4,6.8c-0.9,1.2-1.8,2.5-2.5,3.9l-1.1,2l-0.9,2.1c-0.4,0.7-0.6,1.4-0.8,2.2
					c-0.3,0.7-0.5,1.4-0.7,2.2l-0.6,2.2l-0.4,2.3l-0.2,1.1c-0.1,0.4-0.1,0.8-0.1,1.2l-0.3,2.3c-0.2,1.6-0.1,3.1-0.3,4.7
					c-0.1-0.8-0.2-1.6-0.3-2.4c-0.1-0.8-0.2-1.6-0.2-2.4c0-1.6-0.1-3.2,0.2-4.8c0.3-3.2,1.2-6.3,2.4-9.3c1.2-3,3-5.7,5.1-8.2
					C307.3,268.2,309.8,266.1,312.6,264.6z"/>
			</g>
			<g>
				<path class="st7" d="M291,281.8c-0.8,1.2-1.5,2.4-2,3.7c-0.5,1.3-1,2.5-1.4,3.9c-0.2,0.7-0.3,1.3-0.4,2c-0.1,0.3-0.1,0.7-0.2,1
					c0,0.3-0.1,0.7-0.1,1c-0.1,0.7-0.1,1.4-0.2,2.1c-0.1,0.7-0.1,1.4-0.2,2.1c-0.2-0.7-0.4-1.4-0.5-2.1c-0.1-0.7-0.2-1.4-0.2-2.2
					c-0.1-1.5,0.2-2.9,0.5-4.4c0.4-1.4,1-2.8,1.8-4C288.8,283.7,289.8,282.5,291,281.8z"/>
			</g>
			<g>
				<path class="st7" d="M329.4,297.6c-0.6,1.1-1.1,2.2-1.5,3.4c-0.4,1.1-0.6,2.3-0.8,3.5c-0.2,1.2-0.3,2.4-0.5,3.6
					c-0.1,0.6-0.1,1.2-0.2,1.8c0,0.6-0.1,1.2-0.2,1.9c-0.2-0.6-0.4-1.2-0.6-1.8c-0.1-0.6-0.2-1.3-0.3-1.9c-0.1-1.3-0.1-2.6,0.2-3.9
					c0.2-1.3,0.6-2.5,1.2-3.7C327.5,299.4,328.3,298.3,329.4,297.6z"/>
			</g>
			<g>
				<path class="st7" d="M349.8,297.6c0.2-1.6,0.8-3.2,1.7-4.6c0.9-1.4,2.1-2.7,3.5-3.7c0.7-0.5,1.5-0.9,2.2-1.2
					c0.8-0.3,1.6-0.6,2.5-0.6c0.8-0.2,1.7-0.1,2.5-0.1c0.8,0.1,1.6,0.3,2.4,0.4c-0.8,0.1-1.6,0.1-2.4,0.3c-0.8,0.2-1.6,0.3-2.3,0.5
					c-1.5,0.4-2.9,1.1-4.1,1.9c-1.3,0.8-2.4,1.9-3.4,3.1C351.5,294.8,350.6,296.2,349.8,297.6z"/>
			</g>
			<g>
				<path class="st7" d="M356.8,281.8c-1-2.1-2.1-4.2-3.3-6.1c-1.2-2-2.6-3.8-4.2-5.4c-0.4-0.4-0.8-0.8-1.3-1.2
					c-0.4-0.4-0.9-0.7-1.3-1c-0.5-0.3-0.9-0.6-1.4-0.9l-1.6-0.8c-2.1-1-4.2-2.1-6.3-3.3c-2-1.2-4-2.6-5.8-4.2
					c-1.8-1.6-3.4-3.4-4.7-5.4c-2.7-4-4.3-8.5-5-13.2c1.2,4.5,3.2,8.8,6,12.5c2.8,3.7,6.4,6.6,10.3,9c2,1.2,4.1,2.2,6.1,3.3l1.6,0.8
					c0.5,0.3,1,0.7,1.5,1c0.5,0.4,1,0.8,1.4,1.2c0.4,0.4,0.9,0.8,1.3,1.3C353.3,273,355.4,277.3,356.8,281.8z"/>
			</g>
			<g>
				<path class="st7" d="M405.1,264.6c-0.2,1.4-0.4,2.7-0.6,4.1c-0.2,1.3-0.3,2.7-0.4,4c-0.1,1.3-0.1,2.7-0.1,4c0,1.4,0,2.7,0,4.1
					c-0.6-1.3-1-2.6-1.2-4c-0.2-1.4-0.3-2.8-0.2-4.2c0.1-1.4,0.3-2.8,0.7-4.2C403.8,267.1,404.3,265.8,405.1,264.6z"/>
			</g>
			<g>
				<path class="st7" d="M426.7,253c-0.9,1.8-1.6,3.6-2.2,5.5c-0.6,1.9-1.1,3.7-1.5,5.7c-0.2,1-0.4,1.9-0.5,2.9l-0.2,1.5
					c0,0.5-0.1,1-0.1,1.5c-0.1,1-0.1,2-0.2,2.9c-0.1,1-0.1,2-0.1,3c-0.2-1-0.4-2-0.6-3c-0.1-1-0.3-2-0.2-3c-0.1-2,0.2-4.1,0.5-6.1
					c0.4-2,1-3.9,1.9-5.8C424.2,256.2,425.2,254.4,426.7,253z"/>
			</g>
			<g>
				<path class="st7" d="M396.8,242.6c-1.4,1.2-2.6,2.5-3.6,3.9c-1,1.4-2,2.9-2.7,4.4c-0.2,0.4-0.3,0.8-0.5,1.2
					c-0.2,0.4-0.3,0.8-0.5,1.2l-0.4,1.2c-0.1,0.4-0.2,0.8-0.3,1.3c-0.1,0.4-0.2,0.8-0.3,1.3l-0.3,1.3c-0.2,0.9-0.3,1.8-0.5,2.7
					c-0.1-0.9-0.2-1.8-0.3-2.7c0-0.9,0-1.8,0.2-2.7c0.2-1.8,0.8-3.6,1.5-5.3c0.8-1.7,1.9-3.2,3.2-4.6
					C393.5,244.4,395,243.3,396.8,242.6z"/>
			</g>
			<g>
				<path class="st7" d="M392.2,240.2c-2.3-1.4-4.5-3.1-6.5-4.9c-2-1.8-4-3.7-5.7-5.9c-0.8-1.1-1.6-2.2-2.3-3.5
					c-0.6-1.2-1.2-2.4-1.7-3.7c-0.5-1.2-1-2.5-1.4-3.9c-0.2-0.7-0.3-1.4-0.2-2.1c0-0.7,0.3-1.4,0.6-2c-0.3,1.3-0.1,2.6,0.4,3.9
					c0.5,1.2,1.1,2.4,1.7,3.6c0.6,1.2,1.2,2.4,1.9,3.6c0.6,1.1,1.4,2.2,2.2,3.2c1.6,2.1,3.5,4,5.3,6
					C388.4,236.4,390.3,238.3,392.2,240.2z"/>
			</g>
			<g>
				<path class="st7" d="M389.4,225c0.9,0.9,1.7,2,2.3,3.1c0.6,1.1,1.2,2.3,1.6,3.5c0.4,1.2,0.7,2.5,0.8,3.8c0.1,1.3,0,2.6-0.4,3.8
					c-0.2-1.3-0.4-2.5-0.7-3.6c-0.3-1.2-0.7-2.3-1-3.5C391.1,229.7,390.2,227.4,389.4,225z"/>
			</g>
			<g>
				<path class="st7" d="M399.3,218.1c0.7,0.2,1.2,0.6,1.7,1.1c0.5,0.5,0.9,1.1,1.1,1.7c0.3,0.6,0.4,1.4,0.4,2.1
					c0,0.7-0.2,1.4-0.6,2c-0.2-0.7-0.4-1.3-0.6-1.8c-0.2-0.6-0.4-1.1-0.6-1.6C400.3,220.4,399.8,219.4,399.3,218.1z"/>
			</g>
		</g>
		<g>
			<path class="st7" d="M351.9,204c0-2.2,0.1-4.4,0.1-6.5c0.1-2.2,0.2-4.4,0.4-6.5c0.2-2.2,0.3-4.4,0.8-6.5c0.4-2.1,0.7-4.3,0.9-6.4
				l0.6,0.8c-5.1-0.7-10.2-1.6-15.2-2.6c-2.5-0.5-5-1.1-7.5-1.7c-2.5-0.7-5-1.3-7.4-2.3c2.5,0.6,5,1.1,7.6,1.5
				c2.5,0.4,5.1,0.8,7.6,1.2l15.2,2.3l0.7,0.1l-0.1,0.7c-0.2,2.2-0.6,4.4-1,6.5c-0.5,2.1-0.7,4.2-1,6.4L351.9,204z"/>
		</g>
		<g>
			<path class="st7" d="M352.7,216.3c0.3,4,0.3,8,0.3,12l-0.3,12c-0.6-1.9-0.9-4-1-6c-0.2-2-0.2-4-0.2-6.1c0-2,0.1-4,0.3-6
				C352,220.3,352.3,218.3,352.7,216.3z"/>
		</g>
		<g>
			<path class="st7" d="M344,195c-0.2,7.6-0.8,15.1-1.5,22.7l-0.5,5.6c-0.2,1.9-0.3,3.8-0.4,5.6c-0.1,3.7,0.1,7.5,0.9,11.2
				c-1.3-3.6-2-7.4-2.1-11.2c-0.1-3.8,0.3-7.6,0.6-11.4C341.7,210,342.6,202.5,344,195z"/>
		</g>
		<g>
			<path class="st7" d="M306.4,214.2c-0.3-2.4-0.6-4.7-0.8-7.1c-0.2-2.4-0.3-4.8-0.3-7.2c0-1.2,0-2.4,0.1-3.6
				c0.1-1.2,0.3-2.4,0.5-3.6c0.4-2.4,0.8-4.7,1.2-7l0.3,0.7c-2.1-1.4-4.2-2.8-6.3-4.2c-2.1-1.4-4.1-2.9-6.2-4.4
				c2.2,1.2,4.5,2.4,6.7,3.6c2.2,1.2,4.4,2.5,6.5,3.8l0.4,0.2l-0.1,0.5c-0.3,2.4-0.7,4.7-1.1,7c-0.2,1.2-0.4,2.3-0.5,3.5
				c-0.1,1.2-0.2,2.3-0.2,3.5c-0.1,2.4-0.2,4.7-0.2,7.1L306.4,214.2z"/>
		</g>
		<g>
			<path class="st7" d="M272.6,207c-0.3-1.7-0.5-3.4-0.6-5.2c-0.1-1.7-0.2-3.4-0.2-5.2c0-1.7,0-3.4,0.2-5.2c0.1-1.7,0.3-3.4,0.6-5.2
				c0.3,1.7,0.5,3.4,0.6,5.2c0.1,1.7,0.2,3.4,0.2,5.2c0,1.7,0,3.4-0.2,5.2C273.1,203.5,272.9,205.2,272.6,207z"/>
		</g>
		<g>
			<path class="st7" d="M258.7,185.4c0.3,0.8,0.5,1.6,0.6,2.4c0.1,0.8,0.2,1.6,0.2,2.4c0,0.8,0,1.6-0.2,2.4
				c-0.1,0.8-0.3,1.6-0.6,2.4c-0.3-0.8-0.5-1.6-0.6-2.4c-0.1-0.8-0.2-1.6-0.2-2.4c0-0.8,0-1.6,0.2-2.4
				C258.2,187,258.4,186.2,258.7,185.4z"/>
		</g>
		<g>
			<path class="st7" d="M209,172.3c10.6,1.2,21.2,2.8,31.7,4.5c2.6,0.5,5.3,0.8,7.9,1c2.6,0.3,5.3,0.5,8,0.7
				c5.3,0.3,10.6,0.6,16,0.8c-5.3,0.4-10.7,0.6-16.1,0.4c-5.4-0.1-10.7-0.5-16-1.4C230,176.6,219.5,174.7,209,172.3z"/>
		</g>
		<g>
			<path class="st7" d="M268.6,173.9c1.3-0.2,2.5-0.3,3.7-0.4c1.2-0.1,2.5-0.1,3.7-0.1c2.5,0,4.9,0.1,7.4,0.5
				c-1.2,0.5-2.4,0.7-3.7,0.8c-1.2,0.2-2.5,0.2-3.7,0.2c-1.2,0-2.5-0.1-3.7-0.3C271.1,174.5,269.8,174.3,268.6,173.9z"/>
		</g>
		<g>
			<path class="st7" d="M238.6,164.5c4.7-0.5,9.4-1,14.1-1.3c4.7-0.3,9.4-0.5,14.1-0.7c4.7-0.1,9.5-0.2,14.2,0.3
				c4.7,0.4,9.4,1,14.1,1.6c-4.7-0.1-9.4-0.2-14.1-0.5c-2.4-0.1-4.7-0.2-7-0.1c-2.3,0-4.7,0.1-7,0.1
				C257.5,164.3,248.1,164.6,238.6,164.5z"/>
		</g>
		<g>
			<path class="st7" d="M305.2,164.5c1.2-0.3,2.4-0.5,3.6-0.6c1.2-0.1,2.4-0.2,3.6-0.2c1.2,0,2.4,0,3.6,0.2c1.2,0.1,2.4,0.3,3.6,0.6
				c-1.2,0.3-2.4,0.5-3.6,0.6c-1.2,0.1-2.4,0.2-3.6,0.2c-1.2,0-2.4,0-3.6-0.2C307.6,164.9,306.4,164.8,305.2,164.5z"/>
		</g>
	</g>
	<path class="st8" d="M192.9,204c0,0,14.2,4.3,25.5,15.9c11.4,11.6,18.7,20.5,18.7,20.5s-37,7.4-44.2-2.7
		C185.6,227.6,192.9,204,192.9,204z"/>
	<path class="st8" d="M293.5,207c0,0-20.5,30.6-24.9,33.5c0,0,26.9,4.2,32.9-3.5C307.5,229.4,293.5,207,293.5,207z"/>
</g>
</svg>
