<?xml version="1.0" encoding="utf-8"?>
<!-- Generator: Adobe Illustrator 25.4.1, SVG Export Plug-In . SVG Version: 6.00 Build 0)  -->
<svg version="1.1" id="Layer_1" xmlns="http://www.w3.org/2000/svg" xmlns:xlink="http://www.w3.org/1999/xlink" x="0px" y="0px"
	 viewBox="0 0 500 500" style="enable-background:new 0 0 500 500;" xml:space="preserve">
<style type="text/css">
	.st0{fill:#D2D1CA;}
	.st1{fill:#644936;}
	.st2{fill:#201B1B;}
	.st3{opacity:0.3;fill:#380606;}
	.st4{opacity:0.2;fill:#604B4C;}
	.st5{fill:#45B8FF;}
	.st6{fill:#B02101;}
	.st7{fill:#FD990D;}
	.st8{opacity:0.3;fill:#201B1B;}
	.st9{opacity:0.3;fill:#C65D02;}
</style>
<g id="Voodoo_Doll">
	<polygon class="st0" points="223.2,20.5 241.8,76.9 232.5,80.7 218.6,24.2 	"/>
	<path class="st1" d="M465.8,278.6c-2.1-13.2-19.9-19.4-53-31.4c-33.1-12-91.2-19.7-91.2-19.7c0,0,0,0,0,0
		c7.8-2.4,15.3-5.8,22.3-10.4c46.3-29.8,44.7-83.6,18.2-112.5c-26.5-29-78.6-53.8-131.6-29.8c-24.3,11-52.1,55.4-25.6,105.1
		c7.7,14.4,18.8,26.1,31.7,34.7c0,0-60.5-14.2-87.4-20c-26.9-5.8-55-9.1-66.6,0c-11.6,9.1-25.2,36.4-14.5,51.3
		c10.8,14.9,30.2,19.9,62.5,19.4c19.2-0.2,50-3.4,71.9-5.9l0,0c-16.8,25.3-32,55-28.9,76.2c1.3,8.9,5.3,17.4,11.1,25.2
		c-13.4,12.9-36.7,36.7-43.4,51.8c-9.5,21.5-30.6,59.6-13.2,78.6s64.5,2.1,74.9-4.6c9.1-5.8,21.6-76.9,24.6-94.2c0,0,0,0,0,0
		c23.1,9.6,49.4,12.4,70.2,4.5c0.3-0.1,0.5-0.2,0.8-0.3c1.1,20.9,5.2,81.5,13.7,87.6c10.3,7.4,41,19.4,55.8,5
		c14.9-14.5,4.5-38.9,0-50.9c-4-10.5-29-58.7-35.4-70.8c6.2-15,4-33,3.1-52.4c-0.7-14.5-3.7-33.9-6.9-51.6
		c24,15.6,86.4,54.8,105,54.1C457.2,316.7,467.9,291.9,465.8,278.6z"/>
	<circle class="st2" cx="337.1" cy="155.8" r="19.9"/>
	<polygon class="st2" points="273.5,127.2 249.9,144.6 232.5,129.1 230.2,133.4 244.9,148.5 225.7,164.4 232.5,166.9 249.6,155.8 
		266,166.9 273.5,166.9 255.2,151.4 276,133.4 	"/>
	<path class="st2" d="M279.4,263.6c0,4.9-4,8.9-8.9,8.9c-4.9,0-8.9-4-8.9-8.9c0-4.9,4-8.9,8.9-8.9
		C275.4,254.6,279.4,258.6,279.4,263.6z"/>
	<path class="st2" d="M279.4,308.6c0,4.9-4,8.9-8.9,8.9c-4.9,0-8.9-4-8.9-8.9c0-4.9,4-8.9,8.9-8.9
		C275.4,299.6,279.4,303.6,279.4,308.6z"/>
	<path class="st3" d="M266.9,225.6c11.4,2.8,25.2,4.8,40,3.8c2.6,2.4,19.4,18.5,22.1,33.9c24,15.6,86.4,54.8,105,54.1
		c5.5-0.2,10.3-1.8,14.4-4.2c-0.7,0.1-21,3.9-38.5-13.7c-17.8-17.9-42.7-24.1-56.4-38.1c-13.6-14-25.9-21.9-19.2-32.2
		c-7.7-1.2-12.5-1.8-12.6-1.8l0,0h0c0,0,0,0,0,0c2.2-0.7,4.3-1.4,6.5-2.3c0.1,0,0.2-0.1,0.3-0.1c5.4-2.1,10.6-4.8,15.6-8
		c14.1-9,23.7-20.3,29.6-32.4c-14.6,13.8-32.7,9.7-40.7,10.4c-10.1,0.9-76.9,27.6-111.8-19.5c-30.7-41.5,18.3-95.4,30.5-107.8
		c-6.9,1.6-13.9,3.9-20.9,7c-24.3,11-52.1,55.4-25.6,105.1c7.7,14.4,18.8,26.1,31.7,34.7c0,0-50.8,30.4-63.8,29.1
		c-13-1.4-26.7,11.3-60.8,10.7s-40-46.8-40-46.8c-7.1,12-11.2,28.1-3.8,38.4c10.8,14.9,30.2,19.9,62.5,19.4
		c19.2-0.2,50-3.4,71.9-5.9l0,0c-16.8,25.3-32,55-28.9,76.2c1.3,8.9,5.3,17.4,11.1,25.2c-13.4,12.9-36.7,36.7-43.4,51.8
		c-9.5,21.5-30.6,59.6-13.2,78.6s64.5,2.1,74.9-4.6c0.1,0,0.1-0.1,0.2-0.1c-21.4,8.4-53.2,7-58.9-5.1c-6.2-13.1-1.2-21.6,5-50.8
		c6.2-29.2,45.6-55.2,45.6-55.2s4.1,7.4,13.4,15.2c9.3,7.8,13.2,35.3,13.2,35.3c2.9-14.4,5.2-27.3,6.2-33.5c0,0,0,0,0,0
		c23.1,9.6,49.4,12.4,70.2,4.5c0.3-0.1,0.5-0.2,0.8-0.3c1.1,20.9,5.2,81.5,13.7,87.6c10.3,7.4,41,19.4,55.8,5c6-5.9,7.9-13.3,7.7-21
		c-18.9,16.6-28.7,5.4-38.6-0.6c-10.5-6.5-19.9-38.2-22.7-53.5c-2.9-15.4,10.7-35.7,10.7-35.7c-7.5,10.9-62.4,12.6-72.6-1.7
		c-10.1-14.3-29.6-14.3-42-37.2c-12.4-23,8.1-72.6,16.9-94C232.2,234.7,250.2,228.8,266.9,225.6z"/>
	<path class="st3" d="M328.3,228.4c-4.1-0.6-6.6-0.9-6.6-0.9c0,0,0,0,0,0c2.2-0.7,4.3-1.4,6.5-2.3l0,0
		c-114.4-12-129.7-111-129.7-111.2c-6.3,18.5-6.4,41.6,6.6,65.9c7.7,14.4,18.8,26.1,31.7,34.7c0,0-6.9-1.6-17-4l0,0
		c0,0,4.5,24.9-27.5,40.5C160.1,266.8,66,241.7,66,241.7l0,0c0.6,1.5,1.3,2.9,2.3,4.3c10.8,14.9,30.2,19.9,62.5,19.4
		c19.2-0.2,50-3.4,71.9-5.9l0,0c-16.8,25.3-32,55-28.9,76.2c1.3,8.9,5.3,17.4,11.1,25.2c-13.4,12.9-36.7,36.7-43.4,51.8
		c-6.4,14.4-18,36.3-19.7,54.9l0,0c15.1-62.6,84.4-87.5,84.4-87.5l21.4,12.4c17.5,7.3,36.8,10.6,54.1,8.4
		c-0.2,0-78.4-14.7-92.3-59.4c-14-44.7,55.5-109.8,92.4-104.4c36.4,5.3,51.6,54.6,51.9,55.8c-1.3-9.6-3-19.8-4.8-29.4
		c8.4,5.4,21.5,13.8,35.7,22.2h0C333.9,261.3,329,237,328.3,228.4z"/>
	<path class="st3" d="M312.4,484.2c5.4,3.9,16.4,9.1,27.8,11c-40.3-31.3-26.4-105.4-26.4-105.4l-15.9,7.1c0.3-0.1,0.5-0.2,0.8-0.3
		C299.8,417.6,303.8,478.1,312.4,484.2z"/>
	<g>
		<g>
			<g>
				<g>
					<path class="st2" d="M202.7,259.5c2.2-4.2,4.7-8.2,7.4-12c2.6-3.9,5.5-7.7,8.3-11.4c2.9-3.7,5.8-7.4,8.9-10.9
						c3.1-3.6,6.2-7.1,9.5-10.4c-2.7,3.9-5.4,7.7-8.3,11.4c-2.8,3.8-5.7,7.5-8.5,11.2l-8.7,11.1C208.4,252,205.5,255.7,202.7,259.5z
						"/>
				</g>
				<g>
					<path class="st2" d="M321.7,227.5c-1.8,0.3-3.6,0.7-5.4,1c-1.8,0.3-3.6,0.7-5.4,0.8c-3.6,0.3-7.3,0.8-10.9,0.8
						c-7.3,0.3-14.7-0.3-21.9-1.2c-7.3-1-14.4-2.8-21.4-5c-6.9-2.3-13.7-5.2-19.9-9.1c6.5,3.2,13.4,5.6,20.4,7.6
						c3.5,1,7,1.9,10.5,2.6l5.3,1.1l5.4,0.8c1.8,0.3,3.6,0.5,5.4,0.7c1.8,0.2,3.6,0.4,5.4,0.5l5.4,0.4c1.8,0.1,3.6,0.1,5.4,0.1
						c3.6,0.1,7.2-0.1,10.9-0.2c1.8,0,3.6-0.2,5.4-0.4C318.1,227.8,319.9,227.6,321.7,227.5z"/>
				</g>
				<g>
					<path class="st2" d="M329,263.4c-1-2.9-1.8-5.9-2.6-8.8c-0.8-3-1.4-5.9-2-8.9c-0.6-3-1.2-6-1.6-9c-0.5-3-0.9-6.1-1.1-9.1
						c1,2.9,1.8,5.9,2.6,8.8c0.8,3,1.4,5.9,2,8.9c0.6,3,1.2,6,1.6,9C328.4,257.3,328.8,260.3,329,263.4z"/>
				</g>
				<g>
					<path class="st2" d="M332.9,367.5c-0.4,1.9-1.3,3.6-2.3,5.3c-0.5,0.8-1,1.6-1.6,2.4c-0.6,0.8-1.2,1.6-1.8,2.3
						c-0.6,0.7-1.2,1.5-1.9,2.2l-2,2.1c-1.4,1.3-2.9,2.6-4.4,3.8c-1.5,1.2-3.1,2.3-4.7,3.4c-1.6,1-3.3,2-4.9,3
						c-1.7,0.9-3.4,1.8-5.1,2.6c-1.8,0.8-3.5,1.5-5.3,2.2c1.6-1.1,3.2-2.1,4.9-3c1.6-1,3.2-2.1,4.8-3.1c3.1-2.1,6.3-4.2,9.2-6.6
						c3-2.3,5.8-4.8,8.5-7.5c1.3-1.4,2.6-2.8,3.7-4.2C330.9,370.7,332,369.2,332.9,367.5z"/>
				</g>
				<g>
					<path class="st2" d="M184.9,360.9c6.6,6.1,13.3,11.9,20.4,17.2c3.5,2.7,7.2,5.2,10.9,7.6c3.7,2.4,7.6,4.6,11.5,6.8
						c-4.2-1.4-8.4-3.2-12.3-5.4c-1-0.5-2-1.1-2.9-1.7c-1-0.6-1.9-1.2-2.9-1.8c-1.9-1.3-3.7-2.5-5.5-3.9c-3.6-2.7-7-5.6-10.2-8.8
						C190.6,367.8,187.6,364.5,184.9,360.9z"/>
				</g>
			</g>
			<g>
				<g>
					<path class="st2" d="M350.4,195.2c-2.3,3.6-5.2,6.9-8.3,9.8c-3.1,2.9-6.6,5.5-10.3,7.8c-1.8,1.1-3.8,2.1-5.7,3
						c-1,0.4-2,0.8-3,1.2c-0.5,0.2-1,0.4-1.5,0.6l-1.6,0.4c-4.1,1.4-8.4,1.8-12.7,2c1.1-0.2,2.1-0.4,3.1-0.6l1.6-0.3
						c0.5-0.1,1-0.3,1.5-0.4l3.1-0.8c1-0.3,2-0.7,3-1l1.5-0.5l1.5-0.6c1-0.4,1.9-0.8,2.9-1.3c1.9-1,3.8-1.9,5.6-3
						c3.6-2.1,7.1-4.6,10.3-7.3l2.4-2.1c0.8-0.7,1.6-1.4,2.3-2.2C347.6,198.3,349,196.8,350.4,195.2z"/>
				</g>
				<g>
					<path class="st2" d="M321.7,203.2c-2.9,1.9-6,3.5-9.2,4.9c-3.2,1.4-6.5,2.5-9.9,3.4c-3.4,0.8-6.9,1.4-10.4,1.6
						c-3.5,0.1-7-0.2-10.4-1.2c3.5,0.3,6.9,0.3,10.3,0c3.4-0.4,6.8-1,10.1-1.8c3.3-0.8,6.6-1.9,9.8-3
						C315.3,205.9,318.5,204.6,321.7,203.2z"/>
				</g>
				<g>
					<path class="st2" d="M244,199.5c2.6,1.5,5.1,3.1,7.6,4.5c1.3,0.7,2.6,1.4,3.9,2.1c1.3,0.6,2.7,1.2,4,1.8c-1.5,0-3-0.3-4.5-0.7
						c-1.4-0.5-2.8-1.1-4.2-1.8c-1.3-0.8-2.6-1.6-3.7-2.6C246,201.8,244.9,200.7,244,199.5z"/>
				</g>
				<g>
					<path class="st2" d="M272.2,76c-3.9,0.6-7.8,1.4-11.6,2.3c-3.8,1-7.6,2.1-11.2,3.5c-3.6,1.4-7.2,3.1-10.4,5.2
						c-1.6,1.1-3.2,2.2-4.7,3.5c-1.5,1.3-2.8,2.7-4.1,4.2c1-1.7,2.3-3.3,3.6-4.7c1.4-1.4,2.9-2.7,4.5-3.9c3.3-2.3,6.9-4.2,10.6-5.6
						c3.7-1.4,7.6-2.5,11.5-3.2C264.3,76.4,268.3,76,272.2,76z"/>
				</g>
				<g>
					<path class="st2" d="M247.7,94.7c-3.3,2.7-6.6,5.2-9.7,7.9c-1.6,1.3-3.1,2.8-4.5,4.3c-1.4,1.5-2.7,3.1-3.4,5.1
						c0.1-2.2,1.2-4.2,2.5-5.9c1.3-1.7,2.8-3.3,4.4-4.7c1.6-1.4,3.3-2.7,5.1-3.8C243.9,96.5,245.8,95.5,247.7,94.7z"/>
				</g>
				<g>
					<path class="st2" d="M323.7,91.8c2.4,1,4.8,2.2,7,3.6c2.3,1.4,4.4,2.9,6.5,4.5c2,1.7,4,3.4,5.8,5.4c1.7,2,3.3,4.2,4.3,6.6
						c-1.5-2.1-3.3-4-5.1-5.8l-1.4-1.3l-1.5-1.3c-1-0.8-2-1.7-3-2.5c-2-1.6-4.1-3.2-6.2-4.7L323.7,91.8z"/>
				</g>
				<g>
					<path class="st2" d="M207.8,251.9c-8.3,1.6-16.8,2.8-25.2,3.7c-4.2,0.4-8.4,0.8-12.7,1.1c-4.2,0.3-8.5,0.4-12.7,0.2
						c4.2-0.4,8.4-0.9,12.6-1.4l12.6-1.4C190.8,253.3,199.3,252.4,207.8,251.9z"/>
				</g>
				<g>
					<path class="st2" d="M213.8,243.7c-1.8,0.5-3.6,0.8-5.3,1c-1.8,0.3-3.6,0.4-5.4,0.6c-1.8,0.1-3.6,0.2-5.4,0.3
						c-1.8,0-3.6,0-5.4-0.2c1.8-0.5,3.6-0.8,5.3-1c1.8-0.3,3.6-0.4,5.4-0.6c1.8-0.1,3.6-0.2,5.4-0.3
						C210.1,243.6,211.9,243.6,213.8,243.7z"/>
				</g>
				<g>
					<path class="st2" d="M79.3,219.7c0,2.9,0.1,5.8,0.3,8.7c0.2,2.9,0.5,5.7,1.1,8.5c0.3,1.4,0.6,2.8,1.1,4.1
						c0.4,1.4,0.9,2.7,1.5,4c1.2,2.6,2.9,4.9,5,6.9c-2.5-1.5-4.6-3.8-6.1-6.4c-1.5-2.6-2.4-5.5-3-8.4c-0.6-2.9-0.8-5.9-0.8-8.8
						C78.4,225.5,78.6,222.5,79.3,219.7z"/>
				</g>
				<g>
					<path class="st2" d="M95.4,245.5c1.8,2,3.4,4.1,5,6.1c0.8,1,1.6,2,2.5,2.9c0.9,0.9,1.8,1.8,3,2.4c-1.4,0-2.7-0.7-3.8-1.6
						c-1.1-0.8-2-1.8-2.9-2.9c-0.8-1.1-1.6-2.2-2.3-3.3C96.4,248,95.8,246.8,95.4,245.5z"/>
				</g>
				<g>
					<path class="st2" d="M326.8,251.9c9,5.3,17.8,10.9,26.7,16.4c4.4,2.8,8.8,5.5,13.3,8.3c4.4,2.7,8.9,5.5,13.5,7.9
						c-4.9-1.9-9.5-4.3-14.1-6.9c-4.6-2.5-9-5.2-13.5-8C343.8,264,335.1,258.2,326.8,251.9z"/>
				</g>
				<g>
					<path class="st2" d="M392.3,292.9c3.6,1.1,7.1,2.4,10.6,3.6c3.5,1.2,7,2.4,10.6,3.5c3.5,1.1,7.1,2.1,10.7,2.9
						c3.6,0.8,7.3,1.4,11,1.2c-3.7,0.8-7.5,0.6-11.2,0c-3.7-0.6-7.4-1.5-10.9-2.6c-3.6-1.1-7.1-2.4-10.5-3.8
						c-1.7-0.7-3.4-1.5-5.1-2.3L392.3,292.9z"/>
				</g>
				<g>
					<path class="st2" d="M357,261.6c6.2,3.5,12.1,7.2,18.2,10.8c3,1.8,6,3.6,9.1,5.4l2.3,1.3l2.3,1.3c0.8,0.4,1.6,0.8,2.3,1.2
						c0.8,0.4,1.6,0.7,2.4,1.1c-3.5-0.8-6.7-2.2-9.9-3.8c-3.2-1.6-6.3-3.3-9.3-5.1C368.3,270,362.5,266,357,261.6z"/>
				</g>
				<g>
					<path class="st2" d="M196.8,284.5c-1.1,3.4-2.1,6.7-3,10.1c-1,3.4-1.9,6.8-2.7,10.2c-0.4,1.7-0.8,3.4-1.2,5.1
						c-0.3,1.7-0.7,3.4-1,5.2c-0.6,3.4-1,6.9-1.2,10.4c-0.4,6.9,1.3,13.8,4.2,20.2c1.4,3.2,3.1,6.3,4.9,9.3c1.8,3,3.9,5.9,6.1,8.6
						c-4.8-5.1-8.9-11-12-17.4c-1.6-3.2-2.8-6.5-3.7-10c-0.9-3.5-1.1-7.1-1-10.7c0.5-7.1,1.9-14.1,3.8-20.9c0.9-3.4,2-6.8,3.1-10.1
						C194.3,291.1,195.5,287.8,196.8,284.5z"/>
				</g>
				<g>
					<path class="st2" d="M216.1,375.4c3.1,1.6,6.3,3.1,9.4,4.8c3.1,1.6,6.2,3.2,9.4,4.7c3.1,1.6,6.3,3,9.5,4.4
						c3.2,1.3,6.5,2.6,9.9,3.3c-3.5,0-7-1-10.3-2.2c-3.3-1.2-6.6-2.6-9.7-4.1C227.9,383.1,221.8,379.6,216.1,375.4z"/>
				</g>
				<g>
					<path class="st2" d="M199.6,336.3c1.2,3.6,2.8,7,4.6,10.3c1.8,3.2,3.9,6.4,6.3,9.2c2.4,2.9,5,5.5,7.9,7.9
						c2.8,2.4,6,4.5,9.2,6.5c-0.9-0.4-1.7-0.8-2.6-1.2c-0.9-0.4-1.7-0.8-2.5-1.3c-1.6-1-3.3-1.9-4.8-3.1c-1.6-1.1-3-2.4-4.4-3.7
						c-0.7-0.6-1.3-1.4-2-2l-1-1c-0.3-0.4-0.6-0.7-0.9-1.1c-0.6-0.8-1.2-1.5-1.8-2.3l-1.6-2.4l-1.5-2.5c-0.5-0.8-0.9-1.7-1.3-2.5
						C201.6,343.7,200.3,340.1,199.6,336.3z"/>
				</g>
				<g>
					<path class="st2" d="M244,218.3c-3.6,5.8-7.4,11.4-11.2,17L221,251.9c1.4-3.1,3.1-6.1,4.9-9c1.8-2.9,3.7-5.7,5.6-8.5
						C235.4,228.8,239.5,223.4,244,218.3z"/>
				</g>
				<g>
					<path class="st2" d="M251.8,221.3c-0.4,1.2-0.9,2.3-1.4,3.3c-0.5,1.1-1.2,2.1-1.8,3.1c-0.6,1-1.3,2-2.1,2.9
						c-0.7,0.9-1.5,1.8-2.4,2.7c0.4-1.2,0.9-2.3,1.4-3.3c0.5-1.1,1.2-2.1,1.8-3.1c0.6-1,1.3-2,2.1-2.9
						C250.1,223.1,250.9,222.2,251.8,221.3z"/>
				</g>
				<g>
					<path class="st2" d="M218.7,388.1c-0.6,6.5-1.7,12.8-2.9,19.2c-0.7,3.2-1.3,6.3-2.2,9.5c-0.8,3.1-1.7,6.3-2.8,9.3l1.7-9.5
						c0.6-3.2,1.2-6.3,1.8-9.5C215.6,400.6,217,394.3,218.7,388.1z"/>
				</g>
				<g>
					<path class="st2" d="M210.8,383.2c0.1,1.3,0.1,2.5,0,3.8c-0.1,1.3-0.3,2.5-0.5,3.7c-0.2,1.2-0.5,2.5-0.8,3.7
						c-0.3,1.2-0.7,2.4-1.2,3.6c-0.1-1.3-0.1-2.5,0-3.8c0.1-1.3,0.3-2.5,0.5-3.7c0.2-1.2,0.5-2.5,0.8-3.7
						C209.9,385.6,210.3,384.4,210.8,383.2z"/>
				</g>
				<g>
					<path class="st2" d="M203,450.8c-0.3,0.4-0.4,0.9-0.5,1.3l-0.5,1.4c-0.3,0.9-0.6,1.9-0.9,2.8c-0.7,1.8-1.4,3.7-2.3,5.4
						c-1.7,3.5-3.8,6.9-6.3,10c-2.5,3-5.4,5.8-8.7,8c-3.3,2.2-7,3.7-10.8,4.7c3.6-1.5,7-3.3,10.1-5.6c1.5-1.1,3-2.4,4.4-3.7
						c1.4-1.3,2.7-2.7,3.9-4.2c2.4-3,4.5-6.2,6.4-9.6c0.9-1.7,1.8-3.4,2.6-5.2c0.4-0.9,0.8-1.8,1.2-2.6
						C202,452.5,202.4,451.6,203,450.8z"/>
				</g>
				<g>
					<path class="st2" d="M134.5,445.8c-0.6,3.9-1.5,7.8-2.2,11.6c-0.4,1.9-0.7,3.9-0.9,5.8c-0.2,1.9-0.4,3.9,0,5.8
						c-1-1.8-1.2-3.9-1.2-5.9c0-2,0.3-4,0.6-6c0.4-2,0.9-3.9,1.5-5.8C132.9,449.5,133.6,447.6,134.5,445.8z"/>
				</g>
				<g>
					<path class="st2" d="M306.5,392.5c1.6,7.2,2.7,14.3,3.9,21.5l1.6,10.8c0.6,3.6,1,7.2,1.7,10.8c-1.3-3.4-2.1-7-2.9-10.6
						c-0.8-3.6-1.4-7.2-2-10.8C307.8,407,306.9,399.8,306.5,392.5z"/>
				</g>
				<g>
					<path class="st2" d="M313.6,388.1c0.5,1.3,0.8,2.6,1.1,4c0.3,1.3,0.5,2.7,0.7,4c0.2,1.4,0.3,2.7,0.4,4.1c0.1,1.4,0.1,2.7,0,4.1
						c-0.5-1.3-0.8-2.6-1.1-4c-0.3-1.3-0.5-2.7-0.7-4c-0.2-1.4-0.3-2.7-0.4-4.1C313.5,390.8,313.5,389.5,313.6,388.1z"/>
				</g>
				<g>
					<path class="st2" d="M321.3,467.6c2.5,4.4,5.5,8.5,8.9,12.1l1.3,1.3l1.4,1.2c0.5,0.4,1,0.8,1.5,1.1c0.5,0.4,1,0.8,1.5,1.1
						c2.1,1.4,4.4,2.4,6.7,3.4c-2.5-0.4-5.1-1.1-7.3-2.4c-2.3-1.3-4.4-2.8-6.2-4.7c-1.8-1.9-3.4-3.9-4.7-6.1
						C323.1,472.4,322,470,321.3,467.6z"/>
				</g>
				<g>
					<path class="st2" d="M342.7,477.6c3,0.5,5.9,1.3,8.7,2.1c1.4,0.4,2.9,0.7,4.3,1c0.7,0.1,1.4,0.3,2.2,0.3
						c0.7,0.1,1.4,0.1,2.2-0.1c-0.6,0.5-1.4,0.7-2.2,0.9c-0.8,0.1-1.6,0.1-2.3,0.1c-1.5-0.1-3.1-0.4-4.5-0.7
						c-1.5-0.4-2.9-0.9-4.3-1.4C345.3,479.1,344,478.5,342.7,477.6z"/>
				</g>
			</g>
		</g>
		<g>
			<path class="st2" d="M326.8,320.8c0.3,4.4,0.2,8.9-0.3,13.4c-0.5,4.4-1.4,8.9-2.6,13.2c-0.7,2.1-1.4,4.3-2.2,6.4
				c-0.9,2.1-1.8,4.1-3,6.1c-1.1,2-2.4,3.8-3.8,5.6c-1.4,1.7-3,3.4-4.7,4.8c1.5-1.7,2.9-3.4,4.1-5.2c1.2-1.8,2.3-3.7,3.3-5.7
				c2-3.9,3.5-8.1,4.8-12.3c1.2-4.2,2.2-8.5,2.9-12.9C326,329.7,326.5,325.3,326.8,320.8z"/>
		</g>
	</g>
	<polygon class="st0" points="421.8,94.7 364.7,124.7 369,133.4 425.5,99.3 	"/>
	<polygon class="st0" points="173.4,72 213.9,99.1 210.8,104.9 170.5,76.3 	"/>
	<polygon class="st4" points="213.9,99.1 209.2,95.9 170.5,76.3 210.8,104.9 	"/>
	<polygon class="st4" points="415.1,105.6 373,120.4 364.7,124.7 369,133.4 	"/>
	<polygon class="st4" points="232.5,80.7 241.8,76.9 237.8,64.6 219.8,29.1 	"/>
	<circle class="st5" cx="218.6" cy="14" r="14"/>
	<circle class="st6" cx="164.5" cy="69.5" r="14"/>
	<circle class="st7" cx="431.5" cy="94.7" r="14"/>
	<path class="st3" d="M150.6,70.2c0.3,7.4,6.4,13.3,13.9,13.3c6.6,0,12.1-4.6,13.6-10.8C167.1,74.8,157.5,72.7,150.6,70.2z"/>
	<path class="st8" d="M218.6,27.9c3.7,0,7.1-1.5,9.6-3.8c-12.9-5.1-17.8-13.4-19.6-19.9c-2.5,2.5-4,6-4,9.7
		C204.6,21.7,210.9,27.9,218.6,27.9z"/>
	<path class="st9" d="M417.7,96.5c0.9,6.9,6.7,12.2,13.8,12.2c7.7,0,14-6.3,14-14c0-1.9-0.4-3.8-1.1-5.4
		C439.5,93.1,430.4,98.4,417.7,96.5z"/>
</g>
</svg>
