<?xml version="1.0" encoding="utf-8"?>
<!-- Generator: Adobe Illustrator 25.4.1, SVG Export Plug-In . SVG Version: 6.00 Build 0)  -->
<svg version="1.1" id="Layer_1" xmlns="http://www.w3.org/2000/svg" xmlns:xlink="http://www.w3.org/1999/xlink" x="0px" y="0px"
	 viewBox="0 0 500 500" style="enable-background:new 0 0 500 500;" xml:space="preserve">
<style type="text/css">
	.st0{fill:#201B1B;}
	.st1{fill:#604B4C;}
</style>
<g id="Witch">
	<path class="st0" d="M255.3,47.2c0.5,4.4,10.5-4.7,19.2-8.7s16.6-14.8,27.5-14.5c10.9,0.4,22.8,8.1,23.5,11.8
		c0.7,3.7-2.9,27.2-6.9,36.3s-4.3,12.7-4.3,12.7s-23.2,5.8-30,10.9c-6.9,5.1-20.3,11.9-28.9,11.2c-8.7-0.7-21.3-4.7-23.2-3.3
		s0,4.7,0,4.7s10.9,11.2,26,8.7c0,0-24,8.7-26.8,14.1c-2.8,5.4-17.3,18.8-21.3,19.5s-9.8-0.7-10.5,0s13,10.5,21.3,6.1
		s19.5-10.9,23.2-11.2c3.6-0.4,6.9-0.7,6.9-0.7s-20.6,21.7-31.5,23.5s-31.5,3.6-44.1,2.5c-12.7-1.1-27.1-1.9-34.7,0.3
		s-14.1,8.4-15.2,11.6c-1.1,3.3-2.2,6.9,0,6.9s16.3-11.6,25.7-11.2c9.4,0.4,32.2,11.9,39.8,13.7s23.1,4.7,34,0
		c10.9-4.7,21.4-10.5,21.4-10.5s-17.4,43.8-21.4,56.1c-3.9,12.3-6.9,21,0,30.4c6.9,9.4,23.6,14.8,23.6,14.8l-30,12.3
		c0,0-5.4-8.3-6.9-8.7c-1.4-0.4-8,3.6-10.9,6.9c-2.9,3.3-7.6,12.3-7.6,12.3s-39.1,0.7-52.8,2.2c-13.7,1.4-42.3,4.3-44.9,5.4
		s-3.6,4.7-3.6,4.7l11.9,3.6c0,0-31.8,12.3-39.4,17.7c-7.6,5.4-27.5,18.1-33.6,22.1s-6.1,10.1-6.1,10.1s4.3,4.3,7.6,4
		c3.3-0.4,41.6-11.2,41.6-11.2s-38,21-40.9,21.7c-2.9,0.7-20.3,9-23.5,10.1s-9.8,6.1-9.8,6.1s4.3,5.8,7.2,6.1
		c2.9,0.4,38.7-3.3,47.8-4.7s27.1-4.3,27.1-4.3l-7.2,9.1c0,0,6.9,2.9,9.8,1.8s19.2-9.4,26-11.6s29.7-8.3,33.6-10.5
		c4-2.2,9-7.2,9-7.2s-6.5,17.4-5.8,18.4c0.7,1.1,8.3,0.4,9.8-1.1c1.4-1.4,21.7-24.6,26-32.6c4.3-8,22.1-42,22.1-42
		s14.8-1.4,17.4-2.2c2.5-0.7,4.3-1.1,4.3-1.1l-1.4-10.5l28.6-9.4c0,0-5.1,14.5-8,20.6c-2.9,6.1-10.1,14.1-11.2,19.5
		c-1.1,5.4-7.2,19.2-17.4,26.8c-10.1,7.6-26,11.9-26.8,13c-0.7,1.1,1.1,5.1,5.8,6.1c4.7,1.1,18.4,6.5,22.1,6.1s17.4-2.5,17.4-2.5
		s-25,16.3-36.9,18.4s-30.9,0.9-35.7,1.7c-4.8,0.8-11.3,3-15.3,6.3c-4,3.3-15.6,6.5-18.4,10.5c-2.9,4-2.5,8.3-1.8,9.4
		c0.7,1.1,20.3-4.7,31.5-4.7s33.3,7.2,45.6,6.5c12.3-0.7,23.5-0.7,30.7-2.5c7.2-1.8,19.9-4.7,19.9-4.7s-1.1,8.3-0.7,10.5
		c0.4,2.2,2.5,4.7,2.5,4.7s20.3-7.6,32.2-22.4c11.9-14.8,38.3-39.8,38.3-39.8s0,13.4-2.2,17.7c-2.2,4.3-6.1,11.2-6.1,12.3
		s6.5,0.4,8.3,0s18.8-6.9,23.9-19.9c5.1-13,15.9-28.6,19.2-36.2c3.3-7.6,3.3-23.2,3.3-23.2s12.7,1.4,13.4-0.4c0.7-1.8-8-17-6.9-26.8
		c1.1-9.8,2.5-29.3,2.2-35.8c-0.4-6.5,0.7-17.7,0.7-17.7s13.4,6.1,15.6,10.1s4.3,8.3,3.6,15.6c-0.7,7.2-4.7,18.8-4.3,19.9
		c0.4,1.1,10.1-5.8,14.1-9c4-3.3,14.5-11.2,14.1-18.4c-0.4-7.2-1.4-23.2-1.4-30s-2.2-13-2.2-13s18.8-5.1,23.9-6.9
		c5.1-1.8,10.1-7.6,17-10.1c6.9-2.5,19.9-2.9,25.3-7.6c5.4-4.7,9.8-10.5,10.1-13.4c0.4-2.9,1.8-15.6,0-16.3
		c-1.8-0.7-11.6,2.5-17.4,8s-18.8,16.6-26.4,19.9c-7.6,3.3-44.1,17.4-44.1,17.4s-34.7-4-42.7-5.1c-8-1.1-18.8-5.1-18.8-5.1
		s9.8-19.2,15.6-25.3c5.8-6.1,11.9-12.7,10.9-16.3c-1.1-3.6-10.5-14.5-10.5-14.5s18.5,6.5,21,5.4c2.5-1.1,9.8-2.9,9.4-5.4
		s-8-10.5-8.3-13.7c-0.4-3.3,1.8-12.3,1.8-12.3s15.2,9.4,19.2,11.6s9-5.1,7.6-7.6s-13.4-22.4-16.3-22.8s-9-0.4-9-0.4l1.8-10.5
		c0,0,36.9-0.7,47.4,2.9c10.5,3.6,20.6,8,22.1,5.4c1.4-2.5-9.4-11.9-17-14.5s-29.3-10.1-36.9-11.2c-7.6-1.1-12.3-1.1-12.3-1.1
		S382.3,58.1,376.8,53c-5.4-5.1-22.1-19.2-27.1-25.7c-5.1-6.5-11.2-22.1-13.4-23.2s-30-5.1-33.6-4s-13,8.3-17.7,11.2
		s-15.2,8.7-18.8,14.8s-2.2,9.4-5.1,11.6C258.2,40,254.9,44,255.3,47.2z"/>
	<g>
		<g>
			<path class="st1" d="M246.2,181.8c3.2-8.4,7-16.7,11.8-24.5c1.2-1.9,2.5-3.8,4-5.6c0.8-0.9,1.6-1.7,2.5-2.5c0.5-0.4,1-0.7,1.5-1
				l1.6-0.8c4.2-1.8,8.5-3.2,12.8-4.6c8.7-2.6,17.4-5.1,26.1-7.4l13.1-3.4c4.4-1,8.8-2.1,13.2-3.1l-13,3.8l-13,3.8
				c-8.7,2.5-17.4,5-26,7.7c-4.3,1.4-8.6,2.7-12.7,4.4l-1.5,0.7c-0.4,0.3-0.9,0.6-1.3,0.9c-0.8,0.7-1.6,1.4-2.4,2.3
				c-1.5,1.7-2.8,3.5-4,5.3c-2.5,3.7-4.7,7.7-6.8,11.7C250.1,173.6,248.1,177.7,246.2,181.8z"/>
		</g>
		<g>
			<path class="st1" d="M235.8,390.5c2.4-3.1,4.8-6.2,7.2-9.4c2.4-3.1,4.7-6.3,6.9-9.5c2.2-3.2,4.4-6.5,6.3-9.9l0.7-1.3l0.7-1.3
				c0.4-0.9,0.9-1.7,1.3-2.6c0.4-0.9,0.8-1.8,1.2-2.7c0.3-0.9,0.6-1.9,1-2.8c-0.6,3.9-2.1,7.7-3.8,11.2c-0.8,1.8-1.9,3.5-2.9,5.2
				c-1.1,1.7-2.1,3.4-3.2,5c-2.3,3.3-4.7,6.4-7.2,9.4C241.3,384.9,238.6,387.8,235.8,390.5z"/>
		</g>
		<g>
			<path class="st1" d="M327.6,384.4c-0.7-1.9-1.2-3.8-1.5-5.7c-0.4-1.9-0.6-3.9-0.7-5.9c0-1,0-2,0-3c0.1-1,0.1-2,0.3-3
				c0.3-2,0.8-4,1.9-5.7c-0.5,1.9-0.7,3.8-0.8,5.8c-0.1,1.9,0,3.9,0.1,5.8C327.1,376.5,327.5,380.4,327.6,384.4z"/>
		</g>
		<g>
			<path class="st1" d="M255.3,431.4l10.4-6.5c3.5-2.2,6.9-4.3,10.3-6.6c3.4-2.2,6.8-4.5,10-7c1.6-1.2,3.2-2.5,4.7-3.9
				c1.5-1.3,2.9-2.8,4.1-4.5c-0.9,1.9-2.2,3.5-3.6,5c-1.4,1.5-2.9,2.9-4.5,4.2c-3.1,2.7-6.5,5-9.9,7.3c-3.4,2.2-7,4.4-10.5,6.3
				C262.7,427.9,259,429.7,255.3,431.4z"/>
		</g>
		<g>
			<path class="st1" d="M152.9,381.1c1.6-2.2,3.4-4.4,5.1-6.5c1.8-2.1,3.6-4.2,5.5-6.2c1.9-2,3.8-4,5.7-6c1.9-2,3.9-3.9,6-5.7
				c-1.6,2.2-3.4,4.4-5.1,6.5c-1.8,2.1-3.6,4.2-5.5,6.2c-1.9,2-3.8,4-5.7,6C157,377.4,155,379.3,152.9,381.1z"/>
		</g>
		<g>
			<path class="st1" d="M73.7,364.5c2.4-1.6,5-3.1,7.5-4.5c2.5-1.4,5.1-2.8,7.7-4.1c2.6-1.3,5.2-2.6,7.8-3.8c2.6-1.2,5.3-2.4,8-3.5
				c-2.4,1.6-5,3.1-7.5,4.5c-2.5,1.4-5.1,2.8-7.7,4.1c-2.6,1.3-5.2,2.6-7.8,3.8C79.1,362.2,76.4,363.4,73.7,364.5z"/>
		</g>
		<g>
			<path class="st1" d="M81.7,399.6c2.1-0.9,4.2-1.6,6.3-2.3c2.1-0.7,4.3-1.3,6.5-1.9c2.2-0.6,4.4-1.1,6.6-1.5
				c2.2-0.4,4.4-0.8,6.7-0.9c-2.1,0.7-4.3,1.4-6.4,2.1c-2.1,0.7-4.3,1.3-6.5,1.8c-2.2,0.6-4.3,1.1-6.5,1.6
				C86.1,398.8,83.9,399.3,81.7,399.6z"/>
		</g>
		<g>
			<path class="st1" d="M103.7,321.8c2.7-0.7,5.3-1.2,8-1.7c2.7-0.5,5.4-0.9,8.1-1.3c2.7-0.4,5.4-0.7,8.1-1c2.7-0.3,5.4-0.5,8.2-0.6
				c-2.7,0.7-5.3,1.2-8,1.7c-2.7,0.5-5.4,0.9-8.1,1.3c-2.7,0.4-5.4,0.7-8.1,1C109.2,321.5,106.5,321.7,103.7,321.8z"/>
		</g>
		<g>
			<path class="st1" d="M193.1,305.9c0.9,1,1.7,2,2.4,3.1c0.7,1.1,1.4,2.2,2.1,3.3c0.6,1.1,1.2,2.3,1.8,3.5c0.5,1.2,1,2.4,1.4,3.7
				c-0.9-1-1.7-2-2.4-3.1c-0.7-1.1-1.4-2.2-2.1-3.3c-0.6-1.1-1.2-2.3-1.8-3.5C193.9,308.4,193.4,307.2,193.1,305.9z"/>
		</g>
		<g>
			<path class="st1" d="M392.8,98.6c-5.2,0.3-10.5,0.6-15.7,0.8l-15.7,0.7c-5.2,0.2-10.4,0.5-15.7,0.8c-5.2,0.3-10.4,0.6-15.7,1.1
				c5.1-1.1,10.3-1.8,15.6-2.3c5.2-0.5,10.5-0.9,15.7-1.1c5.2-0.2,10.5-0.4,15.7-0.4C382.3,98.2,387.5,98.3,392.8,98.6z"/>
		</g>
		<g>
			<path class="st1" d="M258.2,117c7.3-2.1,14.6-3.8,22-5.5l11-2.6c1.8-0.5,3.7-0.9,5.5-1.4c1.8-0.4,3.6-1,5.4-1.6
				c-3.4,1.7-7,3-10.6,4.1c-3.6,1.1-7.3,2-11,2.9C273.1,114.7,265.7,116.1,258.2,117z"/>
		</g>
	</g>
</g>
</svg>
